<?xml version="1.0" encoding="UTF-8"?>
<!DOCTYPE svg PUBLIC "-//W3C//DTD SVG 1.1//EN" "http://www.w3.org/Graphics/SVG/1.1/DTD/svg11.dtd">
<svg xmlns="http://www.w3.org/2000/svg" version="1.1" width="283px" height="298px" style="shape-rendering:geometricPrecision; text-rendering:geometricPrecision; image-rendering:optimizeQuality; fill-rule:evenodd; clip-rule:evenodd" xmlns:xlink="http://www.w3.org/1999/xlink">
<g><path style="opacity:0.035" fill="#feffe2" d="M 88.5,-0.5 C 88.8333,-0.5 89.1667,-0.5 89.5,-0.5C 89.3147,0.170143 88.9813,0.170143 88.5,-0.5 Z"/></g>
<g><path style="opacity:1" fill="#080808" d="M 154.5,105.5 C 196.5,105.5 238.5,105.5 280.5,105.5C 280.5,153.167 280.5,200.833 280.5,248.5C 238.5,248.5 196.5,248.5 154.5,248.5C 154.333,222.165 154.5,195.831 155,169.5C 155.5,195.165 155.667,220.831 155.5,246.5C 195.506,246.833 235.506,246.5 275.5,245.5C 236.838,244.667 198.171,244.167 159.5,244C 158.672,221.239 158.172,198.406 158,175.5C 157.667,197.833 157.333,220.167 157,242.5C 156.333,217.5 156.333,192.5 157,167.5C 157.333,169.167 157.667,170.833 158,172.5C 158.079,170.264 158.579,168.93 159.5,168.5C 159.5,193.167 159.5,217.833 159.5,242.5C 197.833,242.5 236.167,242.5 274.5,242.5C 274.5,198.833 274.5,155.167 274.5,111.5C 258.5,111.5 242.5,111.5 226.5,111.5C 226.5,120.5 226.5,129.5 226.5,138.5C 217.833,138.5 209.167,138.5 200.5,138.5C 200.5,129.5 200.5,120.5 200.5,111.5C 201.493,119.984 201.826,128.651 201.5,137.5C 209.167,137.5 216.833,137.5 224.5,137.5C 224.385,127.416 224.552,117.416 225,107.5C 223.834,116.386 223,125.386 222.5,134.5C 217.533,135.662 212.533,135.829 207.5,135C 212.019,134.825 216.353,134.325 220.5,133.5C 221.492,126.352 221.825,119.019 221.5,111.5C 216.167,111.5 210.833,111.5 205.5,111.5C 204.671,118.655 204.171,125.989 204,133.5C 203.816,125.921 203.316,118.421 202.5,111C 207.992,109.714 213.659,109.047 219.5,109C 216.07,108.044 212.57,107.544 209,107.5C 191.312,107.615 173.479,107.615 155.5,107.5C 155.667,120.504 155.5,133.504 155,146.5C 154.5,132.837 154.333,119.171 154.5,105.5 Z"/></g>
<g><path style="opacity:1" fill="#fdfdfd" d="M 199.5,111.5 C 199.833,111.5 200.167,111.5 200.5,111.5C 200.5,120.5 200.5,129.5 200.5,138.5C 209.167,138.5 217.833,138.5 226.5,138.5C 226.5,129.5 226.5,120.5 226.5,111.5C 242.5,111.5 258.5,111.5 274.5,111.5C 274.5,155.167 274.5,198.833 274.5,242.5C 236.167,242.5 197.833,242.5 159.5,242.5C 159.5,217.833 159.5,193.167 159.5,168.5C 160.974,167.564 161.974,166.23 162.5,164.5C 164.002,160.022 163.669,155.688 161.5,151.5C 160.833,150.5 160.167,149.5 159.5,148.5C 159.5,136.167 159.5,123.833 159.5,111.5C 172.833,111.5 186.167,111.5 199.5,111.5 Z"/></g>
<g><path style="opacity:1" fill="#5a5a5a" d="M 199.5,111.5 C 186.167,111.5 172.833,111.5 159.5,111.5C 159.5,123.833 159.5,136.167 159.5,148.5C 158.505,136.011 158.171,123.344 158.5,110.5C 172.344,110.171 186.01,110.504 199.5,111.5 Z"/></g>
<g><path style="opacity:1" fill="#151515" d="M 154.5,105.5 C 154.333,119.171 154.5,132.837 155,146.5C 155.5,133.504 155.667,120.504 155.5,107.5C 173.479,107.615 191.312,107.615 209,107.5C 212.57,107.544 216.07,108.044 219.5,109C 213.659,109.047 207.992,109.714 202.5,111C 203.316,118.421 203.816,125.921 204,133.5C 204.171,125.989 204.671,118.655 205.5,111.5C 205.5,118.833 205.5,126.167 205.5,133.5C 210.5,133.5 215.5,133.5 220.5,133.5C 216.353,134.325 212.019,134.825 207.5,135C 212.533,135.829 217.533,135.662 222.5,134.5C 223,125.386 223.834,116.386 225,107.5C 224.552,117.416 224.385,127.416 224.5,137.5C 216.833,137.5 209.167,137.5 201.5,137.5C 201.826,128.651 201.493,119.984 200.5,111.5C 200.167,111.5 199.833,111.5 199.5,111.5C 186.01,110.504 172.344,110.171 158.5,110.5C 158.171,123.344 158.505,136.011 159.5,148.5C 160.167,149.5 160.833,150.5 161.5,151.5C 160.926,152.528 160.593,153.528 160.5,154.5C 159.201,153.91 158.368,152.91 158,151.5C 157.667,152.167 157.333,152.833 157,153.5C 156.167,152.5 155.333,151.5 154.5,150.5C 153.702,150.957 153.369,151.624 153.5,152.5C 150.08,150.778 146.414,150.111 142.5,150.5C 141.793,153.786 141.46,157.119 141.5,160.5C 140.566,161.568 140.232,162.901 140.5,164.5C 138.492,166.927 135.826,167.927 132.5,167.5C 123.763,166.149 115.097,164.482 106.5,162.5C 105.644,166.57 104.477,170.57 103,174.5C 102.333,176.5 102.333,178.5 103,180.5C 116.939,209.587 124.939,240.254 127,272.5C 133.26,276.756 138.927,281.756 144,287.5C 144.944,290.347 144.444,292.847 142.5,295C 133.725,296.107 124.891,296.607 116,296.5C 108.5,296.333 101,296.167 93.5,296C 93,295.5 92.5,295 92,294.5C 88.0873,276.514 83.0873,258.848 77,241.5C 64.1023,225.929 52.769,209.262 43,191.5C 39.1473,180.374 38.4806,169.04 41,157.5C 44.6811,133.419 51.0144,110.085 60,87.5C 65.0251,81.3089 69.8584,74.9755 74.5,68.5C 62.1816,57.6104 57.6816,43.9438 61,27.5C 67.8044,7.16652 81.9711,-1.33348 103.5,2C 110.05,3.88995 115.55,7.38995 120,12.5C 124.68,10.4111 129.513,8.74446 134.5,7.5C 141.273,8.69749 143.773,12.6975 142,19.5C 137.211,23.2157 132.044,26.3824 126.5,29C 131.156,41.7404 129.322,53.5738 121,64.5C 109.355,74.2955 96.3547,76.6288 82,71.5C 80.2621,75.2413 77.7621,78.408 74.5,81C 91.8886,77.9419 104.055,84.4419 111,100.5C 112.665,110.686 114.165,120.853 115.5,131C 125.327,134.381 134.661,138.715 143.5,144C 146.817,144.498 150.15,144.665 153.5,144.5C 153.171,131.323 153.505,118.323 154.5,105.5 Z"/></g>
<g><path style="opacity:1" fill="#fdfdfd" d="M 205.5,111.5 C 210.833,111.5 216.167,111.5 221.5,111.5C 221.825,119.019 221.492,126.352 220.5,133.5C 215.5,133.5 210.5,133.5 205.5,133.5C 205.5,126.167 205.5,118.833 205.5,111.5 Z"/></g>
<g><path style="opacity:1" fill="#fcfcfc" d="M 75.5,88.5 C 90.8982,85.7805 100.732,91.7805 105,106.5C 105.816,115.637 107.316,124.637 109.5,133.5C 118.033,139.018 127.2,143.018 137,145.5C 137.254,151.481 136.087,157.148 133.5,162.5C 123.59,159.689 113.59,157.189 103.5,155C 99.9662,151.131 96.1328,147.631 92,144.5C 89.3333,136.5 86.6667,128.5 84,120.5C 80.5948,118.89 79.0948,120.056 79.5,124C 80.423,129.436 81.7563,134.769 83.5,140C 83.5607,141.711 82.8941,143.044 81.5,144C 77.2077,145.926 72.7077,147.092 68,147.5C 62.6748,146.667 57.5082,145.334 52.5,143.5C 55.474,126.937 60.3074,110.937 67,95.5C 69.6278,92.7895 72.4611,90.4562 75.5,88.5 Z"/></g>
<g><path style="opacity:1" fill="#ead833" d="M 109.5,10.5 C 106.353,10.2634 103.353,9.43011 100.5,8C 92.0629,7.17157 84.7295,9.50491 78.5,15C 77.552,15.4828 76.552,15.6495 75.5,15.5C 76.1089,19.4578 74.4422,21.6244 70.5,22C 70.9574,22.414 71.2907,22.914 71.5,23.5C 68.0791,28.9742 66.7457,34.9742 67.5,41.5C 70.5184,41.6646 73.5184,41.498 76.5,41C 79.2813,38.5316 82.6146,37.3649 86.5,37.5C 81.3781,40.2249 76.0447,42.7249 70.5,45C 69.365,45.7494 68.365,45.5827 67.5,44.5C 63.0093,25.9788 69.6759,13.4788 87.5,7C 92.5,6.33333 97.5,6.33333 102.5,7C 105.174,7.67014 107.507,8.83681 109.5,10.5 Z"/></g>
<g><path style="opacity:1" fill="#fbfbfb" d="M 119.5,30.5 C 120.79,31.0577 121.623,32.0577 122,33.5C 124.745,59.087 113.245,70.2536 87.5,67C 79.3249,64.7603 73.3249,59.927 69.5,52.5C 86.3411,45.3395 103.008,38.0062 119.5,30.5 Z"/></g>
<g><path style="opacity:1" fill="#fbd50b" d="M 109.5,10.5 C 112.635,13.134 116.135,15.134 120,16.5C 123.978,15.3958 127.811,13.8958 131.5,12C 135.998,10.5233 138.165,12.0233 138,16.5C 121.176,24.3847 104.009,31.3847 86.5,37.5C 82.6146,37.3649 79.2813,38.5316 76.5,41C 73.5184,41.498 70.5184,41.6646 67.5,41.5C 66.7457,34.9742 68.0791,28.9742 71.5,23.5C 71.2907,22.914 70.9574,22.414 70.5,22C 74.4422,21.6244 76.1089,19.4578 75.5,15.5C 76.552,15.6495 77.552,15.4828 78.5,15C 84.7295,9.50491 92.0629,7.17157 100.5,8C 103.353,9.43011 106.353,10.2634 109.5,10.5 Z"/></g>
<g><path style="opacity:1" fill="#f6f5f6" d="M 153.5,152.5 C 160.215,156.928 160.048,160.928 153,164.5C 149.551,163.442 146.218,162.108 143,160.5C 142.517,161.448 142.351,162.448 142.5,163.5C 141.596,162.791 141.263,161.791 141.5,160.5C 141.46,157.119 141.793,153.786 142.5,150.5C 146.414,150.111 150.08,150.778 153.5,152.5 Z"/></g>
<g><path style="opacity:1" fill="#191919" d="M 161.5,151.5 C 163.669,155.688 164.002,160.022 162.5,164.5C 161.733,163.828 161.066,162.995 160.5,162C 163.093,159.811 163.093,157.644 160.5,155.5C 160.014,160.138 158.18,164.138 155,167.5C 152.808,166.601 150.642,165.601 148.5,164.5C 145.659,165.92 144.992,167.92 146.5,170.5C 146.5,198.833 146.5,227.167 146.5,255.5C 192.052,254.846 237.385,255.513 282.5,257.5C 282.5,258.167 282.5,258.833 282.5,259.5C 259.215,260.823 235.715,261.49 212,261.5C 188.664,261.5 165.498,261.167 142.5,260.5C 142.5,228.167 142.5,195.833 142.5,163.5C 142.351,162.448 142.517,161.448 143,160.5C 146.218,162.108 149.551,163.442 153,164.5C 160.048,160.928 160.215,156.928 153.5,152.5C 153.369,151.624 153.702,150.957 154.5,150.5C 155.333,151.5 156.167,152.5 157,153.5C 157.333,152.833 157.667,152.167 158,151.5C 158.368,152.91 159.201,153.91 160.5,154.5C 160.593,153.528 160.926,152.528 161.5,151.5 Z"/></g>
<g><path style="opacity:1" fill="#7e7e7e" d="M 141.5,160.5 C 141.263,161.791 141.596,162.791 142.5,163.5C 142.5,195.833 142.5,228.167 142.5,260.5C 141.833,228.5 141.167,196.5 140.5,164.5C 140.232,162.901 140.566,161.568 141.5,160.5 Z"/></g>
<g><path style="opacity:1" fill="#151515" d="M -0.5,273.5 C -0.5,271.833 -0.5,270.167 -0.5,268.5C 14.8123,248.662 28.8123,227.829 41.5,206C 43.3668,205.289 44.8668,205.789 46,207.5C 54.2543,219.676 62.7543,231.676 71.5,243.5C 61.7355,253.766 51.7355,263.932 41.5,274C 47.3174,279.804 50.8174,286.637 52,294.5C 51.5,295 51,295.5 50.5,296C 43.7506,296.877 37.0839,296.544 30.5,295C 19.4594,288.783 9.12607,281.616 -0.5,273.5 Z"/></g>
<g><path style="opacity:1" fill="#262626" d="M 162.5,164.5 C 161.974,166.23 160.974,167.564 159.5,168.5C 158.579,168.93 158.079,170.264 158,172.5C 157.667,170.833 157.333,169.167 157,167.5C 156.333,192.5 156.333,217.5 157,242.5C 157.333,220.167 157.667,197.833 158,175.5C 158.172,198.406 158.672,221.239 159.5,244C 198.171,244.167 236.838,244.667 275.5,245.5C 235.506,246.5 195.506,246.833 155.5,246.5C 155.667,220.831 155.5,195.165 155,169.5C 154.5,195.831 154.333,222.165 154.5,248.5C 153.502,222.339 153.169,196.005 153.5,169.5C 151.323,169.414 149.323,168.747 147.5,167.5C 146.614,168.325 146.281,169.325 146.5,170.5C 144.992,167.92 145.659,165.92 148.5,164.5C 150.642,165.601 152.808,166.601 155,167.5C 158.18,164.138 160.014,160.138 160.5,155.5C 163.093,157.644 163.093,159.811 160.5,162C 161.066,162.995 161.733,163.828 162.5,164.5 Z"/></g>
<g><path style="opacity:1" fill="#171717" d="M 167.5,297.5 C 166.5,297.5 165.5,297.5 164.5,297.5C 151.641,294.117 147.474,286.117 152,273.5C 159.181,265.598 167.348,264.431 176.5,270C 185.354,283.114 182.354,292.281 167.5,297.5 Z"/></g>
<g><path style="opacity:1" fill="#181818" d="M 250.5,297.5 C 249.833,297.5 249.167,297.5 248.5,297.5C 233.832,293.341 230.165,284.508 237.5,271C 246.737,264.434 255.237,265.267 263,273.5C 267.506,286.159 263.339,294.159 250.5,297.5 Z"/></g>
</svg>
