<svg xmlns="http://www.w3.org/2000/svg" width="1254" height="836" viewBox="0 0 1254 836">
<g>
<path d="M 963.80 628.98 C961.58,631.37 958.73,631.59 957.01,629.51 C956.03,628.33 956.02,626.67 957.00,621.51 L 958.23 615.00 L 954.00 608.00 C950.49,602.19 949.88,600.45 950.40,597.66 C951.18,593.53 954.81,589.99 959.18,589.10 C966.08,587.69 966.30,581.45 960.06,563.65 C954.92,548.96 954.64,548.78 950.37,557.32 C946.46,565.15 940.17,571.00 935.67,571.00 C934.89,571.00 930.84,568.51 926.66,565.46 C918.50,559.50 915.60,558.63 908.89,560.14 C900.80,561.95 896.61,560.06 882.45,548.17 C869.95,537.67 866.37,534.48 862.26,533.51 C860.47,533.08 858.58,533.08 855.81,533.07 C855.40,533.07 854.96,533.07 854.50,533.07 C843.87,533.01 837.78,535.32 831.89,541.63 C826.79,547.11 826.56,548.43 830.03,552.38 C833.07,555.84 833.80,559.64 832.04,562.92 C830.40,565.99 830.19,572.37 831.63,575.20 C834.80,581.43 832.56,588.19 826.13,591.81 C818.93,595.85 811.41,597.40 799.29,597.32 L 788.08 597.25 L 778.31 606.12 C772.81,611.12 765.64,616.52 761.88,618.49 C756.04,621.56 754.31,622.00 747.99,622.00 C741.63,622.00 739.66,621.50 731.63,617.82 C720.12,612.56 712.26,611.72 704.21,614.91 C698.37,617.22 692.04,617.61 688.68,615.87 C687.48,615.24 683.72,612.09 680.32,608.85 C673.92,602.76 659.39,595.00 654.39,595.00 C650.40,595.00 647.77,600.28 648.42,607.00 C649.29,616.09 648.18,619.13 642.98,621.82 C639.25,623.76 637.39,624.07 631.89,623.72 C626.27,623.35 623.85,622.51 615.77,618.14 C607.14,613.48 605.66,613.00 599.85,613.00 C593.86,613.00 592.73,613.40 581.98,619.38 C562.57,630.16 557.65,631.05 551.84,624.83 C549.28,622.08 548.62,621.86 545.25,622.56 C543.19,622.98 540.83,623.22 540.00,623.08 C537.47,622.65 534.42,619.18 531.50,613.41 C527.10,604.72 525.54,603.20 520.22,602.45 C517.63,602.08 513.38,600.44 510.79,598.81 C506.36,596.02 505.86,595.92 502.44,597.16 C498.94,598.42 498.71,598.36 496.12,595.46 C493.53,592.56 492.46,589.00 486.93,565.00 C485.79,560.07 479.35,546.53 477.35,544.88 C476.46,544.14 474.30,544.47 469.91,546.03 C462.71,548.59 457.61,548.29 453.05,545.03 C450.42,543.16 449.99,542.22 449.94,538.18 C449.88,533.87 449.55,533.26 445.69,530.42 C441.52,527.36 441.50,527.32 441.77,521.53 C442.08,514.89 440.64,511.90 435.99,509.50 C434.30,508.62 433.00,507.14 433.00,506.10 C433.00,502.44 430.95,502.05 413.12,502.36 L 395.88 502.65 L 393.34 505.38 C391.41,507.47 390.18,507.99 388.16,507.58 C386.69,507.28 382.58,506.54 379.00,505.92 C375.42,505.31 371.36,504.59 369.97,504.32 C367.86,503.92 367.18,504.39 365.97,507.09 C364.91,509.43 363.40,510.73 360.61,511.67 C354.43,513.77 353.69,514.77 354.47,519.96 C355.58,527.23 355.20,530.16 352.85,532.66 C348.08,537.74 339.44,534.74 327.73,523.96 C323.75,520.28 318.19,516.12 315.38,514.69 C307.09,510.49 304.20,507.37 298.98,496.96 C292.34,483.72 290.56,482.50 277.95,482.50 C269.09,482.50 267.91,482.75 261.81,485.84 C252.97,490.33 251.46,489.94 251.64,483.22 C251.76,478.51 251.57,478.00 249.64,478.01 C246.91,478.02 238.33,482.93 234.73,486.54 C231.10,490.18 230.40,493.38 232.01,498.94 C234.35,507.00 234.37,511.36 232.08,515.84 C228.90,522.08 225.48,523.44 212.90,523.47 C201.23,523.50 199.00,524.38 199.00,528.93 C199.00,530.40 197.54,533.79 195.75,536.47 C193.96,539.14 191.75,542.44 190.82,543.81 C189.90,545.18 188.85,548.59 188.49,551.40 C186.96,563.34 184.01,568.00 177.95,568.00 C173.12,568.00 170.59,563.70 169.18,553.10 C168.27,546.28 167.17,542.50 164.97,538.59 C162.97,535.06 161.69,531.00 161.11,526.33 C160.10,518.27 159.01,515.93 150.51,503.48 C142.74,492.09 141.33,487.67 140.55,472.03 L 139.92 459.56 L 136.33 456.60 C130.86,452.09 128.02,445.06 128.01,436.00 C128.01,427.39 130.20,422.49 134.54,421.40 C140.82,419.82 144.69,424.96 146.16,436.82 C147.15,444.72 149.22,450.00 151.33,450.00 C152.04,450.00 155.29,448.38 158.56,446.41 C170.73,439.04 171.24,438.89 182.23,439.08 C190.97,439.23 192.52,439.01 193.67,437.44 C195.46,434.99 195.35,431.06 193.36,426.37 C192.46,424.24 191.62,419.76 191.49,416.41 C191.29,411.26 190.70,409.52 187.63,405.05 C182.41,397.46 182.80,394.77 190.39,386.34 C195.72,380.41 196.01,378.38 192.50,371.79 C187.16,361.76 190.14,354.61 200.53,352.53 L 206.40 351.36 L 207.61 346.65 C208.27,344.05 210.65,339.49 212.91,336.50 C218.73,328.80 219.48,326.83 218.12,322.93 C215.95,316.68 217.15,312.43 223.27,304.81 C227.25,299.86 237.10,293.08 242.83,291.34 C248.02,289.77 255.87,290.93 258.07,293.59 C259.81,295.68 260.47,295.35 261.79,291.69 C262.45,289.87 264.37,287.06 266.06,285.44 L 269.14 282.50 L 283.54 282.83 L 297.94 283.17 L 303.22 278.29 C306.12,275.62 311.88,270.52 316.00,266.97 C332.79,252.53 342.45,243.16 347.03,236.86 C352.95,228.72 357.69,226.42 366.83,227.25 C380.23,228.47 387.32,236.05 388.69,250.62 C389.37,257.90 386.53,283.70 384.38,289.70 C382.38,295.27 376.98,300.00 372.61,300.00 C368.64,300.00 363.35,296.65 360.39,292.24 C359.20,290.48 357.45,285.86 356.50,281.99 C354.44,273.57 351.98,269.98 349.38,271.56 C344.69,274.43 335.71,299.17 338.44,301.72 C338.90,302.15 339.47,301.96 339.70,301.30 C341.10,297.41 344.81,293.47 347.37,293.18 C350.95,292.76 353.70,295.20 356.20,301.00 C359.60,308.88 360.04,309.11 370.54,308.37 C376.17,307.97 380.94,308.13 382.78,308.77 C386.84,310.19 388.77,308.73 394.96,299.56 C400.11,291.92 402.91,290.25 407.58,292.03 C411.73,293.61 412.22,298.09 409.28,307.57 C405.94,318.35 406.53,319.32 415.50,317.83 C418.80,317.28 425.35,317.01 430.06,317.22 C439.98,317.66 444.18,319.64 448.28,325.84 C451.13,330.16 456.20,333.00 461.03,333.00 C462.80,333.00 466.66,334.38 469.61,336.06 L 474.96 339.12 L 479.62 335.56 C485.20,331.30 489.64,330.88 493.41,334.25 C495.97,336.54 501.34,344.77 507.16,355.35 C510.09,360.67 510.50,361.03 511.70,359.39 C513.89,356.40 514.99,350.91 514.99,342.92 C515.00,336.21 515.34,334.84 517.94,330.92 C521.92,324.93 533.53,314.76 538.77,312.69 C545.32,310.10 549.62,310.47 553.08,313.92 C557.40,318.24 557.06,322.27 551.85,328.52 C547.00,334.35 542.30,343.83 541.47,349.50 C540.10,358.77 536.79,370.62 534.28,375.22 C530.40,382.36 524.02,388.85 520.11,389.63 C515.99,390.45 517.91,391.96 523.12,391.98 C528.31,392.01 531.37,389.09 535.98,379.69 C539.03,373.49 540.75,367.86 543.08,356.50 C544.98,347.24 547.06,339.94 548.51,337.44 C551.19,332.82 559.64,325.78 561.96,326.24 C563.62,326.57 563.91,330.81 562.82,338.88 C562.20,343.51 563.37,349.49 565.11,350.57 C565.81,351.00 565.95,349.76 565.54,346.86 C564.81,341.72 567.34,336.72 571.64,334.75 C574.14,333.61 574.54,333.84 579.09,339.00 C581.73,341.99 584.17,344.17 584.50,343.83 C584.84,343.49 584.40,338.40 583.52,332.50 C582.31,324.35 582.21,321.45 583.09,320.39 C583.96,319.35 587.17,319.00 596.02,319.00 C608.91,319.00 609.00,318.96 609.00,312.67 C609.01,304.17 621.69,294.78 639.69,289.92 C649.72,287.21 651.36,286.10 655.09,279.49 C661.17,268.73 668.34,265.94 674.10,272.11 C675.69,273.81 677.00,275.54 677.00,275.95 C677.00,277.60 682.01,278.95 684.56,277.98 C689.43,276.12 695.87,276.78 698.48,279.39 C704.23,285.14 703.04,293.58 693.95,311.59 C690.13,319.17 687.00,325.49 687.00,325.63 C687.00,325.77 689.36,324.33 692.25,322.42 C700.87,316.72 705.45,314.93 712.94,314.30 C719.33,313.77 720.53,313.97 724.84,316.32 C729.54,318.87 729.71,318.89 733.07,317.21 C735.39,316.05 737.20,314.00 738.69,310.85 C741.60,304.70 744.20,303.00 750.76,303.00 C757.33,303.00 762.89,305.67 766.71,310.64 C772.07,317.65 776.24,322.00 777.60,322.00 C778.35,322.00 779.24,320.76 779.57,319.25 C779.91,317.74 780.40,315.71 780.66,314.74 C781.23,312.64 785.97,310.00 789.20,309.99 C790.47,309.98 793.85,308.89 796.72,307.55 C802.87,304.69 803.70,302.68 802.04,294.69 C800.07,285.21 802.11,281.95 812.67,277.69 C816.07,276.32 820.79,273.87 823.17,272.24 C830.47,267.25 833.68,266.00 839.20,265.99 C850.38,265.98 854.91,262.94 860.41,251.78 C862.95,246.62 864.30,245.09 868.00,243.18 C873.41,240.39 879.24,240.69 886.28,244.10 C891.98,246.88 894.00,245.76 894.00,239.85 C894.00,229.23 900.34,222.71 913.26,220.04 C918.65,218.93 920.33,217.00 915.90,217.00 C912.91,217.00 906.22,213.27 904.95,210.90 C903.50,208.20 904.31,205.09 908.69,196.50 C917.44,179.37 930.90,164.47 946.06,155.14 C950.66,152.31 954.94,150.00 955.59,150.00 C958.45,150.00 959.27,147.14 957.61,142.99 C954.88,136.16 955.40,134.28 961.84,127.84 C966.46,123.22 968.33,122.00 970.79,122.00 C977.59,122.00 981.50,126.08 982.64,134.36 C983.38,139.76 983.88,140.02 994.69,140.73 C1002.04,141.22 1003.17,141.57 1005.61,144.11 C1007.67,146.26 1008.29,147.86 1008.18,150.71 C1007.94,157.27 1005.32,159.48 988.50,167.30 C981.79,170.42 981.49,170.71 981.19,174.35 C980.95,177.15 981.50,178.97 983.29,181.32 C984.62,183.07 986.71,186.47 987.94,188.87 C990.09,193.10 990.27,193.21 993.83,192.55 C1006.17,190.26 1010.66,190.95 1015.40,195.89 L 1018.12 198.74 L 1014.56 205.45 C1010.39,213.32 1010.13,216.94 1012.96,228.16 C1014.30,233.47 1016.24,237.79 1019.28,242.23 C1025.21,250.89 1029.77,262.25 1031.11,271.68 C1032.57,281.92 1031.60,297.95 1029.08,305.28 L 1027.11 311.00 L 1030.59 311.00 C1035.21,311.00 1040.35,313.24 1042.40,316.14 C1043.32,317.44 1044.78,320.92 1045.64,323.88 C1046.77,327.74 1048.73,330.90 1052.61,335.12 C1057.95,340.93 1058.00,341.04 1058.00,347.34 L 1058.00 347.53 C1058.00,349.83 1058.00,351.31 1058.34,352.71 C1058.96,355.25 1060.73,357.52 1065.69,363.99 C1068.97,368.26 1069.80,371.24 1072.06,386.81 L 1073.26 395.13 L 1081.66 404.81 C1090.54,415.06 1092.69,419.50 1091.60,425.30 C1090.69,430.18 1087.72,433.56 1082.64,435.50 C1074.07,438.77 1069.76,435.94 1052.87,416.00 C1049.38,411.88 1040.96,402.28 1034.17,394.67 C1026.24,385.79 1020.99,378.98 1019.52,375.63 C1018.25,372.76 1016.46,369.80 1015.54,369.03 C1013.39,367.25 1011.28,363.31 1007.52,354.09 C1003.57,344.40 1002.43,343.74 995.74,347.24 C985.33,352.69 977.24,355.12 964.77,356.54 C958.18,357.29 956.62,358.73 950.49,369.76 C947.83,374.57 942.76,381.83 939.23,385.90 C933.33,392.73 930.41,395.97 928.93,399.78 C927.41,403.70 927.43,408.23 927.28,417.90 C927.13,427.03 926.37,438.33 925.59,443.00 C921.18,469.22 921.33,476.00 926.34,476.00 C927.65,476.00 930.70,476.26 933.11,476.58 C937.46,477.16 937.52,477.13 940.23,472.58 C941.72,470.06 944.42,467.10 946.23,466.00 C950.17,463.60 958.77,463.31 962.89,465.44 C967.67,467.92 972.60,475.55 979.63,491.41 C982.05,496.85 986.57,505.09 989.67,509.71 L 995.32 518.11 L 996.28 529.31 C998.26,552.53 993.34,600.17 987.94,610.04 C985.16,615.11 980.36,617.98 973.30,618.77 C970.38,619.10 968.65,619.84 968.32,620.89 C967.36,623.95 965.67,626.97 963.80,628.98 ZM 554.47 620.55 C557.10,624.00 557.55,624.20 561.65,623.74 C564.35,623.43 568.80,621.59 573.26,618.94 C589.08,609.53 592.76,608.00 599.64,608.00 C605.39,608.00 607.13,608.55 617.00,613.50 C625.99,618.01 628.88,619.00 633.05,619.00 C638.05,619.00 641.74,617.77 643.28,615.60 C643.71,615.00 643.77,611.47 643.43,607.76 C642.86,601.70 643.06,600.58 645.36,596.65 C648.25,591.72 652.49,589.41 656.73,590.46 C664.25,592.31 678.09,600.04 684.39,605.90 C688.00,609.25 691.52,612.05 692.22,612.11 C695.58,612.39 699.82,611.65 703.48,610.16 C705.97,609.14 710.36,608.51 715.00,608.51 C721.81,608.50 723.33,608.90 731.50,612.85 C739.42,616.67 741.35,617.20 747.57,617.26 C756.50,617.34 761.80,614.65 773.72,604.00 C782.47,596.19 785.51,593.36 789.02,592.50 C791.02,592.02 793.16,592.17 796.59,592.40 C796.88,592.42 797.19,592.45 797.50,592.47 C804.70,592.96 808.10,592.68 814.47,591.07 C826.85,587.95 829.97,584.66 827.34,577.46 C825.49,572.36 825.52,566.39 827.43,561.82 C828.90,558.29 828.87,558.11 825.97,554.46 C824.32,552.39 823.00,549.52 823.00,548.01 C823.00,542.03 832.80,532.66 842.23,529.61 C849.17,527.37 861.54,527.47 866.12,529.81 C868.07,530.80 874.48,535.64 880.36,540.56 C886.23,545.48 893.17,550.99 895.77,552.80 C900.48,556.09 900.54,556.10 909.12,555.46 C918.78,554.73 920.00,555.13 930.28,562.36 C935.91,566.33 936.12,566.39 938.78,564.81 C940.37,563.87 943.40,559.73 946.07,554.85 C950.38,546.97 950.84,546.48 954.26,546.19 C958.47,545.84 959.40,547.12 962.83,558.00 C963.95,561.58 965.80,567.08 966.94,570.23 C969.69,577.86 969.71,586.83 966.99,590.29 C965.88,591.70 963.52,593.16 961.74,593.53 C958.02,594.32 955.00,596.66 955.00,598.74 C955.00,599.53 956.63,603.10 958.63,606.67 C961.96,612.61 962.21,613.64 961.69,618.83 C961.18,623.93 961.27,624.30 962.56,622.56 C963.35,621.49 964.00,620.09 964.00,619.44 C964.00,618.80 964.89,617.14 965.98,615.76 C967.67,613.61 968.58,613.30 972.23,613.68 C977.28,614.19 982.12,611.64 984.32,607.29 C988.36,599.29 992.38,562.25 991.86,537.81 L 991.50 521.31 L 986.81 514.26 C984.23,510.38 978.55,499.83 974.18,490.81 C965.27,472.42 961.64,468.00 955.42,468.00 C949.99,468.00 946.30,470.48 943.51,475.99 C940.43,482.05 938.03,483.55 933.78,482.07 C932.09,481.48 929.16,481.00 927.27,481.00 C924.78,481.00 923.01,480.16 920.78,477.93 L 917.71 474.86 L 918.32 464.68 C918.66,459.08 919.67,450.67 920.56,446.00 C921.49,441.20 922.48,429.00 922.85,418.00 C923.60,395.89 922.95,397.79 934.09,385.24 C937.25,381.68 942.00,374.90 944.65,370.18 C947.30,365.46 950.46,360.42 951.68,358.97 L 953.89 356.34 L 946.20 355.15 C938.06,353.90 928.31,349.82 918.62,343.62 L 913.01 340.03 L 909.52 346.95 C904.57,356.78 896.04,371.04 893.41,373.88 C892.19,375.20 890.53,376.03 889.74,375.73 C886.16,374.36 867.74,342.43 866.01,334.60 C863.04,321.20 871.23,307.98 884.67,304.47 C887.85,303.64 889.38,302.74 889.14,301.85 C888.94,301.11 888.38,297.12 887.89,293.00 C886.23,279.01 888.62,264.80 894.66,252.75 C895.96,250.14 896.60,248.00 896.08,248.00 C895.55,248.00 894.84,248.45 894.50,249.00 C893.51,250.61 887.83,250.09 883.50,248.00 C878.62,245.64 872.23,245.45 869.20,247.57 C867.97,248.44 865.57,251.92 863.87,255.32 C862.17,258.72 859.82,262.56 858.64,263.85 C855.27,267.55 849.55,270.00 844.29,270.01 C837.51,270.01 832.10,271.69 827.73,275.15 C825.65,276.79 820.72,279.47 816.78,281.09 C807.23,285.03 805.68,286.51 806.41,290.98 C808.19,301.93 808.20,302.72 806.59,305.82 C804.72,309.45 799.92,312.17 791.61,314.35 C784.91,316.10 785.59,315.57 784.41,319.90 C783.22,324.26 779.08,327.48 775.93,326.48 C773.41,325.68 768.54,320.87 764.96,315.65 C761.76,310.98 756.76,307.83 751.76,307.33 C746.44,306.81 745.81,307.25 742.33,313.99 C739.94,318.61 738.76,319.77 734.76,321.41 L 730.02 323.36 L 723.39 320.64 C717.99,318.42 715.89,318.04 712.13,318.59 C706.69,319.38 700.39,322.39 692.35,328.02 C686.32,332.24 683.46,332.71 681.62,329.77 C680.75,328.38 682.08,325.02 688.48,312.45 C695.35,298.95 696.47,296.02 696.81,290.67 C697.14,285.39 696.90,284.22 695.13,282.62 C693.14,280.82 692.79,280.81 686.41,282.41 C678.76,284.33 677.24,283.80 672.41,277.47 C670.17,274.53 669.14,273.95 666.60,274.20 C663.94,274.46 662.90,275.52 659.15,281.80 C656.75,285.81 653.74,289.78 652.45,290.63 C651.16,291.47 646.74,293.00 642.62,294.03 C634.74,296.00 624.70,300.57 619.25,304.66 C615.25,307.66 613.00,311.83 613.00,316.23 C613.00,318.06 612.25,320.62 611.34,321.92 C609.73,324.22 609.40,324.27 599.59,323.67 C594.04,323.34 588.98,323.38 588.34,323.78 C587.47,324.33 587.58,327.67 588.79,337.20 C590.33,349.35 590.33,349.98 588.58,351.92 C586.08,354.67 584.29,353.54 578.40,345.51 C575.77,341.93 573.28,339.00 572.86,339.00 C570.65,339.00 569.19,343.46 569.72,348.59 C570.66,357.73 566.31,359.94 561.39,352.84 C558.85,349.17 558.50,347.79 558.50,341.34 C558.50,336.91 558.10,334.13 557.50,334.31 C556.95,334.48 555.12,336.66 553.44,339.14 C551.20,342.45 549.77,346.58 548.09,354.58 C542.83,379.60 536.66,392.44 528.38,395.60 C524.15,397.21 523.39,397.22 516.31,395.68 C512.16,394.78 508.09,393.49 507.28,392.81 C505.99,391.75 506.09,391.35 508.02,389.79 C509.24,388.80 512.77,387.25 515.86,386.35 C522.14,384.53 526.10,380.92 530.29,373.20 C532.78,368.61 537.00,354.14 537.00,350.19 C537.00,346.02 541.12,335.15 544.24,331.08 L 544.76 330.40 C550.64,322.74 552.22,320.68 551.77,319.26 C551.59,318.70 551.10,318.24 550.43,317.57 C548.36,315.50 542.09,315.56 538.97,317.68 C533.50,321.40 522.80,331.48 521.23,334.40 C520.17,336.37 519.33,341.14 518.93,347.50 C518.21,358.81 516.05,364.70 512.26,365.65 C508.93,366.49 506.75,364.13 500.40,352.82 C491.54,337.04 487.92,334.12 483.41,339.10 C481.26,341.48 476.79,344.00 474.72,344.00 C473.96,344.00 471.35,342.70 468.92,341.10 C466.16,339.29 462.44,337.94 459.00,337.49 C451.69,336.53 449.58,335.30 445.18,329.44 C442.08,325.31 440.49,324.18 435.55,322.58 C430.25,320.85 428.80,320.77 421.52,321.83 C410.20,323.46 407.67,323.31 404.52,320.84 C402.10,318.93 401.84,318.19 402.33,314.58 C402.64,312.33 403.85,308.34 405.01,305.71 C407.40,300.30 407.32,296.68 404.79,296.19 C403.60,295.97 401.73,297.96 398.67,302.73 C396.25,306.50 392.78,310.85 390.96,312.38 C388.16,314.73 387.15,315.05 384.57,314.35 C382.88,313.90 376.77,313.49 371.00,313.45 C364.72,313.41 359.59,312.89 358.24,312.15 C357.00,311.48 354.41,307.79 352.48,303.96 C350.55,300.13 348.54,297.00 348.00,297.00 C347.47,297.00 345.92,299.19 344.56,301.88 C342.02,306.90 340.12,308.37 337.47,307.35 C331.44,305.04 333.16,289.86 341.15,274.86 C344.96,267.72 349.26,264.89 353.42,266.78 C356.91,268.37 358.57,271.35 360.96,280.32 C363.37,289.35 365.19,292.53 369.09,294.55 C372.53,296.33 376.17,295.20 378.51,291.63 C380.85,288.05 383.17,271.43 383.35,257.00 C383.49,245.44 383.32,244.18 381.07,240.25 C376.87,232.92 366.33,229.50 358.29,232.87 C356.53,233.60 353.31,236.56 351.13,239.44 C347.51,244.24 335.28,255.96 312.42,276.52 C305.01,283.18 301.94,286.11 298.29,287.28 C295.45,288.20 292.26,288.06 286.42,287.79 C285.92,287.77 285.40,287.74 284.86,287.72 C269.86,287.05 268.24,287.74 265.52,295.94 C264.62,298.64 263.26,301.37 262.49,302.01 C260.97,303.27 257.00,302.46 257.00,300.89 C257.00,298.57 252.00,295.00 248.74,295.00 C243.80,295.00 235.22,299.69 229.21,305.67 C222.09,312.78 220.78,316.00 222.72,321.69 C224.66,327.39 224.03,329.46 218.06,336.92 C212.91,343.37 212.59,344.01 211.54,350.25 C210.84,354.44 208.22,356.30 201.63,357.32 C197.36,357.98 194.00,360.44 194.00,362.90 C194.01,363.78 195.35,367.20 197.00,370.50 C201.20,378.92 200.96,380.67 194.50,388.54 C191.48,392.23 189.00,396.11 189.00,397.17 C189.00,398.22 190.57,401.42 192.50,404.28 C195.43,408.62 196.01,410.38 196.04,414.99 C196.05,418.02 196.71,421.62 197.50,423.00 C198.33,424.45 198.94,428.28 198.96,432.10 C198.99,437.76 198.65,439.09 196.55,441.35 C194.18,443.91 193.72,444.00 182.89,444.00 L 171.68 444.00 L 164.09 448.44 C154.13,454.26 151.59,455.17 148.55,454.02 C145.07,452.70 143.26,448.53 141.55,437.97 C139.98,428.30 138.91,426.00 135.96,426.00 C131.86,426.00 130.88,440.00 134.48,446.97 C135.87,449.65 140.82,454.43 142.95,455.15 C143.52,455.35 144.47,462.38 145.10,471.00 C146.35,488.15 147.72,492.63 154.33,501.24 C160.87,509.75 164.14,516.57 164.99,523.45 C165.47,527.32 167.04,532.39 168.89,536.11 C170.93,540.19 172.52,545.60 173.54,551.90 C175.19,562.14 175.76,563.38 178.61,562.84 C181.13,562.35 182.67,558.76 184.05,550.13 C185.00,544.16 185.84,542.07 188.47,539.13 C192.60,534.51 194.00,531.81 194.00,528.47 C194.00,526.77 195.23,524.57 197.40,522.40 L 200.80 519.00 L 211.98 519.00 C223.00,519.00 223.19,518.96 226.08,516.08 C229.47,512.68 229.99,507.31 227.50,501.35 C225.27,496.01 225.65,491.93 228.85,486.95 C232.45,481.33 234.12,479.88 241.35,476.08 C247.44,472.88 252.74,472.14 254.80,474.20 C255.46,474.86 256.00,477.11 256.00,479.20 C256.00,481.29 256.20,483.00 256.44,483.00 C256.69,483.00 258.37,482.13 260.19,481.07 C262.01,480.01 267.16,478.62 271.63,477.98 C288.03,475.61 296.25,479.85 302.69,493.99 C306.91,503.26 309.70,506.27 318.00,510.51 C321.73,512.42 326.84,516.24 330.00,519.47 C338.60,528.29 346.07,532.13 349.60,529.55 C351.12,528.44 351.20,527.63 350.25,522.89 C348.42,513.74 350.14,510.09 357.48,507.57 C359.95,506.72 361.63,505.24 362.80,502.91 C363.80,500.91 365.38,499.37 366.62,499.20 C368.44,498.94 378.79,501.27 385.54,503.46 C386.96,503.92 388.68,503.24 391.26,501.19 L 394.94 498.27 L 413.70 498.17 C431.54,498.08 432.57,498.18 434.73,500.21 C435.98,501.39 437.00,502.70 437.00,503.14 C437.00,503.57 438.82,505.63 441.05,507.71 C445.37,511.75 447.18,516.69 446.42,522.36 C446.05,525.11 446.52,525.88 450.25,528.56 C454.26,531.45 454.50,531.90 454.50,536.56 C454.50,541.31 454.63,541.53 457.97,542.62 C460.94,543.58 462.36,543.40 467.74,541.37 C475.47,538.47 480.08,538.33 482.44,540.94 C483.41,542.00 483.92,543.32 483.59,543.86 C483.25,544.40 484.52,547.85 486.41,551.54 C488.30,555.22 490.53,560.99 491.37,564.37 C492.22,567.74 494.06,575.21 495.47,580.97 C496.88,586.73 498.43,591.83 498.91,592.31 C499.41,592.81 500.66,592.72 501.83,592.09 C505.11,590.33 508.63,590.82 511.78,593.47 C515.29,596.42 519.14,598.00 522.84,598.00 C527.06,598.00 529.33,600.23 534.56,609.55 L 539.41 618.19 L 545.54 617.53 L 551.67 616.88 ZM 949.00 350.52 C959.29,352.22 961.20,352.22 971.50,350.44 C995.30,346.35 1014.39,330.24 1023.25,306.77 C1026.20,298.94 1026.37,297.73 1026.44,284.00 C1026.50,270.42 1026.32,269.00 1023.63,261.69 C1019.87,251.49 1012.86,240.90 1005.14,233.77 C997.42,226.64 991.84,223.35 981.55,219.82 C974.45,217.38 972.01,217.05 960.86,217.03 C947.19,217.00 939.69,218.61 929.50,223.75 C917.94,229.59 905.40,242.14 899.76,253.50 C894.30,264.51 892.71,271.51 892.76,284.43 C892.84,304.62 897.94,316.97 911.98,331.02 C923.50,342.53 933.90,348.01 949.00,350.52 ZM 974.50 340.88 C972.30,341.49 965.55,341.97 959.50,341.96 C944.76,341.91 934.44,338.43 923.55,329.80 C914.43,322.59 908.34,314.03 904.19,302.58 C900.63,292.74 900.51,276.67 903.94,267.00 C913.09,241.18 934.03,226.00 960.51,226.00 C977.54,226.00 990.67,231.65 1002.35,244.01 C1013.70,256.02 1018.58,269.67 1017.73,287.00 C1016.90,303.93 1010.71,316.88 997.99,328.32 C992.72,333.05 981.92,338.83 974.50,340.88 ZM 1003.00 225.29 C1005.47,227.21 1007.65,228.64 1007.84,228.47 C1008.03,228.30 1007.63,225.72 1006.97,222.75 C1005.54,216.38 1006.83,208.45 1010.01,203.98 C1012.77,200.11 1012.50,198.45 1008.87,196.95 C1006.30,195.88 1004.66,195.89 999.62,197.00 C988.66,199.41 987.85,199.21 985.00,193.37 C983.62,190.55 981.19,186.54 979.59,184.47 C977.64,181.96 976.53,179.19 976.24,176.11 C975.61,169.52 978.03,166.97 990.49,161.10 C1001.98,155.68 1005.06,152.63 1003.20,148.55 C1002.25,146.45 1001.25,146.11 994.31,145.55 C978.38,144.27 977.66,143.83 977.53,135.54 C977.38,125.99 972.85,124.33 965.48,131.13 C960.64,135.58 960.15,137.45 962.56,142.11 C963.42,143.77 963.98,146.54 963.81,148.28 C963.53,151.11 962.71,151.83 955.50,155.49 C936.43,165.17 923.85,177.87 913.10,198.30 C910.85,202.59 909.00,206.77 909.00,207.60 C909.00,209.51 916.50,212.95 920.71,212.98 C923.75,213.00 926.81,215.85 925.36,217.30 C925.05,217.61 925.07,218.30 925.39,218.83 C925.74,219.38 929.01,218.56 933.20,216.85 C943.61,212.61 948.05,211.84 961.52,211.91 C972.02,211.97 974.63,212.34 982.02,214.84 C992.27,218.30 997.07,220.69 1003.00,225.29 ZM 959.29 324.79 C959.85,325.50 960.66,325.73 961.09,325.29 C963.40,322.92 975.88,301.72 981.74,290.21 L 988.50 276.91 L 988.49 267.21 C988.48,259.85 988.06,256.72 986.72,254.26 C983.75,248.80 978.92,244.00 973.59,241.21 C969.31,238.96 967.23,238.54 960.50,238.54 C947.68,238.55 939.35,243.48 933.75,254.38 C931.04,259.67 930.62,261.52 930.64,268.00 C930.67,274.25 931.20,276.63 933.81,282.28 C938.93,293.37 953.02,316.87 959.29,324.79 ZM 950.32 336.99 C956.77,337.94 963.87,338.01 966.50,337.15 C968.46,336.51 968.46,336.46 966.27,334.31 C965.05,333.10 963.78,332.54 963.46,333.06 C962.33,334.90 958.33,333.96 955.81,331.25 C950.86,325.96 937.21,303.34 927.90,285.00 C924.80,278.90 924.59,277.86 924.55,268.00 C924.50,258.40 924.74,257.05 927.29,252.21 C931.28,244.64 936.49,239.30 943.44,235.67 C949.19,232.66 950.07,232.50 960.50,232.52 C970.51,232.54 971.97,232.79 976.71,235.27 C986.89,240.59 992.50,247.81 995.55,259.52 C997.49,266.98 997.41,268.35 994.47,278.50 C992.60,284.95 992.23,287.57 993.04,288.54 C994.36,290.13 999.99,309.39 1000.02,312.38 C1000.02,313.55 1000.48,315.17 1001.03,316.00 C1001.90,317.30 1002.26,317.23 1003.64,315.50 C1006.91,311.41 1011.16,300.78 1010.53,298.27 C1010.19,296.92 1008.13,291.86 1005.96,287.03 C1000.19,274.21 1000.57,271.20 1008.55,266.45 C1010.22,265.45 1010.17,265.06 1007.79,259.85 C1006.33,256.66 1002.36,251.23 998.45,247.10 C993.06,241.38 989.98,239.09 983.58,236.03 C969.46,229.30 958.46,228.30 945.38,232.57 C926.59,238.70 914.87,250.06 908.64,268.17 C902.10,287.16 907.84,309.35 922.85,323.13 C929.21,328.96 943.00,335.92 950.32,336.99 ZM 779.57 445.23 C778.02,446.30 777.32,446.18 775.66,444.52 C771.46,440.32 756.54,415.04 754.16,408.10 C752.39,402.91 752.76,393.12 754.90,388.50 C760.94,375.52 778.12,370.19 790.51,377.45 C801.52,383.91 805.55,396.08 800.85,408.71 C797.50,417.72 782.74,443.05 779.57,445.23 ZM 335.34 486.89 C332.13,491.86 328.90,496.17 328.16,496.47 C326.27,497.23 322.27,492.63 316.30,482.86 C306.80,467.31 302.64,458.16 302.18,451.78 C301.45,441.67 306.61,432.29 315.41,427.78 C321.28,424.77 332.98,424.71 338.50,427.67 C347.46,432.47 351.45,439.39 351.48,450.14 C351.50,457.40 351.24,458.29 346.34,467.82 C343.50,473.34 338.55,481.92 335.34,486.89 ZM 385.04 421.82 C380.61,428.49 380.12,428.95 378.14,428.25 C376.31,427.59 364.75,409.65 358.82,398.24 C354.48,389.90 354.00,388.33 354.00,382.35 C354.00,374.19 356.63,368.38 362.75,362.99 C367.17,359.10 373.06,357.00 379.58,357.00 C396.18,357.00 408.22,374.43 402.56,390.28 C400.93,394.85 390.59,413.46 385.04,421.82 ZM 867.22 475.75 C864.56,479.27 863.24,479.68 860.82,477.75 C858.49,475.89 850.74,463.51 844.40,451.53 C836.06,435.78 835.86,426.19 843.68,417.06 C855.67,403.05 877.16,405.69 885.59,422.22 C889.00,428.90 888.85,436.12 885.10,444.92 C882.17,451.80 871.75,469.77 867.22,475.75 ZM 780.12 532.50 C775.56,539.74 773.22,540.51 769.86,535.83 C764.60,528.52 757.66,517.03 753.70,509.08 C749.80,501.25 749.50,500.07 749.52,492.58 C749.53,486.18 750.00,483.63 751.76,480.31 C754.37,475.38 758.95,471.63 764.94,469.52 C784.93,462.47 803.90,480.30 797.51,500.12 C795.83,505.33 787.84,520.21 780.12,532.50 ZM 691.20 449.25 C687.62,453.40 685.36,451.35 675.42,435.00 C662.59,413.88 660.41,405.10 665.37,394.46 C669.72,385.11 677.35,380.62 688.73,380.72 C697.04,380.79 703.04,383.57 707.48,389.38 C714.10,398.07 714.40,407.40 708.46,419.93 C704.83,427.60 693.97,446.04 691.20,449.25 ZM 295.76 388.25 C293.04,392.51 290.21,396.00 289.48,396.00 C287.49,396.00 285.19,393.36 279.48,384.50 C272.46,373.62 265.32,359.46 264.10,354.00 C261.54,342.48 269.54,329.29 281.08,325.98 C285.97,324.58 294.52,324.77 298.35,326.37 C303.05,328.34 308.79,333.67 311.11,338.22 C316.86,349.48 313.46,360.55 295.76,388.25 ZM 595.21 480.75 C592.50,484.35 592.18,484.47 589.93,482.72 C585.38,479.18 569.04,449.87 567.11,441.77 C563.40,426.25 577.95,410.41 594.17,412.33 C608.69,414.05 619.38,428.44 616.04,441.79 C614.15,449.33 602.58,470.97 595.21,480.75 ZM 687.82 561.25 C685.44,564.76 683.21,567.00 682.08,567.00 C679.20,567.00 670.73,554.49 662.17,537.60 C658.21,529.79 657.51,527.51 657.25,521.50 C656.98,515.38 657.29,513.88 659.72,509.54 C665.08,499.97 674.42,495.22 685.42,496.47 C692.95,497.32 695.77,498.80 700.83,504.55 C705.53,509.88 707.53,517.04 706.47,524.72 C705.79,529.70 695.35,550.14 687.82,561.25 ZM 236.94 455.44 C230.60,465.32 229.34,466.48 226.92,464.64 C223.48,462.02 208.11,436.42 204.89,427.95 C201.39,418.73 203.34,409.45 210.31,402.16 C215.39,396.85 219.93,395.00 227.88,395.00 C236.47,395.00 242.32,397.32 246.91,402.55 C251.55,407.83 253.00,411.87 253.00,419.49 C253.00,425.36 252.48,427.08 247.98,436.05 C245.21,441.55 240.25,450.28 236.94,455.44 ZM 609.59 594.25 C606.11,599.33 603.82,599.10 599.56,593.25 C595.49,587.65 588.59,576.12 583.87,567.00 C580.86,561.19 580.50,559.64 580.50,552.42 C580.50,545.17 580.81,543.84 583.53,539.44 C585.20,536.74 588.58,533.18 591.03,531.52 C594.92,528.89 596.56,528.45 603.60,528.15 C610.22,527.87 612.42,528.18 615.67,529.83 C624.83,534.51 631.00,545.85 629.57,555.40 C628.56,562.14 619.47,579.80 609.59,594.25 ZM 531.25 549.94 C528.09,554.58 524.97,558.55 524.31,558.75 C522.74,559.24 520.71,556.93 515.30,548.51 C507.85,536.92 501.05,523.99 499.38,518.25 C498.10,513.83 498.02,511.98 498.95,508.28 C502.36,494.73 510.61,487.98 523.71,488.02 C539.23,488.07 548.72,498.28 547.83,513.98 C547.49,519.97 546.71,522.36 542.22,531.22 C539.34,536.87 534.41,545.30 531.25,549.94 ZM 474.18 451.49 C472.66,453.69 470.69,455.63 469.81,455.80 C466.86,456.37 455.61,439.78 447.57,423.00 C443.54,414.60 442.88,407.61 445.53,401.27 C449.90,390.80 457.53,386.00 469.77,386.00 C476.73,386.00 478.13,386.33 482.25,388.95 C490.38,394.10 494.92,404.22 493.48,413.96 C492.58,419.99 482.74,439.13 474.18,451.49 ZM 1036.61 532.48 C1033.28,535.81 1029.49,535.70 1023.83,532.10 C1019.24,529.20 1015.37,524.31 1007.00,510.87 C1004.53,506.90 997.30,498.21 990.95,491.57 C966.23,465.73 960.62,458.11 961.19,451.18 C961.44,448.19 961.94,447.44 963.85,447.17 C968.61,446.49 971.57,448.34 981.95,458.45 C991.93,468.18 993.31,469.14 1005.53,474.98 C1019.18,481.51 1026.00,486.73 1026.00,490.67 C1026.00,493.65 1023.24,495.00 1017.12,495.00 C1014.37,495.00 1011.90,495.35 1011.64,495.77 C1010.86,497.03 1016.98,504.38 1024.71,511.49 C1032.73,518.86 1037.38,524.36 1038.43,527.73 C1038.94,529.38 1038.47,530.62 1036.61,532.48 ZM 482.66 312.18 C480.13,319.57 477.91,320.64 473.73,316.46 C465.56,308.28 462.07,297.63 465.44,291.12 C467.25,287.61 476.14,281.42 482.50,279.23 C484.70,278.47 494.15,275.10 503.50,271.74 L 520.50 265.64 L 532.50 265.57 C543.37,265.52 544.96,265.75 549.45,268.01 C552.17,269.38 554.57,271.05 554.77,271.72 C555.43,273.87 548.98,276.80 539.89,278.47 C528.62,280.54 517.71,283.85 507.21,288.38 C491.86,295.00 486.89,299.82 482.66,312.18 ZM 774.71 435.28 L 778.21 440.06 L 780.92 435.78 C793.06,416.57 799.58,401.98 798.43,396.63 C796.86,389.35 791.37,382.21 785.68,380.06 C781.36,378.43 772.96,378.83 768.50,380.89 C763.36,383.26 760.45,386.48 758.53,391.90 C756.76,396.94 756.62,400.11 757.99,405.00 C759.19,409.31 769.94,428.78 774.71,435.28 ZM 856.89 464.25 C859.97,469.06 862.72,472.99 863.00,472.98 C863.99,472.97 873.30,457.86 878.10,448.50 C882.39,440.12 883.00,438.18 883.00,432.81 C883.00,420.70 874.55,412.43 862.32,412.57 C854.94,412.66 849.58,415.66 845.32,422.09 C843.07,425.49 842.64,427.22 842.69,432.62 C842.74,438.22 843.32,440.19 847.01,447.29 C849.36,451.81 853.80,459.44 856.89,464.25 ZM 767.71 524.25 C770.72,529.06 773.37,533.00 773.61,533.00 C774.54,533.00 784.98,516.06 788.99,508.05 C794.40,497.25 795.28,490.28 792.08,483.67 C789.70,478.75 785.41,474.99 780.10,473.17 C766.12,468.37 751.26,480.89 753.46,495.61 C754.18,500.39 759.57,511.22 767.71,524.25 ZM 284.32 383.25 C286.50,386.41 288.66,389.00 289.12,389.00 C289.57,389.00 292.68,384.39 296.02,378.75 C308.99,356.88 311.13,349.51 307.02,340.77 C303.81,333.93 296.27,329.00 289.03,329.00 C278.19,329.00 268.03,339.01 268.01,349.72 C267.99,355.30 275.08,369.86 284.32,383.25 ZM 585.67 468.90 L 591.24 477.44 L 593.49 474.61 C597.28,469.86 605.22,455.97 608.69,448.02 C612.62,439.03 612.78,435.22 609.54,428.26 C600.89,409.68 573.08,415.02 571.34,435.60 C570.88,441.08 571.17,442.17 575.47,450.93 C578.02,456.12 582.61,464.20 585.67,468.90 ZM 372.36 412.25 C375.70,417.61 378.68,421.99 378.97,421.99 C379.82,421.96 392.62,400.11 395.95,393.00 C400.98,382.26 400.06,374.75 392.80,367.32 C387.33,361.71 381.37,360.16 373.80,362.38 C366.87,364.41 364.61,366.11 361.28,371.78 C359.17,375.39 358.53,377.77 358.53,382.08 C358.53,388.40 361.43,394.72 372.36,412.25 ZM 686.70 443.56 C688.19,445.04 688.67,444.63 692.72,438.34 C700.85,425.74 708.00,410.32 708.00,405.39 C708.00,400.26 705.88,394.57 702.70,391.17 C693.34,381.13 675.81,383.63 669.79,395.86 C666.55,402.43 666.81,408.86 670.63,417.02 C674.01,424.23 684.20,441.05 686.70,443.56 ZM 1073.86 430.87 C1078.46,432.56 1081.05,432.11 1084.08,429.08 C1087.27,425.88 1087.91,421.26 1085.71,417.33 C1085.05,416.14 1080.62,410.74 1075.88,405.33 C1071.14,399.92 1060.91,388.24 1053.15,379.36 C1045.38,370.49 1038.31,362.95 1037.43,362.61 C1036.56,362.28 1034.11,362.00 1032.01,362.00 C1028.96,362.00 1027.65,362.63 1025.59,365.08 C1022.57,368.67 1022.30,372.42 1024.79,376.20 C1029.25,382.96 1071.46,429.99 1073.86,430.87 ZM 320.35 480.25 C323.73,485.61 326.74,490.00 327.03,490.00 C327.96,490.00 340.16,469.88 343.30,463.17 C348.49,452.08 347.99,443.48 341.75,436.37 C340.08,434.46 337.15,432.25 335.23,431.45 C330.64,429.53 322.63,429.61 318.42,431.60 C310.63,435.30 305.07,445.21 306.50,452.84 C307.38,457.54 312.83,468.32 320.35,480.25 ZM 598.55 583.25 C601.64,588.06 604.49,592.00 604.87,592.00 C605.94,592.00 616.34,574.55 620.92,565.05 C625.71,555.14 626.05,550.78 622.63,543.50 C619.93,537.74 617.89,535.69 612.75,533.54 C603.11,529.51 591.24,533.97 586.25,543.50 C585.39,545.15 584.65,549.02 584.60,552.10 C584.54,556.77 585.22,559.09 588.73,566.10 C591.04,570.72 595.46,578.44 598.55,583.25 ZM 517.95 543.83 C520.83,548.32 523.49,552.00 523.86,552.00 C524.89,552.00 534.35,536.48 539.07,527.06 C541.39,522.41 543.50,516.73 543.76,514.42 C545.03,503.16 534.96,492.04 523.50,492.04 C511.91,492.04 501.62,503.75 503.35,514.96 C504.02,519.26 510.83,532.72 517.95,543.83 ZM 677.52 554.73 C679.71,558.16 681.73,560.97 682.01,560.98 C682.74,561.01 694.29,541.62 697.98,534.17 C703.45,523.11 703.06,514.55 696.75,507.36 C692.44,502.46 689.03,501.00 681.89,501.00 C669.70,501.00 661.99,508.79 662.01,521.09 C662.01,527.01 662.46,528.31 667.77,538.00 C670.94,543.78 675.33,551.30 677.52,554.73 ZM 463.19 441.62 C466.09,446.23 468.70,450.00 468.98,450.00 C469.84,450.00 480.17,433.09 484.48,424.65 C488.09,417.58 488.50,416.02 488.50,409.46 C488.50,401.32 487.38,399.05 480.65,393.60 C477.58,391.12 475.83,390.53 470.71,390.23 C463.18,389.80 457.26,392.43 452.59,398.31 C450.04,401.51 449.50,403.18 449.18,408.82 C448.82,415.16 449.05,416.01 453.35,424.38 C455.86,429.25 460.29,437.00 463.19,441.62 ZM 222.72 450.69 C225.26,454.71 227.90,458.00 228.57,458.00 C230.00,458.00 236.90,447.18 243.41,434.73 C247.50,426.91 248.00,425.24 248.00,419.43 C248.00,412.27 246.70,408.92 242.34,404.84 C235.84,398.76 227.66,397.55 219.31,401.43 C212.43,404.64 208.77,410.06 208.20,417.88 C207.82,423.17 208.16,424.29 212.94,433.48 C215.77,438.92 220.17,446.66 222.72,450.69 ZM 1062.40 382.76 C1065.10,385.65 1067.43,387.90 1067.57,387.76 C1067.71,387.62 1067.41,385.02 1066.90,382.00 C1066.39,378.98 1065.73,375.03 1065.44,373.23 C1065.14,371.42 1062.86,367.45 1060.36,364.38 C1054.76,357.51 1053.00,353.44 1053.00,347.39 C1053.00,343.24 1052.50,342.17 1048.65,338.05 C1044.87,334.02 1043.00,330.38 1039.52,320.31 C1038.82,318.28 1034.71,316.25 1029.99,315.58 C1025.57,314.96 1025.44,315.02 1023.49,318.71 C1022.40,320.78 1019.38,325.30 1016.78,328.74 L 1012.07 335.01 L 1019.78 344.10 C1024.03,349.09 1028.12,354.04 1028.87,355.09 C1029.78,356.35 1031.44,357.00 1033.75,357.00 C1038.81,357.00 1042.72,359.84 1050.56,369.22 C1054.37,373.77 1059.70,379.87 1062.40,382.76 ZM 968.95 283.52 C951.77,292.41 934.98,273.81 945.61,257.67 C948.67,253.03 953.15,251.00 960.32,251.00 C966.53,251.00 971.07,253.49 974.73,258.92 C979.71,266.32 976.60,279.57 968.95,283.52 ZM 885.15 361.73 C887.85,365.73 890.28,369.00 890.55,369.00 C891.41,369.00 899.59,355.82 904.87,345.94 L 909.98 336.37 L 906.69 333.19 C904.88,331.43 903.14,330.00 902.83,330.00 C902.51,330.00 901.98,331.36 901.64,333.03 C900.37,339.39 893.18,343.01 886.35,340.72 C881.17,338.99 878.50,334.99 878.50,328.95 C878.50,324.77 878.97,323.57 881.66,320.88 C884.14,318.40 885.90,317.62 889.87,317.24 L 894.92 316.75 L 893.46 313.93 C892.66,312.37 892.00,310.40 892.00,309.55 C892.00,306.14 881.36,309.32 876.13,314.29 C871.78,318.43 870.00,322.70 870.00,328.99 C870.00,333.07 870.98,336.00 875.12,344.25 C877.94,349.86 882.46,357.73 885.15,361.73 ZM 786.17 270.58 C780.67,272.87 777.52,272.40 774.52,268.84 C770.03,263.51 772.18,259.47 786.53,246.35 C796.96,236.81 800.09,235.00 806.16,235.00 C811.97,235.00 817.00,238.65 817.00,242.86 C817.00,247.52 795.85,266.53 786.17,270.58 ZM 1028.45 529.54 C1031.25,530.73 1034.02,530.53 1033.98,529.14 C1033.95,527.79 1031.97,525.56 1019.80,513.19 C1005.86,499.02 1003.77,495.23 1007.99,491.81 C1009.46,490.61 1011.88,490.00 1015.11,490.00 C1017.80,490.00 1020.00,489.56 1020.00,489.01 C1020.00,487.64 1013.25,483.52 1004.33,479.46 C993.16,474.36 984.42,468.13 975.76,459.09 C968.53,451.52 965.00,449.29 965.00,452.26 C965.00,455.36 975.43,468.52 989.09,482.66 C999.93,493.88 1005.84,500.95 1010.89,508.77 C1019.16,521.59 1024.46,527.85 1028.45,529.54 ZM 474.26 309.77 C476.93,312.62 478.27,312.20 479.08,308.26 C479.98,303.88 484.40,296.68 488.12,293.55 C496.96,286.11 523.95,275.90 541.26,273.45 C545.61,272.83 548.93,271.03 545.81,270.98 C545.09,270.97 541.40,270.51 537.60,269.96 C528.83,268.70 522.24,269.85 507.60,275.21 C501.50,277.44 493.35,280.37 489.50,281.73 C479.54,285.22 474.17,288.08 471.40,291.33 C467.38,296.06 468.56,303.69 474.26,309.77 ZM 970.79 332.49 C973.39,334.90 975.10,335.75 976.50,335.35 C981.00,334.05 991.89,327.71 994.77,324.71 L 997.86 321.50 L 995.60 312.00 C993.05,301.29 990.12,292.00 989.28,292.00 C987.70,292.00 981.71,302.37 982.71,303.38 C983.05,303.72 982.81,304.00 982.17,304.00 C981.53,304.00 981.00,304.57 981.00,305.27 C981.00,305.97 977.87,311.60 974.04,317.79 L 967.08 329.05 ZM 234.65 684.93 C229.68,687.33 229.68,687.33 224.74,685.57 C219.85,683.82 217.99,682.21 216.35,678.28 C212.00,667.88 218.30,657.95 229.20,658.04 C234.47,658.08 237.19,659.51 240.47,663.97 C245.65,670.99 242.89,680.94 234.65,684.93 ZM 660.13 258.79 C657.18,263.57 638.45,257.24 628.75,248.19 C626.62,246.20 626.00,244.71 626.00,241.54 C626.00,236.66 627.83,233.73 631.94,232.02 C636.37,230.19 639.40,231.42 643.65,236.75 C645.72,239.36 649.95,244.20 653.05,247.50 C659.44,254.32 661.18,257.09 660.13,258.79 ZM 785.54 408.66 C782.91,411.29 781.38,412.00 778.35,412.00 C771.20,411.99 764.99,405.84 765.00,398.78 C765.01,395.37 768.49,390.32 772.12,388.44 C778.91,384.92 788.22,389.30 789.60,396.67 C790.50,401.45 789.34,404.86 785.54,408.66 ZM 867.36 444.62 C865.55,445.38 863.26,446.00 862.28,446.00 C859.77,445.99 854.39,442.53 852.64,439.80 C847.62,431.97 853.15,421.00 862.12,421.00 C870.05,421.00 875.00,425.93 875.00,433.82 C875.00,438.52 872.08,442.65 867.36,444.62 ZM 780.13 503.43 C767.01,510.22 754.66,494.11 765.42,484.25 C768.29,481.62 769.79,481.01 773.24,481.04 C778.39,481.08 781.48,482.66 784.05,486.57 C787.61,491.97 785.60,500.60 780.13,503.43 ZM 528.51 523.56 C524.00,525.45 522.18,525.38 517.98,523.16 C510.48,519.19 509.07,510.35 514.93,504.07 C517.45,501.38 518.47,501.00 523.18,501.00 C529.21,501.00 532.22,502.60 534.51,507.01 C537.68,513.15 534.87,520.90 528.51,523.56 ZM 689.00 531.04 C685.70,533.37 682.21,533.97 678.33,532.88 C670.17,530.58 666.95,518.90 672.85,513.00 C677.88,507.97 686.07,507.81 690.56,512.66 C695.30,517.77 694.50,527.17 689.00,531.04 ZM 597.81 447.97 C591.34,451.92 584.02,449.80 580.48,442.96 C578.60,439.33 578.61,436.63 580.52,432.61 C582.51,428.40 586.77,426.00 592.26,426.00 C597.68,426.00 601.29,428.91 603.02,434.68 C604.56,439.80 602.47,445.13 597.81,447.97 ZM 296.54 358.66 C293.74,361.46 292.47,362.00 288.68,362.00 C283.47,362.00 279.07,358.99 277.02,354.04 C273.91,346.53 280.09,338.00 288.63,338.00 C292.48,338.00 293.73,338.53 296.54,341.34 C300.27,345.07 301.55,348.68 300.55,352.66 C300.18,354.12 298.38,356.82 296.54,358.66 ZM 610.76 563.00 C603.76,567.27 595.11,563.83 592.98,555.94 C591.78,551.46 592.92,547.77 596.75,543.75 C598.98,541.41 600.19,541.00 604.76,541.00 C609.36,541.00 610.58,541.42 613.00,543.85 C618.75,549.59 617.67,558.79 610.76,563.00 ZM 233.47 430.58 C229.28,432.33 227.41,432.32 223.27,430.52 C219.49,428.88 216.01,423.69 216.00,419.70 C216.00,416.14 218.35,411.57 221.22,409.56 C223.88,407.70 232.81,407.52 235.05,409.28 C242.30,414.99 241.38,427.27 233.47,430.58 ZM 695.76 414.76 C693.02,417.33 686.30,418.50 683.50,416.88 C682.40,416.25 680.26,414.58 678.75,413.18 C676.43,411.02 676.00,409.81 676.00,405.42 C676.00,401.05 676.47,399.71 678.90,397.11 C681.49,394.34 682.42,394.00 687.48,394.00 C692.39,394.00 693.54,394.38 696.03,396.87 C697.61,398.45 699.20,400.97 699.58,402.46 C700.48,406.05 698.60,412.09 695.76,414.76 ZM 333.09 460.72 C329.25,463.31 326.83,463.50 322.42,461.58 C317.65,459.50 315.00,455.46 315.00,450.27 C315.00,446.52 315.55,445.25 318.40,442.40 C321.44,439.36 322.38,439.00 327.30,439.00 C332.34,439.00 333.05,439.29 335.90,442.53 C341.05,448.41 339.85,456.16 333.09,460.72 ZM 387.20 390.10 C379.79,398.37 367.00,393.29 367.00,382.09 C367.00,376.83 368.79,373.68 373.01,371.49 C385.26,365.16 396.42,379.80 387.20,390.10 ZM 473.51 421.56 C469.34,423.30 468.38,423.30 464.42,421.58 C456.55,418.16 454.47,408.95 460.10,402.53 C462.93,399.31 463.68,399.00 468.59,399.00 C473.06,399.00 474.49,399.47 477.08,401.78 C483.37,407.40 481.41,418.26 473.51,421.56 ZM 183.93 294.37 C177.86,302.08 164.11,290.74 165.34,279.04 C165.87,273.96 168.64,271.00 172.89,271.00 C177.00,271.00 179.94,273.70 183.10,280.38 C186.54,287.64 186.72,290.81 183.93,294.37 ZM 777.55 266.08 C779.78,269.69 793.03,262.37 805.70,250.52 C811.53,245.07 812.34,243.91 811.40,242.33 C810.24,240.40 805.32,239.45 801.47,240.42 C798.63,241.13 779.07,259.71 777.88,262.83 C777.39,264.12 777.24,265.58 777.55,266.08 ZM 955.45 277.59 C957.13,278.32 959.54,278.94 960.82,278.96 C969.62,279.11 974.30,268.08 968.41,261.08 C966.10,258.33 965.23,258.00 960.33,258.00 C955.60,258.00 954.44,258.40 951.92,260.92 C946.81,266.04 948.63,274.62 955.45,277.59 ZM 223.76 681.43 C227.49,683.46 230.91,683.35 234.58,681.11 C239.11,678.35 240.56,674.17 238.86,668.79 C237.79,665.40 236.69,664.10 233.65,662.62 C230.34,661.00 229.25,660.91 225.85,661.93 C221.58,663.21 218.01,667.70 218.00,671.80 C218.00,675.27 220.69,679.77 223.76,681.43 ZM 1175.58 337.40 C1174.80,341.58 1172.34,344.05 1171.40,341.60 C1171.05,340.70 1170.99,338.85 1171.25,337.48 C1171.82,334.48 1170.92,334.32 1168.50,337.00 C1167.50,338.10 1166.11,339.00 1165.40,339.00 C1162.98,339.00 1162.79,336.85 1165.00,334.50 L 1167.21 332.14 L 1163.86 331.82 C1161.68,331.61 1160.50,330.97 1160.50,330.00 C1160.50,328.92 1161.83,328.41 1165.25,328.20 C1167.86,328.03 1170.00,327.66 1170.00,327.38 C1170.00,327.10 1168.88,325.39 1167.50,323.59 C1166.12,321.79 1165.00,319.79 1165.00,319.16 C1165.00,317.26 1168.55,317.84 1170.57,320.07 L 1172.44 322.14 L 1173.56 318.82 C1175.35,313.51 1177.53,314.54 1177.32,320.59 L 1177.15 325.69 L 1181.60 324.67 C1184.74,323.95 1186.37,323.97 1187.14,324.74 C1188.85,326.45 1187.23,327.94 1182.94,328.63 C1180.77,328.97 1179.00,329.51 1179.00,329.83 C1179.00,330.15 1180.44,331.89 1182.20,333.70 C1184.67,336.26 1185.13,337.27 1184.20,338.20 C1183.28,339.12 1182.38,338.78 1180.20,336.69 C1178.66,335.21 1177.13,334.00 1176.81,334.00 C1176.49,334.00 1175.94,335.53 1175.58,337.40 ZM 1115.79 587.67 C1115.59,593.50 1115.09,596.47 1114.25,596.75 C1113.31,597.06 1113.00,594.90 1113.00,588.08 L 1113.00 579.00 L 1105.43 579.00 C1097.46,579.00 1092.55,577.53 1095.11,575.91 C1095.88,575.43 1100.21,575.02 1104.75,575.02 L 1113.00 575.00 L 1113.00 566.50 C1113.00,559.61 1113.28,558.00 1114.50,558.00 C1115.72,558.00 1116.00,559.61 1116.00,566.50 L 1116.00 575.00 L 1125.50 575.00 C1132.87,575.00 1135.00,575.31 1135.00,576.37 C1135.00,577.98 1129.97,578.97 1121.79,578.99 L 1116.08 579.00 ZM 774.78 406.44 C776.45,407.35 777.15,407.81 777.86,407.82 C778.46,407.83 779.08,407.51 780.32,406.86 C780.55,406.73 780.81,406.60 781.09,406.45 C788.86,402.43 786.14,392.00 777.32,392.00 C769.16,392.00 767.33,402.40 774.78,406.44 ZM 770.50 499.79 C775.43,502.62 781.00,499.05 781.00,493.08 C781.00,487.34 776.51,484.23 771.01,486.15 C764.50,488.42 764.21,496.18 770.50,499.79 ZM 885.45 334.55 C888.79,337.89 893.22,337.81 895.93,334.37 C900.27,328.84 897.27,322.00 890.50,322.00 C883.50,322.00 880.46,329.55 885.45,334.55 ZM 643.32 251.90 C651.63,256.28 652.54,256.56 653.50,255.00 C653.84,254.45 653.67,254.00 653.13,254.00 C652.59,254.00 648.68,249.95 644.45,245.00 C640.21,240.05 636.05,236.00 635.20,236.00 C632.84,236.00 630.00,239.04 630.00,241.59 C630.00,244.26 632.53,246.22 643.32,251.90 ZM 321.94 455.09 C324.59,457.74 325.58,458.13 328.28,457.59 C332.27,456.80 333.79,455.31 334.56,451.45 C335.36,447.46 332.63,444.12 327.98,443.38 C323.80,442.71 320.44,445.01 319.44,449.22 C318.92,451.42 319.40,452.56 321.94,455.09 ZM 284.16 355.48 C286.51,357.46 287.98,357.98 289.91,357.53 C293.44,356.69 296.00,353.41 296.00,349.72 C296.00,345.37 293.47,343.00 288.85,343.00 C281.06,343.00 278.24,350.50 284.16,355.48 ZM 373.92 387.08 C377.38,390.53 379.78,390.75 383.37,387.93 C386.49,385.47 386.99,379.75 384.35,376.83 C381.74,373.94 375.63,374.38 373.07,377.63 C370.25,381.22 370.47,383.62 373.92,387.08 ZM 586.19 442.96 C589.05,445.63 593.76,445.57 596.69,442.83 C601.15,438.63 598.70,431.79 592.33,430.65 C585.34,429.40 580.99,438.11 586.19,442.96 ZM 858.39 438.66 C861.79,441.58 864.70,441.63 867.69,438.83 C870.47,436.21 870.81,430.55 868.35,427.83 C866.04,425.29 859.86,425.39 857.49,428.01 C854.73,431.06 855.14,435.86 858.39,438.66 ZM 599.34 557.43 C604.31,562.40 612.00,559.60 612.00,552.83 C612.00,548.24 609.53,546.00 604.47,546.00 C599.78,546.00 598.31,547.20 597.39,551.78 C596.90,554.25 597.29,555.38 599.34,557.43 ZM 518.65 517.55 C521.88,520.54 524.89,520.66 528.37,517.93 C533.91,513.57 530.65,505.60 523.32,505.60 C516.52,505.60 513.65,512.92 518.65,517.55 ZM 464.63 415.93 C467.97,418.55 471.02,418.56 473.81,415.96 C478.46,411.63 475.41,403.00 469.22,403.00 C464.63,403.00 462.00,405.54 462.00,409.98 C462.00,412.97 462.60,414.33 464.63,415.93 ZM 677.70 526.82 C684.03,532.51 692.44,523.36 687.44,516.22 C684.48,511.99 675.22,513.91 674.88,518.82 C674.61,522.79 675.26,524.64 677.70,526.82 ZM 683.76 411.43 C689.69,414.65 695.00,411.92 695.00,405.65 C695.00,400.94 692.31,398.80 686.88,399.19 C683.46,399.44 682.27,400.03 681.13,402.07 C679.20,405.52 680.34,409.58 683.76,411.43 ZM 223.45 424.55 C224.80,425.90 227.07,427.00 228.50,427.00 C231.72,427.00 236.00,422.87 236.00,419.77 C236.00,415.51 233.32,413.00 228.77,413.00 C226.35,413.00 223.91,413.68 222.83,414.65 C220.23,417.01 220.52,421.61 223.45,424.55 ZM 174.61 289.97 C177.57,292.56 178.44,292.88 179.69,291.84 C182.60,289.43 178.63,278.48 173.94,275.97 C172.45,275.17 171.76,275.43 170.56,277.27 C168.39,280.58 170.13,286.03 174.61,289.97 ZM 899.05 239.28 L 899.10 244.50 L 900.79 242.00 C903.55,237.90 913.28,227.86 916.50,225.79 L 919.50 223.86 L 916.00 224.51 C907.57,226.09 905.05,227.18 902.09,230.55 C899.46,233.55 899.01,234.84 899.05,239.28 ZM 1009.72 284.50 C1013.06,291.31 1014.01,289.86 1013.24,279.14 C1012.70,271.54 1011.40,269.59 1008.49,272.01 C1006.25,273.87 1006.69,278.32 1009.72,284.50 Z" fill="rgb(18,16,16)"/>
<path d="M 946.97 233.94 C949.36,232.63 950.92,231.59 950.72,231.39 C950.54,231.20 949.06,231.49 947.04,232.05 C954.85,229.74 961.97,229.37 969.57,231.03 C969.20,231.04 969.00,231.13 969.00,231.33 C969.00,231.52 970.49,232.38 972.62,233.46 C970.04,232.65 967.17,232.54 960.50,232.52 C952.60,232.51 950.18,232.60 946.97,233.94 ZM 988.34 292.61 C987.03,294.38 985.05,299.61 984.78,302.50 C984.61,304.37 983.94,305.50 983.00,305.50 C982.17,305.50 978.68,310.16 975.15,316.00 C972.78,319.90 970.52,323.57 969.13,325.73 L 974.04 317.79 C977.87,311.60 981.00,305.97 981.00,305.27 C981.00,304.57 981.53,304.00 982.17,304.00 C982.81,304.00 983.05,303.72 982.71,303.38 C981.85,302.52 986.09,294.84 988.34,292.61 ZM 1001.62 316.72 C1002.73,316.99 1004.40,314.61 1007.29,308.94 C1007.62,308.29 1007.93,307.68 1008.21,307.12 C1006.86,310.34 1005.14,313.62 1003.64,315.50 C1002.60,316.79 1002.15,317.16 1001.62,316.72 ZM 967.63 328.17 C967.53,329.00 968.45,330.29 970.49,332.21 L 967.08 329.05 ZM 925.45 243.07 C917.84,249.39 912.22,257.77 908.64,268.17 C912.27,257.61 917.77,249.34 925.45,243.07 ZM 1010.46 300.17 C1010.48,298.72 1010.15,297.20 1009.44,295.22 C1010.00,296.64 1010.40,297.74 1010.53,298.27 C1010.64,298.69 1010.60,299.35 1010.46,300.17 ZM 992.00 298.62 C990.76,294.69 989.74,292.25 989.16,292.02 C989.20,292.01 989.24,292.00 989.28,292.00 C989.72,292.00 990.75,294.59 992.00,298.62 ZM 1000.00 312.09 C999.84,310.20 998.43,304.73 996.89,299.52 C998.51,304.97 1000.00,310.67 1000.00,312.05 ZM 932.48 244.41 C930.55,246.70 928.83,249.29 927.29,252.21 C928.85,249.25 930.55,246.67 932.48,244.41 ZM 1002.18 273.21 C1002.71,270.53 1004.79,268.69 1008.55,266.45 C1004.79,268.69 1002.72,270.54 1002.18,273.21 ZM 1000.02 312.53 C1000.04,312.87 1000.09,313.23 1000.15,313.60 C1000.08,313.23 1000.03,312.87 1000.02,312.53 Z" fill="rgb(135,134,134)"/>
<path d="M 959.29 324.79 C953.02,316.87 938.93,293.37 933.81,282.28 C931.20,276.63 930.67,274.25 930.64,268.00 C930.62,261.52 931.04,259.67 933.75,254.38 C939.35,243.48 947.68,238.55 960.50,238.54 C967.23,238.54 969.31,238.96 973.59,241.21 C978.92,244.00 983.75,248.80 986.72,254.26 C988.06,256.72 988.48,259.85 988.49,267.21 L 988.50 276.91 L 981.74 290.21 C975.88,301.72 963.40,322.92 961.09,325.29 C960.66,325.73 959.85,325.50 959.29,324.79 ZM 774.71 435.28 C769.94,428.78 759.19,409.31 757.99,405.00 C756.62,400.11 756.76,396.94 758.53,391.90 C760.45,386.48 763.36,383.26 768.50,380.89 C772.96,378.83 781.36,378.43 785.68,380.06 C791.37,382.21 796.86,389.35 798.43,396.63 C799.58,401.98 793.06,416.57 780.92,435.78 L 778.21 440.06 ZM 856.89 464.25 C853.80,459.44 849.36,451.81 847.01,447.29 C843.32,440.19 842.74,438.22 842.69,432.62 C842.64,427.22 843.07,425.49 845.32,422.09 C849.58,415.66 854.94,412.66 862.32,412.57 C874.55,412.43 883.00,420.70 883.00,432.81 C883.00,438.18 882.39,440.12 878.10,448.50 C873.30,457.86 863.99,472.97 863.00,472.98 C862.72,472.99 859.97,469.06 856.89,464.25 ZM 767.71 524.25 C759.57,511.22 754.18,500.39 753.46,495.61 C751.26,480.89 766.12,468.37 780.10,473.17 C785.41,474.99 789.70,478.75 792.08,483.67 C795.28,490.28 794.40,497.25 788.99,508.05 C784.98,516.06 774.54,533.00 773.61,533.00 C773.37,533.00 770.72,529.06 767.71,524.25 ZM 284.32 383.25 C275.08,369.86 267.99,355.30 268.01,349.72 C268.03,339.01 278.19,329.00 289.03,329.00 C296.27,329.00 303.81,333.93 307.02,340.77 C311.13,349.51 308.99,356.88 296.02,378.75 C292.68,384.39 289.57,389.00 289.12,389.00 C288.66,389.00 286.50,386.41 284.32,383.25 ZM 585.67 468.90 C582.61,464.20 578.02,456.12 575.47,450.93 C571.17,442.17 570.88,441.08 571.34,435.60 C573.08,415.02 600.89,409.68 609.54,428.26 C612.78,435.22 612.62,439.03 608.69,448.02 C605.22,455.97 597.28,469.86 593.49,474.61 L 591.24 477.44 ZM 372.36 412.25 C361.43,394.72 358.53,388.40 358.53,382.08 C358.53,377.77 359.17,375.39 361.28,371.78 C364.61,366.11 366.87,364.41 373.80,362.38 C381.37,360.16 387.33,361.71 392.80,367.32 C400.06,374.75 400.98,382.26 395.95,393.00 C392.62,400.11 379.82,421.96 378.97,421.99 C378.68,421.99 375.70,417.61 372.36,412.25 ZM 686.70 443.56 C684.20,441.05 674.01,424.23 670.63,417.02 C666.81,408.86 666.55,402.43 669.79,395.86 C675.81,383.63 693.34,381.13 702.70,391.17 C705.88,394.57 708.00,400.26 708.00,405.39 C708.00,410.32 700.85,425.74 692.72,438.34 C688.67,444.63 688.19,445.04 686.70,443.56 ZM 320.35 480.25 C312.83,468.32 307.38,457.54 306.50,452.84 C305.07,445.21 310.63,435.30 318.42,431.60 C322.63,429.61 330.64,429.53 335.23,431.45 C337.15,432.25 340.08,434.46 341.75,436.37 C347.99,443.48 348.49,452.08 343.30,463.17 C340.16,469.88 327.96,490.00 327.03,490.00 C326.74,490.00 323.73,485.61 320.35,480.25 ZM 598.55 583.25 C595.46,578.44 591.04,570.72 588.73,566.10 C585.22,559.09 584.54,556.77 584.60,552.10 C584.65,549.02 585.39,545.15 586.25,543.50 C591.24,533.97 603.11,529.51 612.75,533.54 C617.89,535.69 619.93,537.74 622.63,543.50 C626.05,550.78 625.71,555.14 620.92,565.05 C616.34,574.55 605.94,592.00 604.87,592.00 C604.49,592.00 601.64,588.06 598.55,583.25 ZM 517.95 543.83 C510.83,532.72 504.02,519.26 503.35,514.96 C501.62,503.75 511.91,492.04 523.50,492.04 C534.96,492.04 545.03,503.16 543.76,514.42 C543.50,516.73 541.39,522.41 539.07,527.06 C534.35,536.48 524.89,552.00 523.86,552.00 C523.49,552.00 520.83,548.32 517.95,543.83 ZM 677.52 554.73 C675.33,551.30 670.94,543.78 667.77,538.00 C662.46,528.31 662.01,527.01 662.01,521.09 C661.99,508.79 669.70,501.00 681.89,501.00 C689.03,501.00 692.44,502.46 696.75,507.36 C703.06,514.55 703.45,523.11 697.98,534.17 C694.29,541.62 682.74,561.01 682.01,560.98 C681.73,560.97 679.71,558.16 677.52,554.73 ZM 463.19 441.62 C460.29,437.00 455.86,429.25 453.35,424.38 C449.05,416.01 448.82,415.16 449.18,408.82 C449.50,403.18 450.04,401.51 452.59,398.31 C457.26,392.43 463.18,389.80 470.71,390.23 C475.83,390.53 477.58,391.12 480.65,393.60 C487.38,399.05 488.50,401.32 488.50,409.46 C488.50,416.02 488.09,417.58 484.48,424.65 C480.17,433.09 469.84,450.00 468.98,450.00 C468.70,450.00 466.09,446.23 463.19,441.62 ZM 222.72 450.69 C220.17,446.66 215.77,438.92 212.94,433.48 C208.16,424.29 207.82,423.17 208.20,417.88 C208.77,410.06 212.43,404.64 219.31,401.43 C227.66,397.55 235.84,398.76 242.34,404.84 C246.70,408.92 248.00,412.27 248.00,419.43 C248.00,425.24 247.50,426.91 243.41,434.73 C236.90,447.18 230.00,458.00 228.57,458.00 C227.90,458.00 225.26,454.71 222.72,450.69 ZM 968.95 283.52 C976.60,279.57 979.71,266.32 974.73,258.92 C971.07,253.49 966.53,251.00 960.32,251.00 C953.15,251.00 948.67,253.03 945.61,257.67 C934.98,273.81 951.77,292.41 968.95,283.52 ZM 885.15 361.73 C882.46,357.73 877.94,349.86 875.12,344.25 C870.98,336.00 870.00,333.07 870.00,328.99 C870.00,322.70 871.78,318.43 876.13,314.29 C881.36,309.32 892.00,306.14 892.00,309.55 C892.00,310.40 892.66,312.37 893.46,313.93 L 894.92 316.75 L 889.87 317.24 C885.90,317.62 884.14,318.40 881.66,320.88 C878.97,323.57 878.50,324.77 878.50,328.95 C878.50,334.99 881.17,338.99 886.35,340.72 C893.18,343.01 900.37,339.39 901.64,333.03 C901.98,331.36 902.51,330.00 902.83,330.00 C903.14,330.00 904.88,331.43 906.69,333.19 L 909.98 336.37 L 904.87 345.94 C899.59,355.82 891.41,369.00 890.55,369.00 C890.28,369.00 887.85,365.73 885.15,361.73 ZM 785.54 408.66 C789.34,404.86 790.50,401.45 789.60,396.67 C788.22,389.30 778.91,384.92 772.12,388.44 C768.49,390.32 765.01,395.37 765.00,398.78 C764.99,405.84 771.20,411.99 778.35,412.00 C781.38,412.00 782.91,411.29 785.54,408.66 ZM 867.36 444.62 C872.08,442.65 875.00,438.52 875.00,433.82 C875.00,425.93 870.05,421.00 862.12,421.00 C853.15,421.00 847.62,431.97 852.64,439.80 C854.39,442.53 859.77,445.99 862.28,446.00 C863.26,446.00 865.55,445.38 867.36,444.62 ZM 780.13 503.43 C785.60,500.60 787.61,491.97 784.05,486.57 C781.48,482.66 778.39,481.08 773.24,481.04 C769.79,481.01 768.29,481.62 765.42,484.25 C754.66,494.11 767.01,510.22 780.13,503.43 ZM 528.51 523.56 C534.87,520.90 537.68,513.15 534.51,507.01 C532.22,502.60 529.21,501.00 523.18,501.00 C518.47,501.00 517.45,501.38 514.93,504.07 C509.07,510.35 510.48,519.19 517.98,523.16 C522.18,525.38 524.00,525.45 528.51,523.56 ZM 689.00 531.04 C694.50,527.17 695.30,517.77 690.56,512.66 C686.07,507.81 677.88,507.97 672.85,513.00 C666.95,518.90 670.17,530.58 678.33,532.88 C682.21,533.97 685.70,533.37 689.00,531.04 ZM 597.81 447.97 C602.47,445.13 604.56,439.80 603.02,434.68 C601.29,428.91 597.68,426.00 592.26,426.00 C586.77,426.00 582.51,428.40 580.52,432.61 C578.61,436.63 578.60,439.33 580.48,442.96 C584.02,449.80 591.34,451.92 597.81,447.97 ZM 296.54 358.66 C298.38,356.82 300.18,354.12 300.55,352.66 C301.55,348.68 300.27,345.07 296.54,341.34 C293.73,338.53 292.48,338.00 288.63,338.00 C280.09,338.00 273.91,346.53 277.02,354.04 C279.07,358.99 283.47,362.00 288.68,362.00 C292.47,362.00 293.74,361.46 296.54,358.66 ZM 610.76 563.00 C617.67,558.79 618.75,549.59 613.00,543.85 C610.58,541.42 609.36,541.00 604.76,541.00 C600.19,541.00 598.98,541.41 596.75,543.75 C592.92,547.77 591.78,551.46 592.98,555.94 C595.11,563.83 603.76,567.27 610.76,563.00 ZM 233.47 430.58 C241.38,427.27 242.30,414.99 235.05,409.28 C232.81,407.52 223.88,407.70 221.22,409.56 C218.35,411.57 216.00,416.14 216.00,419.70 C216.01,423.69 219.49,428.88 223.27,430.52 C227.41,432.32 229.28,432.33 233.47,430.58 ZM 695.76 414.76 C698.60,412.09 700.48,406.05 699.58,402.46 C699.20,400.97 697.61,398.45 696.03,396.87 C693.54,394.38 692.39,394.00 687.48,394.00 C682.42,394.00 681.49,394.34 678.90,397.11 C676.47,399.71 676.00,401.05 676.00,405.42 C676.00,409.81 676.43,411.02 678.75,413.18 C680.26,414.58 682.40,416.25 683.50,416.88 C686.30,418.50 693.02,417.33 695.76,414.76 ZM 333.09 460.72 C339.85,456.16 341.05,448.41 335.90,442.53 C333.05,439.29 332.34,439.00 327.30,439.00 C322.38,439.00 321.44,439.36 318.40,442.40 C315.55,445.25 315.00,446.52 315.00,450.27 C315.00,455.46 317.65,459.50 322.42,461.58 C326.83,463.50 329.25,463.31 333.09,460.72 ZM 387.20 390.10 C396.42,379.80 385.26,365.16 373.01,371.49 C368.79,373.68 367.00,376.83 367.00,382.09 C367.00,393.29 379.79,398.37 387.20,390.10 ZM 473.51 421.56 C481.41,418.26 483.37,407.40 477.08,401.78 C474.49,399.47 473.06,399.00 468.59,399.00 C463.68,399.00 462.93,399.31 460.10,402.53 C454.47,408.95 456.55,418.16 464.42,421.58 C468.38,423.30 469.34,423.30 473.51,421.56 Z" fill="rgb(242,202,36)"/>
<path d="M 0.00 418.00 L 0.00 0.00 L 627.00 0.00 L 1254.00 0.00 L 1254.00 418.00 L 1254.00 836.00 L 627.00 836.00 L 0.00 836.00 L 0.00 418.00 ZM 234.65 684.93 C242.89,680.94 245.65,670.99 240.47,663.97 C237.19,659.51 234.47,658.08 229.20,658.04 C218.30,657.95 212.00,667.88 216.35,678.28 C217.99,682.21 219.85,683.82 224.74,685.57 C229.68,687.33 229.68,687.33 234.65,684.93 ZM 963.80 628.98 C965.67,626.97 967.36,623.95 968.32,620.89 C968.65,619.84 970.38,619.10 973.30,618.77 C980.36,617.98 985.16,615.11 987.94,610.04 C993.34,600.17 998.26,552.53 996.28,529.31 L 995.32 518.11 L 989.67 509.71 C986.57,505.09 982.05,496.85 979.63,491.41 C972.60,475.55 967.67,467.92 962.89,465.44 C958.77,463.31 950.17,463.60 946.23,466.00 C944.42,467.10 941.72,470.06 940.23,472.58 C937.52,477.13 937.46,477.16 933.11,476.58 C930.70,476.26 927.65,476.00 926.34,476.00 C921.33,476.00 921.18,469.22 925.59,443.00 C926.37,438.33 927.13,427.03 927.28,417.90 C927.57,398.86 927.23,399.77 939.23,385.90 C942.76,381.83 947.83,374.57 950.49,369.76 C956.62,358.73 958.18,357.29 964.77,356.54 C977.24,355.12 985.33,352.69 995.74,347.24 C1002.43,343.74 1003.57,344.40 1007.52,354.09 C1011.28,363.31 1013.39,367.25 1015.54,369.03 C1016.46,369.80 1018.25,372.76 1019.52,375.63 C1020.99,378.98 1026.24,385.79 1034.17,394.67 C1040.96,402.28 1049.38,411.88 1052.87,416.00 C1069.76,435.94 1074.07,438.77 1082.64,435.50 C1087.72,433.56 1090.69,430.18 1091.60,425.30 C1092.69,419.50 1090.54,415.06 1081.66,404.81 L 1073.26 395.13 L 1072.06 386.81 C1069.80,371.24 1068.97,368.26 1065.69,363.99 C1057.93,353.87 1058.00,354.03 1058.00,347.34 C1058.00,341.04 1057.95,340.93 1052.61,335.12 C1048.73,330.90 1046.77,327.74 1045.64,323.88 C1044.78,320.92 1043.32,317.44 1042.40,316.14 C1040.35,313.24 1035.21,311.00 1030.59,311.00 L 1027.11 311.00 L 1029.08 305.28 C1031.60,297.95 1032.57,281.92 1031.11,271.68 C1029.77,262.25 1025.21,250.89 1019.28,242.23 C1016.24,237.79 1014.30,233.47 1012.96,228.16 C1010.13,216.94 1010.39,213.32 1014.56,205.45 L 1018.12 198.74 L 1015.40 195.89 C1010.66,190.95 1006.17,190.26 993.83,192.55 C990.27,193.21 990.09,193.10 987.94,188.87 C986.71,186.47 984.62,183.07 983.29,181.32 C981.50,178.97 980.95,177.15 981.19,174.35 C981.49,170.71 981.79,170.42 988.50,167.30 C1005.32,159.48 1007.94,157.27 1008.18,150.71 C1008.29,147.86 1007.67,146.26 1005.61,144.11 C1003.17,141.57 1002.04,141.22 994.69,140.73 C983.88,140.02 983.38,139.76 982.64,134.36 C981.50,126.08 977.59,122.00 970.79,122.00 C968.33,122.00 966.46,123.22 961.84,127.84 C955.40,134.28 954.88,136.16 957.61,142.99 C959.27,147.14 958.45,150.00 955.59,150.00 C954.94,150.00 950.66,152.31 946.06,155.14 C930.90,164.47 917.44,179.37 908.69,196.50 C904.31,205.09 903.50,208.20 904.95,210.90 C906.22,213.27 912.91,217.00 915.90,217.00 C920.33,217.00 918.65,218.93 913.26,220.04 C900.34,222.71 894.00,229.23 894.00,239.85 C894.00,245.76 891.98,246.88 886.28,244.10 C879.24,240.69 873.41,240.39 868.00,243.18 C864.30,245.09 862.95,246.62 860.41,251.78 C854.91,262.94 850.38,265.98 839.20,265.99 C833.68,266.00 830.47,267.25 823.17,272.24 C820.79,273.87 816.07,276.32 812.67,277.69 C802.11,281.95 800.07,285.21 802.04,294.69 C803.70,302.68 802.87,304.69 796.72,307.55 C793.85,308.89 790.47,309.98 789.20,309.99 C785.97,310.00 781.23,312.64 780.66,314.74 C780.40,315.71 779.91,317.74 779.57,319.25 C779.24,320.76 778.35,322.00 777.60,322.00 C776.24,322.00 772.07,317.65 766.71,310.64 C762.89,305.67 757.33,303.00 750.76,303.00 C744.20,303.00 741.60,304.70 738.69,310.85 C737.20,314.00 735.39,316.05 733.07,317.21 C729.71,318.89 729.54,318.87 724.84,316.32 C720.53,313.97 719.33,313.77 712.94,314.30 C705.45,314.93 700.87,316.72 692.25,322.42 C689.36,324.33 687.00,325.77 687.00,325.63 C687.00,325.49 690.13,319.17 693.95,311.59 C703.04,293.58 704.23,285.14 698.48,279.39 C695.87,276.78 689.43,276.12 684.56,277.98 C682.01,278.95 677.00,277.60 677.00,275.95 C677.00,275.54 675.69,273.81 674.10,272.11 C668.34,265.94 661.17,268.73 655.09,279.49 C651.36,286.10 649.72,287.21 639.69,289.92 C621.69,294.78 609.01,304.17 609.00,312.67 C609.00,318.96 608.91,319.00 596.02,319.00 C587.17,319.00 583.96,319.35 583.09,320.39 C582.21,321.45 582.31,324.35 583.52,332.50 C584.40,338.40 584.84,343.49 584.50,343.83 C584.17,344.17 581.73,341.99 579.09,339.00 C574.54,333.84 574.14,333.61 571.64,334.75 C567.34,336.72 564.81,341.72 565.54,346.86 C565.95,349.76 565.81,351.00 565.11,350.57 C563.37,349.49 562.20,343.51 562.82,338.88 C563.91,330.81 563.62,326.57 561.96,326.24 C559.64,325.78 551.19,332.82 548.51,337.44 C547.06,339.94 544.98,347.24 543.08,356.50 C540.75,367.86 539.03,373.49 535.98,379.69 C531.37,389.09 528.31,392.01 523.12,391.98 C517.91,391.96 515.99,390.45 520.11,389.63 C524.02,388.85 530.40,382.36 534.28,375.22 C536.79,370.62 540.10,358.77 541.47,349.50 C542.30,343.83 547.00,334.35 551.85,328.52 C557.06,322.27 557.40,318.24 553.08,313.92 C549.62,310.47 545.32,310.10 538.77,312.69 C533.53,314.76 521.92,324.93 517.94,330.92 C515.34,334.84 515.00,336.21 514.99,342.92 C514.99,350.91 513.89,356.40 511.70,359.39 C510.50,361.03 510.09,360.67 507.16,355.35 C501.34,344.77 495.97,336.54 493.41,334.25 C489.64,330.88 485.20,331.30 479.62,335.56 L 474.96 339.12 L 469.61 336.06 C466.66,334.38 462.80,333.00 461.03,333.00 C456.20,333.00 451.13,330.16 448.28,325.84 C444.18,319.64 439.98,317.66 430.06,317.22 C425.35,317.01 418.80,317.28 415.50,317.83 C406.53,319.32 405.94,318.35 409.28,307.57 C412.22,298.09 411.73,293.61 407.58,292.03 C402.91,290.25 400.11,291.92 394.96,299.56 C388.77,308.73 386.84,310.19 382.78,308.77 C380.94,308.13 376.17,307.97 370.54,308.37 C360.04,309.11 359.60,308.88 356.20,301.00 C353.70,295.20 350.95,292.76 347.37,293.18 C344.81,293.47 341.10,297.41 339.70,301.30 C339.47,301.96 338.90,302.15 338.44,301.72 C335.71,299.17 344.69,274.43 349.38,271.56 C351.98,269.98 354.44,273.57 356.50,281.99 C357.45,285.86 359.20,290.48 360.39,292.24 C363.35,296.65 368.64,300.00 372.61,300.00 C376.98,300.00 382.38,295.27 384.38,289.70 C386.53,283.70 389.37,257.90 388.69,250.62 C387.32,236.05 380.23,228.47 366.83,227.25 C357.69,226.42 352.95,228.72 347.03,236.86 C342.45,243.16 332.79,252.53 316.00,266.97 C311.88,270.52 306.12,275.62 303.22,278.29 L 297.94 283.17 L 283.54 282.83 L 269.14 282.50 L 266.06 285.44 C264.37,287.06 262.45,289.87 261.79,291.69 C260.47,295.35 259.81,295.68 258.07,293.59 C255.87,290.93 248.02,289.77 242.83,291.34 C237.10,293.08 227.25,299.86 223.27,304.81 C217.15,312.43 215.95,316.68 218.12,322.93 C219.48,326.83 218.73,328.80 212.91,336.50 C210.65,339.49 208.27,344.05 207.61,346.65 L 206.40 351.36 L 200.53 352.53 C190.14,354.61 187.16,361.76 192.50,371.79 C196.01,378.38 195.72,380.41 190.39,386.34 C182.80,394.77 182.41,397.46 187.63,405.05 C190.70,409.52 191.29,411.26 191.49,416.41 C191.62,419.76 192.46,424.24 193.36,426.37 C195.35,431.06 195.46,434.99 193.67,437.44 C192.52,439.01 190.97,439.23 182.23,439.08 C171.24,438.89 170.73,439.04 158.56,446.41 C155.29,448.38 152.04,450.00 151.33,450.00 C149.22,450.00 147.15,444.72 146.16,436.82 C144.69,424.96 140.82,419.82 134.54,421.40 C130.20,422.49 128.01,427.39 128.01,436.00 C128.02,445.06 130.86,452.09 136.33,456.60 L 139.92 459.56 L 140.55 472.03 C141.33,487.67 142.74,492.09 150.51,503.48 C159.01,515.93 160.10,518.27 161.11,526.33 C161.69,531.00 162.97,535.06 164.97,538.59 C167.17,542.50 168.27,546.28 169.18,553.10 C170.59,563.70 173.12,568.00 177.95,568.00 C184.01,568.00 186.96,563.34 188.49,551.40 C188.85,548.59 189.90,545.18 190.82,543.81 C191.75,542.44 193.96,539.14 195.75,536.47 C197.54,533.79 199.00,530.40 199.00,528.93 C199.00,524.38 201.23,523.50 212.90,523.47 C225.48,523.44 228.90,522.08 232.08,515.84 C234.37,511.36 234.35,507.00 232.01,498.94 C230.40,493.38 231.10,490.18 234.73,486.54 C238.33,482.93 246.91,478.02 249.64,478.01 C251.57,478.00 251.76,478.51 251.64,483.22 C251.46,489.94 252.97,490.33 261.81,485.84 C267.91,482.75 269.09,482.50 277.95,482.50 C290.56,482.50 292.34,483.72 298.98,496.96 C304.20,507.37 307.09,510.49 315.38,514.69 C318.19,516.12 323.75,520.28 327.73,523.96 C339.44,534.74 348.08,537.74 352.85,532.66 C355.20,530.16 355.58,527.23 354.47,519.96 C353.69,514.77 354.43,513.77 360.61,511.67 C363.40,510.73 364.91,509.43 365.97,507.09 C367.18,504.39 367.86,503.92 369.97,504.32 C371.36,504.59 375.42,505.31 379.00,505.92 C382.58,506.54 386.69,507.28 388.16,507.58 C390.18,507.99 391.41,507.47 393.34,505.38 L 395.88 502.65 L 413.12 502.36 C430.95,502.05 433.00,502.44 433.00,506.10 C433.00,507.14 434.30,508.62 435.99,509.50 C440.64,511.90 442.08,514.89 441.77,521.53 C441.50,527.32 441.52,527.36 445.69,530.42 C449.55,533.26 449.88,533.87 449.94,538.18 C449.99,542.22 450.42,543.16 453.05,545.03 C457.61,548.29 462.71,548.59 469.91,546.03 C474.30,544.47 476.46,544.14 477.35,544.88 C479.35,546.53 485.79,560.07 486.93,565.00 C492.46,589.00 493.53,592.56 496.12,595.46 C498.71,598.36 498.94,598.42 502.44,597.16 C505.86,595.92 506.36,596.02 510.79,598.81 C513.38,600.44 517.63,602.08 520.22,602.45 C525.54,603.20 527.10,604.72 531.50,613.41 C534.42,619.18 537.47,622.65 540.00,623.08 C540.83,623.22 543.19,622.98 545.25,622.56 C548.62,621.86 549.28,622.08 551.84,624.83 C557.65,631.05 562.57,630.16 581.98,619.38 C592.73,613.40 593.86,613.00 599.85,613.00 C605.66,613.00 607.14,613.48 615.77,618.14 C623.85,622.51 626.27,623.35 631.89,623.72 C637.39,624.07 639.25,623.76 642.98,621.82 C648.18,619.13 649.29,616.09 648.42,607.00 C647.77,600.28 650.40,595.00 654.39,595.00 C659.39,595.00 673.92,602.76 680.32,608.85 C683.72,612.09 687.48,615.24 688.68,615.87 C692.04,617.61 698.37,617.22 704.21,614.91 C712.26,611.72 720.12,612.56 731.63,617.82 C739.66,621.50 741.63,622.00 747.99,622.00 C754.31,622.00 756.04,621.56 761.88,618.49 C765.64,616.52 772.81,611.12 778.31,606.12 L 788.08 597.25 L 799.29 597.32 C811.41,597.40 818.93,595.85 826.13,591.81 C832.56,588.19 834.80,581.43 831.63,575.20 C830.19,572.37 830.40,565.99 832.04,562.92 C833.80,559.64 833.07,555.84 830.03,552.38 C826.56,548.43 826.79,547.11 831.89,541.63 C837.78,535.32 843.87,533.01 854.50,533.07 C865.02,533.12 863.68,532.40 882.45,548.17 C896.61,560.06 900.80,561.95 908.89,560.14 C915.60,558.63 918.50,559.50 926.66,565.46 C930.84,568.51 934.89,571.00 935.67,571.00 C940.17,571.00 946.46,565.15 950.37,557.32 C954.64,548.78 954.92,548.96 960.06,563.65 C966.30,581.45 966.08,587.69 959.18,589.10 C954.81,589.99 951.18,593.53 950.40,597.66 C949.88,600.45 950.49,602.19 954.00,608.00 L 958.23 615.00 L 957.00 621.51 C956.02,626.67 956.03,628.33 957.01,629.51 C958.73,631.59 961.58,631.37 963.80,628.98 ZM 1115.79 587.67 L 1116.08 579.00 L 1121.79 578.99 C1129.97,578.97 1135.00,577.98 1135.00,576.37 C1135.00,575.31 1132.87,575.00 1125.50,575.00 L 1116.00 575.00 L 1116.00 566.50 C1116.00,559.61 1115.72,558.00 1114.50,558.00 C1113.28,558.00 1113.00,559.61 1113.00,566.50 L 1113.00 575.00 L 1104.75 575.02 C1100.21,575.02 1095.88,575.43 1095.11,575.91 C1092.55,577.53 1097.46,579.00 1105.43,579.00 L 1113.00 579.00 L 1113.00 588.08 C1113.00,594.90 1113.31,597.06 1114.25,596.75 C1115.09,596.47 1115.59,593.50 1115.79,587.67 ZM 1036.61 532.48 C1038.47,530.62 1038.94,529.38 1038.43,527.73 C1037.38,524.36 1032.73,518.86 1024.71,511.49 C1016.98,504.38 1010.86,497.03 1011.64,495.77 C1011.90,495.35 1014.37,495.00 1017.12,495.00 C1023.24,495.00 1026.00,493.65 1026.00,490.67 C1026.00,486.73 1019.18,481.51 1005.53,474.98 C993.31,469.14 991.93,468.18 981.95,458.45 C971.57,448.34 968.61,446.49 963.85,447.17 C961.94,447.44 961.44,448.19 961.19,451.18 C960.62,458.11 966.23,465.73 990.95,491.57 C997.30,498.21 1004.53,506.90 1007.00,510.87 C1015.37,524.31 1019.24,529.20 1023.83,532.10 C1029.49,535.70 1033.28,535.81 1036.61,532.48 ZM 1175.58 337.40 C1175.94,335.53 1176.49,334.00 1176.81,334.00 C1177.13,334.00 1178.66,335.21 1180.20,336.69 C1182.38,338.78 1183.28,339.12 1184.20,338.20 C1185.13,337.27 1184.67,336.26 1182.20,333.70 C1180.44,331.89 1179.00,330.15 1179.00,329.83 C1179.00,329.51 1180.77,328.97 1182.94,328.63 C1187.23,327.94 1188.85,326.45 1187.14,324.74 C1186.37,323.97 1184.74,323.95 1181.60,324.67 L 1177.15 325.69 L 1177.32 320.59 C1177.53,314.54 1175.35,313.51 1173.56,318.82 L 1172.44 322.14 L 1170.57 320.07 C1168.55,317.84 1165.00,317.26 1165.00,319.16 C1165.00,319.79 1166.12,321.79 1167.50,323.59 C1168.88,325.39 1170.00,327.10 1170.00,327.38 C1170.00,327.66 1167.86,328.03 1165.25,328.20 C1161.83,328.41 1160.50,328.92 1160.50,330.00 C1160.50,330.97 1161.68,331.61 1163.86,331.82 L 1167.21 332.14 L 1165.00 334.50 C1162.79,336.85 1162.98,339.00 1165.40,339.00 C1166.11,339.00 1167.50,338.10 1168.50,337.00 C1170.92,334.32 1171.82,334.48 1171.25,337.48 C1170.99,338.85 1171.05,340.70 1171.40,341.60 C1172.34,344.05 1174.80,341.58 1175.58,337.40 ZM 482.66 312.18 C486.89,299.82 491.86,295.00 507.21,288.38 C517.71,283.85 528.62,280.54 539.89,278.47 C548.98,276.80 555.43,273.87 554.77,271.72 C554.57,271.05 552.17,269.38 549.45,268.01 C544.96,265.75 543.37,265.52 532.50,265.57 L 520.50 265.64 L 503.50 271.74 C494.15,275.10 484.70,278.47 482.50,279.23 C476.14,281.42 467.25,287.61 465.44,291.12 C462.07,297.63 465.56,308.28 473.73,316.46 C477.91,320.64 480.13,319.57 482.66,312.18 ZM 183.93 294.37 C186.72,290.81 186.54,287.64 183.10,280.38 C179.94,273.70 177.00,271.00 172.89,271.00 C168.64,271.00 165.87,273.96 165.34,279.04 C164.11,290.74 177.86,302.08 183.93,294.37 ZM 786.17 270.58 C795.85,266.53 817.00,247.52 817.00,242.86 C817.00,238.65 811.97,235.00 806.16,235.00 C800.09,235.00 796.96,236.81 786.53,246.35 C772.18,259.47 770.03,263.51 774.52,268.84 C777.52,272.40 780.67,272.87 786.17,270.58 ZM 660.13 258.79 C661.18,257.09 659.44,254.32 653.05,247.50 C649.95,244.20 645.72,239.36 643.65,236.75 C639.40,231.42 636.37,230.19 631.94,232.02 C627.83,233.73 626.00,236.66 626.00,241.54 C626.00,244.71 626.62,246.20 628.75,248.19 C638.45,257.24 657.18,263.57 660.13,258.79 ZM 223.76 681.43 C220.69,679.77 218.00,675.27 218.00,671.80 C218.01,667.70 221.58,663.21 225.85,661.93 C229.25,660.91 230.34,661.00 233.65,662.62 C236.69,664.10 237.79,665.40 238.86,668.79 C240.56,674.17 239.11,678.35 234.58,681.11 C230.91,683.35 227.49,683.46 223.76,681.43 ZM 554.47 620.55 L 551.67 616.88 L 545.54 617.53 L 539.41 618.19 L 534.56 609.55 C529.33,600.23 527.06,598.00 522.84,598.00 C519.14,598.00 515.29,596.42 511.78,593.47 C508.63,590.82 505.11,590.33 501.83,592.09 C500.66,592.72 499.41,592.81 498.91,592.31 C498.43,591.83 496.88,586.73 495.47,580.97 C494.06,575.21 492.22,567.74 491.37,564.37 C490.53,560.99 488.30,555.22 486.41,551.54 C484.52,547.85 483.25,544.40 483.59,543.86 C483.92,543.32 483.41,542.00 482.44,540.94 C480.08,538.33 475.47,538.47 467.74,541.37 C462.36,543.40 460.94,543.58 457.97,542.62 C454.63,541.53 454.50,541.31 454.50,536.56 C454.50,531.90 454.26,531.45 450.25,528.56 C446.52,525.88 446.05,525.11 446.42,522.36 C447.18,516.69 445.37,511.75 441.05,507.71 C438.82,505.63 437.00,503.57 437.00,503.14 C437.00,502.70 435.98,501.39 434.73,500.21 C432.57,498.18 431.54,498.08 413.70,498.17 L 394.94 498.27 L 391.26 501.19 C388.68,503.24 386.96,503.92 385.54,503.46 C378.79,501.27 368.44,498.94 366.62,499.20 C365.38,499.37 363.80,500.91 362.80,502.91 C361.63,505.24 359.95,506.72 357.48,507.57 C350.14,510.09 348.42,513.74 350.25,522.89 C351.20,527.63 351.12,528.44 349.60,529.55 C346.07,532.13 338.60,528.29 330.00,519.47 C326.84,516.24 321.73,512.42 318.00,510.51 C309.70,506.27 306.91,503.26 302.69,493.99 C296.25,479.85 288.03,475.61 271.63,477.98 C267.16,478.62 262.01,480.01 260.19,481.07 C258.37,482.13 256.69,483.00 256.44,483.00 C256.20,483.00 256.00,481.29 256.00,479.20 C256.00,477.11 255.46,474.86 254.80,474.20 C252.74,472.14 247.44,472.88 241.35,476.08 C234.12,479.88 232.45,481.33 228.85,486.95 C225.65,491.93 225.27,496.01 227.50,501.35 C229.99,507.31 229.47,512.68 226.08,516.08 C223.19,518.96 223.00,519.00 211.98,519.00 L 200.80 519.00 L 197.40 522.40 C195.23,524.57 194.00,526.77 194.00,528.47 C194.00,531.81 192.60,534.51 188.47,539.13 C185.84,542.07 185.00,544.16 184.05,550.13 C182.67,558.76 181.13,562.35 178.61,562.84 C175.76,563.38 175.19,562.14 173.54,551.90 C172.52,545.60 170.93,540.19 168.89,536.11 C167.04,532.39 165.47,527.32 164.99,523.45 C164.14,516.57 160.87,509.75 154.33,501.24 C147.72,492.63 146.35,488.15 145.10,471.00 C144.47,462.38 143.52,455.35 142.95,455.15 C140.82,454.43 135.87,449.65 134.48,446.97 C130.88,440.00 131.86,426.00 135.96,426.00 C138.91,426.00 139.98,428.30 141.55,437.97 C143.26,448.53 145.07,452.70 148.55,454.02 C151.59,455.17 154.13,454.26 164.09,448.44 L 171.68 444.00 L 182.89 444.00 C193.72,444.00 194.18,443.91 196.55,441.35 C198.65,439.09 198.99,437.76 198.96,432.10 C198.94,428.28 198.33,424.45 197.50,423.00 C196.71,421.62 196.05,418.02 196.04,414.99 C196.01,410.38 195.43,408.62 192.50,404.28 C190.57,401.42 189.00,398.22 189.00,397.17 C189.00,396.11 191.48,392.23 194.50,388.54 C200.96,380.67 201.20,378.92 197.00,370.50 C195.35,367.20 194.01,363.78 194.00,362.90 C194.00,360.44 197.36,357.98 201.63,357.32 C208.22,356.30 210.84,354.44 211.54,350.25 C212.59,344.01 212.91,343.37 218.06,336.92 C224.03,329.46 224.66,327.39 222.72,321.69 C220.78,316.00 222.09,312.78 229.21,305.67 C235.22,299.69 243.80,295.00 248.74,295.00 C252.00,295.00 257.00,298.57 257.00,300.89 C257.00,302.46 260.97,303.27 262.49,302.01 C263.26,301.37 264.62,298.64 265.52,295.94 C268.24,287.74 269.86,287.05 284.86,287.72 C299.82,288.38 298.75,288.82 312.42,276.52 C335.28,255.96 347.51,244.24 351.13,239.44 C353.31,236.56 356.53,233.60 358.29,232.87 C366.33,229.50 376.87,232.92 381.07,240.25 C383.32,244.18 383.49,245.44 383.35,257.00 C383.17,271.43 380.85,288.05 378.51,291.63 C376.17,295.20 372.53,296.33 369.09,294.55 C365.19,292.53 363.37,289.35 360.96,280.32 C358.57,271.35 356.91,268.37 353.42,266.78 C349.26,264.89 344.96,267.72 341.15,274.86 C333.16,289.86 331.44,305.04 337.47,307.35 C340.12,308.37 342.02,306.90 344.56,301.88 C345.92,299.19 347.47,297.00 348.00,297.00 C348.54,297.00 350.55,300.13 352.48,303.96 C354.41,307.79 357.00,311.48 358.24,312.15 C359.59,312.89 364.72,313.41 371.00,313.45 C376.77,313.49 382.88,313.90 384.57,314.35 C387.15,315.05 388.16,314.73 390.96,312.38 C392.78,310.85 396.25,306.50 398.67,302.73 C401.73,297.96 403.60,295.97 404.79,296.19 C407.32,296.68 407.40,300.30 405.01,305.71 C403.85,308.34 402.64,312.33 402.33,314.58 C401.84,318.19 402.10,318.93 404.52,320.84 C407.67,323.31 410.20,323.46 421.52,321.83 C428.80,320.77 430.25,320.85 435.55,322.58 C440.49,324.18 442.08,325.31 445.18,329.44 C449.58,335.30 451.69,336.53 459.00,337.49 C462.44,337.94 466.16,339.29 468.92,341.10 C471.35,342.70 473.96,344.00 474.72,344.00 C476.79,344.00 481.26,341.48 483.41,339.10 C487.92,334.12 491.54,337.04 500.40,352.82 C506.75,364.13 508.93,366.49 512.26,365.65 C516.05,364.70 518.21,358.81 518.93,347.50 C519.33,341.14 520.17,336.37 521.23,334.40 C522.80,331.48 533.50,321.40 538.97,317.68 C542.09,315.56 548.36,315.50 550.43,317.57 C552.84,319.98 552.97,319.70 544.24,331.08 C541.12,335.15 537.00,346.02 537.00,350.19 C537.00,354.14 532.78,368.61 530.29,373.20 C526.10,380.92 522.14,384.53 515.86,386.35 C512.77,387.25 509.24,388.80 508.02,389.79 C506.09,391.35 505.99,391.75 507.28,392.81 C508.09,393.49 512.16,394.78 516.31,395.68 C523.39,397.22 524.15,397.21 528.38,395.60 C536.66,392.44 542.83,379.60 548.09,354.58 C549.77,346.58 551.20,342.45 553.44,339.14 C555.12,336.66 556.95,334.48 557.50,334.31 C558.10,334.13 558.50,336.91 558.50,341.34 C558.50,347.79 558.85,349.17 561.39,352.84 C566.31,359.94 570.66,357.73 569.72,348.59 C569.19,343.46 570.65,339.00 572.86,339.00 C573.28,339.00 575.77,341.93 578.40,345.51 C584.29,353.54 586.08,354.67 588.58,351.92 C590.33,349.98 590.33,349.35 588.79,337.20 C587.58,327.67 587.47,324.33 588.34,323.78 C588.98,323.38 594.04,323.34 599.59,323.67 C609.40,324.27 609.73,324.22 611.34,321.92 C612.25,320.62 613.00,318.06 613.00,316.23 C613.00,311.83 615.25,307.66 619.25,304.66 C624.70,300.57 634.74,296.00 642.62,294.03 C646.74,293.00 651.16,291.47 652.45,290.63 C653.74,289.78 656.75,285.81 659.15,281.80 C662.90,275.52 663.94,274.46 666.60,274.20 C669.14,273.95 670.17,274.53 672.41,277.47 C677.24,283.80 678.76,284.33 686.41,282.41 C692.79,280.81 693.14,280.82 695.13,282.62 C696.90,284.22 697.14,285.39 696.81,290.67 C696.47,296.02 695.35,298.95 688.48,312.45 C682.08,325.02 680.75,328.38 681.62,329.77 C683.46,332.71 686.32,332.24 692.35,328.02 C700.39,322.39 706.69,319.38 712.13,318.59 C715.89,318.04 717.99,318.42 723.39,320.64 L 730.02 323.36 L 734.76 321.41 C738.76,319.77 739.94,318.61 742.33,313.99 C745.81,307.25 746.44,306.81 751.76,307.33 C756.76,307.83 761.76,310.98 764.96,315.65 C768.54,320.87 773.41,325.68 775.93,326.48 C779.08,327.48 783.22,324.26 784.41,319.90 C785.59,315.57 784.91,316.10 791.61,314.35 C799.92,312.17 804.72,309.45 806.59,305.82 C808.20,302.72 808.19,301.93 806.41,290.98 C805.68,286.51 807.23,285.03 816.78,281.09 C820.72,279.47 825.65,276.79 827.73,275.15 C832.10,271.69 837.51,270.01 844.29,270.01 C849.55,270.00 855.27,267.55 858.64,263.85 C859.82,262.56 862.17,258.72 863.87,255.32 C865.57,251.92 867.97,248.44 869.20,247.57 C872.23,245.45 878.62,245.64 883.50,248.00 C887.83,250.09 893.51,250.61 894.50,249.00 C894.84,248.45 895.55,248.00 896.08,248.00 C896.60,248.00 895.96,250.14 894.66,252.75 C888.62,264.80 886.23,279.01 887.89,293.00 C888.38,297.12 888.94,301.11 889.14,301.85 C889.38,302.74 887.85,303.64 884.67,304.47 C871.23,307.98 863.04,321.20 866.01,334.60 C867.74,342.43 886.16,374.36 889.74,375.73 C890.53,376.03 892.19,375.20 893.41,373.88 C896.04,371.04 904.57,356.78 909.52,346.95 L 913.01 340.03 L 918.62 343.62 C928.31,349.82 938.06,353.90 946.20,355.15 L 953.89 356.34 L 951.68 358.97 C950.46,360.42 947.30,365.46 944.65,370.18 C942.00,374.90 937.25,381.68 934.09,385.24 C922.95,397.79 923.60,395.89 922.85,418.00 C922.48,429.00 921.49,441.20 920.56,446.00 C919.67,450.67 918.66,459.08 918.32,464.68 L 917.71 474.86 L 920.78 477.93 C923.01,480.16 924.78,481.00 927.27,481.00 C929.16,481.00 932.09,481.48 933.78,482.07 C938.03,483.55 940.43,482.05 943.51,475.99 C946.30,470.48 949.99,468.00 955.42,468.00 C961.64,468.00 965.27,472.42 974.18,490.81 C978.55,499.83 984.23,510.38 986.81,514.26 L 991.50 521.31 L 991.86 537.81 C992.38,562.25 988.36,599.29 984.32,607.29 C982.12,611.64 977.28,614.19 972.23,613.68 C968.58,613.30 967.67,613.61 965.98,615.76 C964.89,617.14 964.00,618.80 964.00,619.44 C964.00,620.09 963.35,621.49 962.56,622.56 C961.27,624.30 961.18,623.93 961.69,618.83 C962.21,613.64 961.96,612.61 958.63,606.67 C956.63,603.10 955.00,599.53 955.00,598.74 C955.00,596.66 958.02,594.32 961.74,593.53 C963.52,593.16 965.88,591.70 966.99,590.29 C969.71,586.83 969.69,577.86 966.94,570.23 C965.80,567.08 963.95,561.58 962.83,558.00 C959.40,547.12 958.47,545.84 954.26,546.19 C950.84,546.48 950.38,546.97 946.07,554.85 C943.40,559.73 940.37,563.87 938.78,564.81 C936.12,566.39 935.91,566.33 930.28,562.36 C920.00,555.13 918.78,554.73 909.12,555.46 C900.54,556.10 900.48,556.09 895.77,552.80 C893.17,550.99 886.23,545.48 880.36,540.56 C874.48,535.64 868.07,530.80 866.12,529.81 C861.54,527.47 849.17,527.37 842.23,529.61 C832.80,532.66 823.00,542.03 823.00,548.01 C823.00,549.52 824.32,552.39 825.97,554.46 C828.87,558.11 828.90,558.29 827.43,561.82 C825.52,566.39 825.49,572.36 827.34,577.46 C829.97,584.66 826.85,587.95 814.47,591.07 C808.10,592.68 804.70,592.96 797.50,592.47 C787.08,591.76 787.84,591.39 773.72,604.00 C761.80,614.65 756.50,617.34 747.57,617.26 C741.35,617.20 739.42,616.67 731.50,612.85 C723.33,608.90 721.81,608.50 715.00,608.51 C710.36,608.51 705.97,609.14 703.48,610.16 C699.82,611.65 695.58,612.39 692.22,612.11 C691.52,612.05 688.00,609.25 684.39,605.90 C678.09,600.04 664.25,592.31 656.73,590.46 C652.49,589.41 648.25,591.72 645.36,596.65 C643.06,600.58 642.86,601.70 643.43,607.76 C643.77,611.47 643.71,615.00 643.28,615.60 C641.74,617.77 638.05,619.00 633.05,619.00 C628.88,619.00 625.99,618.01 617.00,613.50 C607.13,608.55 605.39,608.00 599.64,608.00 C592.76,608.00 589.08,609.53 573.26,618.94 C568.80,621.59 564.35,623.43 561.65,623.74 C557.55,624.20 557.10,624.00 554.47,620.55 ZM 609.59 594.25 C619.47,579.80 628.56,562.14 629.57,555.40 C631.00,545.85 624.83,534.51 615.67,529.83 C612.42,528.18 610.22,527.87 603.60,528.15 C596.56,528.45 594.92,528.89 591.03,531.52 C588.58,533.18 585.20,536.74 583.53,539.44 C580.81,543.84 580.50,545.17 580.50,552.42 C580.50,559.64 580.86,561.19 583.87,567.00 C588.59,576.12 595.49,587.65 599.56,593.25 C603.82,599.10 606.11,599.33 609.59,594.25 ZM 687.82 561.25 C695.35,550.14 705.79,529.70 706.47,524.72 C707.53,517.04 705.53,509.88 700.83,504.55 C695.77,498.80 692.95,497.32 685.42,496.47 C674.42,495.22 665.08,499.97 659.72,509.54 C657.29,513.88 656.98,515.38 657.25,521.50 C657.51,527.51 658.21,529.79 662.17,537.60 C670.73,554.49 679.20,567.00 682.08,567.00 C683.21,567.00 685.44,564.76 687.82,561.25 ZM 531.25 549.94 C534.41,545.30 539.34,536.87 542.22,531.22 C546.71,522.36 547.49,519.97 547.83,513.98 C548.72,498.28 539.23,488.07 523.71,488.02 C510.61,487.98 502.36,494.73 498.95,508.28 C498.02,511.98 498.10,513.83 499.38,518.25 C501.05,523.99 507.85,536.92 515.30,548.51 C520.71,556.93 522.74,559.24 524.31,558.75 C524.97,558.55 528.09,554.58 531.25,549.94 ZM 780.12 532.50 C787.84,520.21 795.83,505.33 797.51,500.12 C803.90,480.30 784.93,462.47 764.94,469.52 C758.95,471.63 754.37,475.38 751.76,480.31 C750.00,483.63 749.53,486.18 749.52,492.58 C749.50,500.07 749.80,501.25 753.70,509.08 C757.66,517.03 764.60,528.52 769.86,535.83 C773.22,540.51 775.56,539.74 780.12,532.50 ZM 335.34 486.89 C338.55,481.92 343.50,473.34 346.34,467.82 C351.24,458.29 351.50,457.40 351.48,450.14 C351.45,439.39 347.46,432.47 338.50,427.67 C332.98,424.71 321.28,424.77 315.41,427.78 C306.61,432.29 301.45,441.67 302.18,451.78 C302.64,458.16 306.80,467.31 316.30,482.86 C322.27,492.63 326.27,497.23 328.16,496.47 C328.90,496.17 332.13,491.86 335.34,486.89 ZM 595.21 480.75 C602.58,470.97 614.15,449.33 616.04,441.79 C619.38,428.44 608.69,414.05 594.17,412.33 C577.95,410.41 563.40,426.25 567.11,441.77 C569.04,449.87 585.38,479.18 589.93,482.72 C592.18,484.47 592.50,484.35 595.21,480.75 ZM 867.22 475.75 C871.75,469.77 882.17,451.80 885.10,444.92 C888.85,436.12 889.00,428.90 885.59,422.22 C877.16,405.69 855.67,403.05 843.68,417.06 C835.86,426.19 836.06,435.78 844.40,451.53 C850.74,463.51 858.49,475.89 860.82,477.75 C863.24,479.68 864.56,479.27 867.22,475.75 ZM 236.94 455.44 C240.25,450.28 245.21,441.55 247.98,436.05 C252.48,427.08 253.00,425.36 253.00,419.49 C253.00,411.87 251.55,407.83 246.91,402.55 C242.32,397.32 236.47,395.00 227.88,395.00 C219.93,395.00 215.39,396.85 210.31,402.16 C203.34,409.45 201.39,418.73 204.89,427.95 C208.11,436.42 223.48,462.02 226.92,464.64 C229.34,466.48 230.60,465.32 236.94,455.44 ZM 474.18 451.49 C482.74,439.13 492.58,419.99 493.48,413.96 C494.92,404.22 490.38,394.10 482.25,388.95 C478.13,386.33 476.73,386.00 469.77,386.00 C457.53,386.00 449.90,390.80 445.53,401.27 C442.88,407.61 443.54,414.60 447.57,423.00 C455.61,439.78 466.86,456.37 469.81,455.80 C470.69,455.63 472.66,453.69 474.18,451.49 ZM 691.20 449.25 C693.97,446.04 704.83,427.60 708.46,419.93 C714.40,407.40 714.10,398.07 707.48,389.38 C703.04,383.57 697.04,380.79 688.73,380.72 C677.35,380.62 669.72,385.11 665.37,394.46 C660.41,405.10 662.59,413.88 675.42,435.00 C685.36,451.35 687.62,453.40 691.20,449.25 ZM 779.57 445.23 C782.74,443.05 797.50,417.72 800.85,408.71 C805.55,396.08 801.52,383.91 790.51,377.45 C778.12,370.19 760.94,375.52 754.90,388.50 C752.76,393.12 752.39,402.91 754.16,408.10 C756.54,415.04 771.46,440.32 775.66,444.52 C777.32,446.18 778.02,446.30 779.57,445.23 ZM 385.04 421.82 C390.59,413.46 400.93,394.85 402.56,390.28 C408.22,374.43 396.18,357.00 379.58,357.00 C373.06,357.00 367.17,359.10 362.75,362.99 C356.63,368.38 354.00,374.19 354.00,382.35 C354.00,388.33 354.48,389.90 358.82,398.24 C364.75,409.65 376.31,427.59 378.14,428.25 C380.12,428.95 380.61,428.49 385.04,421.82 ZM 295.76 388.25 C313.46,360.55 316.86,349.48 311.11,338.22 C308.79,333.67 303.05,328.34 298.35,326.37 C294.52,324.77 285.97,324.58 281.08,325.98 C269.54,329.29 261.54,342.48 264.10,354.00 C265.32,359.46 272.46,373.62 279.48,384.50 C285.19,393.36 287.49,396.00 289.48,396.00 C290.21,396.00 293.04,392.51 295.76,388.25 ZM 1073.86 430.87 C1071.46,429.99 1029.25,382.96 1024.79,376.20 C1022.30,372.42 1022.57,368.67 1025.59,365.08 C1027.65,362.63 1028.96,362.00 1032.01,362.00 C1034.11,362.00 1036.56,362.28 1037.43,362.61 C1038.31,362.95 1045.38,370.49 1053.15,379.36 C1060.91,388.24 1071.14,399.92 1075.88,405.33 C1080.62,410.74 1085.05,416.14 1085.71,417.33 C1087.91,421.26 1087.27,425.88 1084.08,429.08 C1081.05,432.11 1078.46,432.56 1073.86,430.87 ZM 1062.40 382.76 C1059.70,379.87 1054.37,373.77 1050.56,369.22 C1042.72,359.84 1038.81,357.00 1033.75,357.00 C1031.44,357.00 1029.78,356.35 1028.87,355.09 C1028.12,354.04 1024.03,349.09 1019.78,344.10 L 1012.07 335.01 L 1016.78 328.74 C1019.38,325.30 1022.40,320.78 1023.49,318.71 C1025.44,315.02 1025.57,314.96 1029.99,315.58 C1034.71,316.25 1038.82,318.28 1039.52,320.31 C1043.00,330.38 1044.87,334.02 1048.65,338.05 C1052.50,342.17 1053.00,343.24 1053.00,347.39 C1053.00,353.44 1054.76,357.51 1060.36,364.38 C1062.86,367.45 1065.14,371.42 1065.44,373.23 C1065.73,375.03 1066.39,378.98 1066.90,382.00 C1067.41,385.02 1067.71,387.62 1067.57,387.76 C1067.43,387.90 1065.10,385.65 1062.40,382.76 ZM 949.00 350.52 C933.90,348.01 923.50,342.53 911.98,331.02 C897.94,316.97 892.84,304.62 892.76,284.43 C892.71,271.51 894.30,264.51 899.76,253.50 C905.40,242.14 917.94,229.59 929.50,223.75 C939.69,218.61 947.19,217.00 960.86,217.03 C972.01,217.05 974.45,217.38 981.55,219.82 C991.84,223.35 997.42,226.64 1005.14,233.77 C1012.86,240.90 1019.87,251.49 1023.63,261.69 C1026.32,269.00 1026.50,270.42 1026.44,284.00 C1026.37,297.73 1026.20,298.94 1023.25,306.77 C1014.39,330.24 995.30,346.35 971.50,350.44 C961.20,352.22 959.29,352.22 949.00,350.52 ZM 974.50 340.88 C981.92,338.83 992.72,333.05 997.99,328.32 C1010.71,316.88 1016.90,303.93 1017.73,287.00 C1018.58,269.67 1013.70,256.02 1002.35,244.01 C990.67,231.65 977.54,226.00 960.51,226.00 C934.03,226.00 913.09,241.18 903.94,267.00 C900.51,276.67 900.63,292.74 904.19,302.58 C908.34,314.03 914.43,322.59 923.55,329.80 C934.44,338.43 944.76,341.91 959.50,341.96 C965.55,341.97 972.30,341.49 974.50,340.88 ZM 885.45 334.55 C880.46,329.55 883.50,322.00 890.50,322.00 C897.27,322.00 900.27,328.84 895.93,334.37 C893.22,337.81 888.79,337.89 885.45,334.55 ZM 899.05 239.28 C899.01,234.84 899.46,233.55 902.09,230.55 C905.05,227.18 907.57,226.09 916.00,224.51 L 919.50 223.86 L 916.50 225.79 C913.28,227.86 903.55,237.90 900.79,242.00 L 899.10 244.50 L 899.05 239.28 ZM 1003.00 225.29 C997.07,220.69 992.27,218.30 982.02,214.84 C974.63,212.34 972.02,211.97 961.52,211.91 C948.05,211.84 943.61,212.61 933.20,216.85 C929.01,218.56 925.74,219.38 925.39,218.83 C925.07,218.30 925.05,217.61 925.36,217.30 C926.81,215.85 923.75,213.00 920.71,212.98 C916.50,212.95 909.00,209.51 909.00,207.60 C909.00,206.77 910.85,202.59 913.10,198.30 C923.85,177.87 936.43,165.17 955.50,155.49 C962.71,151.83 963.53,151.11 963.81,148.28 C963.98,146.54 963.42,143.77 962.56,142.11 C960.15,137.45 960.64,135.58 965.48,131.13 C972.85,124.33 977.38,125.99 977.53,135.54 C977.66,143.83 978.38,144.27 994.31,145.55 C1001.25,146.11 1002.25,146.45 1003.20,148.55 C1005.06,152.63 1001.98,155.68 990.49,161.10 C978.03,166.97 975.61,169.52 976.24,176.11 C976.53,179.19 977.64,181.96 979.59,184.47 C981.19,186.54 983.62,190.55 985.00,193.37 C987.85,199.21 988.66,199.41 999.62,197.00 C1004.66,195.89 1006.30,195.88 1008.87,196.95 C1012.50,198.45 1012.77,200.11 1010.01,203.98 C1006.83,208.45 1005.54,216.38 1006.97,222.75 C1007.63,225.72 1008.03,228.30 1007.84,228.47 C1007.65,228.64 1005.47,227.21 1003.00,225.29 ZM 1028.45 529.54 C1024.46,527.85 1019.16,521.59 1010.89,508.77 C1005.84,500.95 999.93,493.88 989.09,482.66 C975.43,468.52 965.00,455.36 965.00,452.26 C965.00,449.29 968.53,451.52 975.76,459.09 C984.42,468.13 993.16,474.36 1004.33,479.46 C1013.25,483.52 1020.00,487.64 1020.00,489.01 C1020.00,489.56 1017.80,490.00 1015.11,490.00 C1011.88,490.00 1009.46,490.61 1007.99,491.81 C1003.77,495.23 1005.86,499.02 1019.80,513.19 C1031.97,525.56 1033.95,527.79 1033.98,529.14 C1034.02,530.53 1031.25,530.73 1028.45,529.54 ZM 474.26 309.77 C468.56,303.69 467.38,296.06 471.40,291.33 C474.17,288.08 479.54,285.22 489.50,281.73 C493.35,280.37 501.50,277.44 507.60,275.21 C522.24,269.85 528.83,268.70 537.60,269.96 C541.40,270.51 545.09,270.97 545.81,270.98 C548.93,271.03 545.61,272.83 541.26,273.45 C523.95,275.90 496.96,286.11 488.12,293.55 C484.40,296.68 479.98,303.88 479.08,308.26 C478.27,312.20 476.93,312.62 474.26,309.77 ZM 174.61 289.97 C170.13,286.03 168.39,280.58 170.56,277.27 C171.76,275.43 172.45,275.17 173.94,275.97 C178.63,278.48 182.60,289.43 179.69,291.84 C178.44,292.88 177.57,292.56 174.61,289.97 ZM 777.55 266.08 C777.24,265.58 777.39,264.12 777.88,262.83 C779.07,259.71 798.63,241.13 801.47,240.42 C805.32,239.45 810.24,240.40 811.40,242.33 C812.34,243.91 811.53,245.07 805.70,250.52 C793.03,262.37 779.78,269.69 777.55,266.08 ZM 643.32 251.90 C632.53,246.22 630.00,244.26 630.00,241.59 C630.00,239.04 632.84,236.00 635.20,236.00 C636.05,236.00 640.21,240.05 644.45,245.00 C648.68,249.95 652.59,254.00 653.13,254.00 C653.67,254.00 653.84,254.45 653.50,255.00 C652.54,256.56 651.63,256.28 643.32,251.90 ZM 599.34 557.43 C597.29,555.38 596.90,554.25 597.39,551.78 C598.31,547.20 599.78,546.00 604.47,546.00 C609.53,546.00 612.00,548.24 612.00,552.83 C612.00,559.60 604.31,562.40 599.34,557.43 ZM 677.70 526.82 C675.26,524.64 674.61,522.79 674.88,518.82 C675.22,513.91 684.48,511.99 687.44,516.22 C692.44,523.36 684.03,532.51 677.70,526.82 ZM 518.65 517.55 C513.65,512.92 516.52,505.60 523.32,505.60 C530.65,505.60 533.91,513.57 528.37,517.93 C524.89,520.66 521.88,520.54 518.65,517.55 ZM 770.50 499.79 C764.21,496.18 764.50,488.42 771.01,486.15 C776.51,484.23 781.00,487.34 781.00,493.08 C781.00,499.05 775.43,502.62 770.50,499.79 ZM 321.94 455.09 C319.40,452.56 318.92,451.42 319.44,449.22 C320.44,445.01 323.80,442.71 327.98,443.38 C332.63,444.12 335.36,447.46 334.56,451.45 C333.79,455.31 332.27,456.80 328.28,457.59 C325.58,458.13 324.59,457.74 321.94,455.09 ZM 586.19 442.96 C580.99,438.11 585.34,429.40 592.33,430.65 C598.70,431.79 601.15,438.63 596.69,442.83 C593.76,445.57 589.05,445.63 586.19,442.96 ZM 858.39 438.66 C855.14,435.86 854.73,431.06 857.49,428.01 C859.86,425.39 866.04,425.29 868.35,427.83 C870.81,430.55 870.47,436.21 867.69,438.83 C864.70,441.63 861.79,441.58 858.39,438.66 ZM 223.45 424.55 C220.52,421.61 220.23,417.01 222.83,414.65 C223.91,413.68 226.35,413.00 228.77,413.00 C233.32,413.00 236.00,415.51 236.00,419.77 C236.00,422.87 231.72,427.00 228.50,427.00 C227.07,427.00 224.80,425.90 223.45,424.55 ZM 464.63 415.93 C462.60,414.33 462.00,412.97 462.00,409.98 C462.00,405.54 464.63,403.00 469.22,403.00 C475.41,403.00 478.46,411.63 473.81,415.96 C471.02,418.56 467.97,418.55 464.63,415.93 ZM 683.76 411.43 C680.34,409.58 679.20,405.52 681.13,402.07 C682.27,400.03 683.46,399.44 686.88,399.19 C692.31,398.80 695.00,400.94 695.00,405.65 C695.00,411.92 689.69,414.65 683.76,411.43 ZM 774.78 406.44 C767.33,402.40 769.16,392.00 777.32,392.00 C786.14,392.00 788.86,402.43 781.09,406.45 C777.56,408.28 778.16,408.28 774.78,406.44 ZM 373.92 387.08 C370.47,383.62 370.25,381.22 373.07,377.63 C375.63,374.38 381.74,373.94 384.35,376.83 C386.99,379.75 386.49,385.47 383.37,387.93 C379.78,390.75 377.38,390.53 373.92,387.08 ZM 284.16 355.48 C278.24,350.50 281.06,343.00 288.85,343.00 C293.47,343.00 296.00,345.37 296.00,349.72 C296.00,353.41 293.44,356.69 289.91,357.53 C287.98,357.98 286.51,357.46 284.16,355.48 ZM 950.32 336.99 C943.00,335.92 929.21,328.96 922.85,323.13 C907.84,309.35 902.10,287.16 908.64,268.17 C914.67,250.65 926.49,238.85 943.87,233.03 C947.37,231.86 950.45,231.12 950.72,231.39 C950.99,231.65 948.10,233.44 944.30,235.35 C936.58,239.24 931.43,244.34 927.29,252.21 C924.74,257.05 924.50,258.40 924.55,268.00 C924.59,277.86 924.80,278.90 927.90,285.00 C937.21,303.34 950.86,325.96 955.81,331.25 C958.33,333.96 962.33,334.90 963.46,333.06 C963.78,332.54 965.05,333.10 966.27,334.31 C968.46,336.46 968.46,336.51 966.50,337.15 C963.87,338.01 956.77,337.94 950.32,336.99 ZM 970.69 332.39 C968.04,329.94 967.17,328.50 967.83,327.68 C968.36,327.03 971.65,321.77 975.15,316.00 C978.68,310.16 982.17,305.50 983.00,305.50 C983.94,305.50 984.61,304.37 984.78,302.50 C985.11,298.98 987.96,292.00 989.07,292.00 C990.10,292.00 992.84,300.39 995.60,312.00 L 997.86 321.50 L 994.77 324.71 C991.89,327.71 981.00,334.05 976.50,335.35 C975.09,335.76 973.37,334.88 970.69,332.39 ZM 1000.62 315.46 C1000.28,314.57 1000.00,313.03 1000.00,312.05 C1000.00,309.34 994.28,290.05 993.04,288.54 C992.23,287.57 992.60,284.95 994.47,278.50 C997.41,268.35 997.49,266.98 995.55,259.52 C992.34,247.20 986.42,239.97 975.30,234.76 C971.83,233.14 969.00,231.59 969.00,231.33 C969.00,230.17 976.11,232.47 983.58,236.03 C989.98,239.09 993.06,241.38 998.45,247.10 C1002.36,251.23 1006.33,256.66 1007.79,259.85 C1010.17,265.06 1010.22,265.45 1008.55,266.45 C1000.54,271.21 1000.18,274.20 1006.05,287.22 C1011.69,299.76 1011.72,300.25 1007.29,308.94 C1003.37,316.62 1001.70,318.26 1000.62,315.46 ZM 1009.72 284.50 C1006.69,278.32 1006.25,273.87 1008.49,272.01 C1011.40,269.59 1012.70,271.54 1013.24,279.14 C1014.01,289.86 1013.06,291.31 1009.72,284.50 ZM 955.45 277.59 C948.63,274.62 946.81,266.04 951.92,260.92 C954.44,258.40 955.60,258.00 960.33,258.00 C965.23,258.00 966.10,258.33 968.41,261.08 C974.30,268.08 969.62,279.11 960.82,278.96 C959.54,278.94 957.13,278.32 955.45,277.59 Z" fill="rgb(254,254,254)"/>
</g>
</svg>