<?xml version="1.0" encoding="UTF-8"?>
<!DOCTYPE svg PUBLIC "-//W3C//DTD SVG 1.1//EN" "http://www.w3.org/Graphics/SVG/1.1/DTD/svg11.dtd">
<svg xmlns="http://www.w3.org/2000/svg" version="1.1" width="283px" height="298px" style="shape-rendering:geometricPrecision; text-rendering:geometricPrecision; image-rendering:optimizeQuality; fill-rule:evenodd; clip-rule:evenodd" xmlns:xlink="http://www.w3.org/1999/xlink">
<g><path style="opacity:1" fill="#171514" d="M 144.5,8.5 C 156.618,7.92699 168.618,8.76033 180.5,11C 181.167,12.3333 181.833,13.6667 182.5,15C 223.139,27.791 245.472,55.291 249.5,97.5C 253.215,97.1961 256.715,97.8627 260,99.5C 261.454,107.786 261.787,116.119 261,124.5C 257.936,129.789 253.436,133.289 247.5,135C 218.482,142.447 188.982,145.947 159,145.5C 130.515,145.742 102.348,142.909 74.5,137C 67.1086,135.543 60.6086,132.377 55,127.5C 54.3333,126.167 53.6667,124.833 53,123.5C 52.3145,115.43 52.8145,107.43 54.5,99.5C 57.6124,97.8163 60.9457,97.1497 64.5,97.5C 68.8634,55.4198 91.1967,28.0865 131.5,15.5C 131.297,13.6096 131.963,12.1096 133.5,11C 137.347,10.3666 141.014,9.53329 144.5,8.5 Z"/></g>
<g><path style="opacity:1" fill="#120d00" d="M 169.5,14.5 C 159.81,13.0429 150.143,13.2096 140.5,15C 138.939,15.3176 137.772,16.1509 137,17.5C 136.038,26.8113 135.372,36.1447 135,45.5C 134.603,60.1001 134.436,74.6001 134.5,89C 133.216,89.6838 132.049,89.5171 131,88.5C 129.372,70.3514 129.205,52.3514 130.5,34.5C 130.879,52.6402 131.713,70.6402 133,88.5C 133.333,68.8333 133.667,49.1667 134,29.5C 135.061,24.8958 135.727,20.2291 136,15.5C 138,14.8333 139.333,13.5 140,11.5C 149.991,11.9588 159.824,12.9588 169.5,14.5 Z"/></g>
<g><path style="opacity:1" fill="#fdd603" d="M 197.5,28.5 C 216.662,37.8333 230.162,52.5 238,72.5C 238.977,74.74 239.477,77.0733 239.5,79.5C 239.682,81.5914 239.348,83.5914 238.5,85.5C 239.489,86.4682 240.156,87.6349 240.5,89C 241.017,93.5205 241.684,98.0205 242.5,102.5C 245.758,103.417 249.091,103.751 252.5,103.5C 251.789,108.932 251.623,114.266 252,119.5C 251.598,120.872 251.098,122.205 250.5,123.5C 248.539,124.578 246.872,125.911 245.5,127.5C 243.485,128.924 241.152,129.59 238.5,129.5C 230.686,130.401 223.019,131.734 215.5,133.5C 208.749,131.45 202.083,131.95 195.5,135C 170.187,136.529 144.853,136.862 119.5,136C 105.924,133.561 92.2576,131.727 78.5,130.5C 71.2812,130.16 65.1145,127.494 60,122.5C 59.3333,115.833 59.3333,109.167 60,102.5C 63.73,101.54 67.5633,101.207 71.5,101.5C 71.9578,70.5608 85.2911,47.2275 111.5,31.5C 113.486,30.2388 115.319,30.5722 117,32.5C 120.667,30.5 124.333,28.5 128,26.5C 127.472,47.7594 127.639,69.0928 128.5,90.5C 131.119,90.7683 133.619,90.435 136,89.5C 136.231,66.1523 136.898,42.819 138,19.5C 138.667,18.1667 139.333,18.1667 140,19.5C 140.483,18.552 140.649,17.552 140.5,16.5C 148.524,16.6988 156.524,16.3655 164.5,15.5C 168.409,16.2033 171.909,17.87 175,20.5C 176.096,43.7076 176.93,66.8743 177.5,90C 179.568,90.6869 181.568,90.5202 183.5,89.5C 184.565,85.2163 185.398,80.8829 186,76.5C 186.67,59.4886 186.504,42.4886 185.5,25.5C 189.353,26.7966 193.353,27.7966 197.5,28.5 Z"/></g>
<g><path style="opacity:0.004" fill="#edeeed" d="M 246.5,72.5 C 247.833,73.1667 247.833,73.1667 246.5,72.5 Z"/></g>
<g><path style="opacity:1" fill="#edd92c" d="M 169.5,14.5 C 175.838,14.6732 178.338,18.0065 177,24.5C 178.409,46.0781 178.909,67.5781 178.5,89C 179.784,89.6838 180.951,89.5171 182,88.5C 184.939,65.8475 185.272,43.1809 183,20.5C 188.266,22.546 193.099,25.2127 197.5,28.5C 193.353,27.7966 189.353,26.7966 185.5,25.5C 186.504,42.4886 186.67,59.4886 186,76.5C 185.398,80.8829 184.565,85.2163 183.5,89.5C 181.568,90.5202 179.568,90.6869 177.5,90C 176.93,66.8743 176.096,43.7076 175,20.5C 171.909,17.87 168.409,16.2033 164.5,15.5C 156.524,16.3655 148.524,16.6988 140.5,16.5C 140.649,17.552 140.483,18.552 140,19.5C 139.333,18.1667 138.667,18.1667 138,19.5C 136.898,42.819 136.231,66.1523 136,89.5C 133.619,90.435 131.119,90.7683 128.5,90.5C 127.639,69.0928 127.472,47.7594 128,26.5C 124.333,28.5 120.667,30.5 117,32.5C 115.319,30.5722 113.486,30.2388 111.5,31.5C 117.222,27.5523 123.388,24.219 130,21.5C 130.5,21.6667 131,21.8333 131.5,22C 130.536,26.0659 130.203,30.2325 130.5,34.5C 129.205,52.3514 129.372,70.3514 131,88.5C 132.049,89.5171 133.216,89.6838 134.5,89C 134.436,74.6001 134.603,60.1001 135,45.5C 135.372,36.1447 136.038,26.8113 137,17.5C 137.772,16.1509 138.939,15.3176 140.5,15C 150.143,13.2096 159.81,13.0429 169.5,14.5 Z"/></g>
<g><path style="opacity:1" fill="#eede3e" d="M 229.5,113.5 C 181.119,110.508 132.785,110.841 84.5,114.5C 84.5,116.167 84.5,117.833 84.5,119.5C 127.329,118.287 169.996,118.287 212.5,119.5C 169.02,119.312 126.354,119.812 84.5,121C 83.7362,118.931 83.2362,116.764 83,114.5C 82.4444,116.595 81.9444,116.762 81.5,115C 81.6448,114.228 81.9781,113.561 82.5,113C 91.1237,111.869 99.7904,111.202 108.5,111C 141.833,110.333 175.167,110.333 208.5,111C 215.905,110.865 222.905,111.698 229.5,113.5 Z"/></g>
<g><path style="opacity:1" fill="#f1de2b" d="M 239.5,79.5 C 240.776,81.5625 241.61,83.8958 242,86.5C 242.499,91.4889 242.666,96.4889 242.5,101.5C 246.548,101.395 250.548,101.728 254.5,102.5C 254.666,109.175 254.5,115.842 254,122.5C 252.009,125.58 249.175,127.246 245.5,127.5C 246.872,125.911 248.539,124.578 250.5,123.5C 251.098,122.205 251.598,120.872 252,119.5C 251.623,114.266 251.789,108.932 252.5,103.5C 249.091,103.751 245.758,103.417 242.5,102.5C 241.684,98.0205 241.017,93.5205 240.5,89C 240.156,87.6349 239.489,86.4682 238.5,85.5C 239.348,83.5914 239.682,81.5914 239.5,79.5 Z"/></g>
<g><path style="opacity:1" fill="#130f0c" d="M 229.5,113.5 C 230.341,115.379 230.675,117.379 230.5,119.5C 224.5,119.5 218.5,119.5 212.5,119.5C 169.996,118.287 127.329,118.287 84.5,119.5C 84.5,117.833 84.5,116.167 84.5,114.5C 132.785,110.841 181.119,110.508 229.5,113.5 Z"/></g>
<g><path style="opacity:1" fill="#f0db37" d="M 238.5,129.5 C 224.899,133.457 210.899,135.957 196.5,137C 170.166,138.968 143.832,138.968 117.5,137C 104.183,135.883 91.1834,133.716 78.5,130.5C 92.2576,131.727 105.924,133.561 119.5,136C 144.853,136.862 170.187,136.529 195.5,135C 202.083,131.95 208.749,131.45 215.5,133.5C 223.019,131.734 230.686,130.401 238.5,129.5 Z"/></g>
<g><path style="opacity:1" fill="#171717" d="M 91.5,166.5 C 98.175,166.334 104.842,166.5 111.5,167C 134.574,172.548 157.908,176.548 181.5,179C 194.303,182.107 197.803,189.607 192,201.5C 188.468,204.85 184.301,207.016 179.5,208C 167.875,209.194 156.208,209.861 144.5,210C 167.267,217.837 188.934,215.503 209.5,203C 222.881,193.974 236.881,185.974 251.5,179C 264.619,176.273 271.119,181.44 271,194.5C 269.701,197.147 268.368,199.814 267,202.5C 243.738,224.707 218.238,243.874 190.5,260C 179.639,262.448 168.639,263.115 157.5,262C 136.516,258.859 115.516,256.192 94.5,254C 90.3634,254.651 86.8634,256.485 84,259.5C 84.2266,261.973 85.06,264.306 86.5,266.5C 86.363,268.107 85.6964,269.441 84.5,270.5C 77.0015,277.171 68.8348,282.838 60,287.5C 57.793,286.003 57.1264,284.003 58,281.5C 65.1169,276.717 71.9503,271.551 78.5,266C 63.551,245.383 48.2177,225.05 32.5,205C 31.8333,204.333 31.1667,204.333 30.5,205C 25.4566,209.712 20.1233,214.045 14.5,218C 9.89961,219.583 8.06627,218.083 9,213.5C 16.1076,208.36 22.941,202.86 29.5,197C 32.7068,196.585 35.7068,196.918 38.5,198C 48.8138,189.843 59.4804,182.176 70.5,175C 77.3422,171.45 84.3422,168.616 91.5,166.5 Z"/></g>
<g><path style="opacity:1" fill="#fdfdfd" d="M 96.5,172.5 C 125.05,177.636 153.716,182.136 182.5,186C 188.006,187.841 189.506,191.341 187,196.5C 185.048,198.894 182.548,200.394 179.5,201C 163.902,202.879 148.236,203.879 132.5,204C 128.341,207.199 128.675,209.865 133.5,212C 158.993,224.824 184.326,224.491 209.5,211C 223.169,202.163 237.169,193.83 251.5,186C 258.077,182.962 262.411,184.795 264.5,191.5C 264.153,194.528 262.986,197.194 261,199.5C 238.473,220.365 213.973,238.532 187.5,254C 176.573,255.597 165.573,255.931 154.5,255C 135.595,251.762 116.595,249.262 97.5,247.5C 89.9557,247.023 83.7891,249.69 79,255.5C 66.1667,238.667 53.3333,221.833 40.5,205C 51.6098,195.891 63.2765,187.557 75.5,180C 82.3021,176.569 89.3021,174.069 96.5,172.5 Z"/></g>
</svg>
