<?xml version="1.0" encoding="UTF-8"?>
<!DOCTYPE svg PUBLIC "-//W3C//DTD SVG 1.1//EN" "http://www.w3.org/Graphics/SVG/1.1/DTD/svg11.dtd">
<svg xmlns="http://www.w3.org/2000/svg" version="1.1" width="283px" height="298px" style="shape-rendering:geometricPrecision; text-rendering:geometricPrecision; image-rendering:optimizeQuality; fill-rule:evenodd; clip-rule:evenodd" xmlns:xlink="http://www.w3.org/1999/xlink">
<g><path style="opacity:1" fill="#fffcce" d="M 83.5,217.5 C 75.5017,209.38 68.0017,210.047 61,219.5C 59.2226,222.059 57.7226,224.726 56.5,227.5C 54.3738,230.959 52.7071,234.626 51.5,238.5C 52.8614,228.284 57.5281,219.784 65.5,213C 68.4662,211.734 71.4662,210.567 74.5,209.5C 79.0893,210.543 82.0893,213.21 83.5,217.5 Z"/></g>
<g><path style="opacity:1" fill="#fcd50b" d="M 83.5,217.5 C 84.0418,219.949 84.3751,222.449 84.5,225C 82.6935,233.071 82.1935,241.237 83,249.5C 83.3826,250.056 83.8826,250.389 84.5,250.5C 85.4665,255.578 88.6332,257.912 94,257.5C 97.2334,257.3 100.067,256.133 102.5,254C 105.535,250.63 108.868,247.63 112.5,245C 118.482,243.961 122.982,246.127 126,251.5C 127.562,258.507 126.229,264.841 122,270.5C 113.26,280.247 103.093,288.081 91.5,294C 67.9617,300.465 58.4617,291.632 63,267.5C 63.9464,265.212 65.1131,263.045 66.5,261C 63.5865,261.29 60.5865,261.457 57.5,261.5C 55.7484,259.754 54.4151,257.754 53.5,255.5C 52.9637,245.959 53.9637,236.626 56.5,227.5C 57.7226,224.726 59.2226,222.059 61,219.5C 68.0017,210.047 75.5017,209.38 83.5,217.5 Z"/></g>
<g><path style="opacity:1" fill="#151515" d="M 230.5,-0.5 C 231.833,-0.5 233.167,-0.5 234.5,-0.5C 238.12,0.95803 240.62,3.6247 242,7.5C 251.077,49.8901 246.743,90.8901 229,130.5C 222.734,144.867 215.567,158.701 207.5,172C 216.325,196.581 213.825,220.081 200,242.5C 173.885,279.488 162.552,275.488 166,230.5C 164.944,223.605 161.11,218.939 154.5,216.5C 152.244,220.754 150.077,225.088 148,229.5C 145.86,231.487 143.36,232.82 140.5,233.5C 120.666,224.669 102.166,213.669 85,200.5C 82.826,197.454 82.1593,194.12 83,190.5C 85.4476,186.385 88.2809,182.552 91.5,179C 88.1963,176.788 84.6963,174.955 81,173.5C 68.1726,177.164 56.6726,183.331 46.5,192C 37.3921,194.565 33.5588,191.065 35,181.5C 39.9283,158.786 51.095,139.953 68.5,125C 78.4664,117.252 89.6331,113.086 102,112.5C 129.458,57.2008 172.291,19.5342 230.5,-0.5 Z"/></g>
<g><path style="opacity:1" fill="#fbfbfb" d="M 96.5,181.5 C 114.322,190.983 131.655,201.316 148.5,212.5C 146.393,216.381 144.559,220.381 143,224.5C 140.21,226.831 137.376,226.664 134.5,224C 119.97,216.126 105.97,207.459 92.5,198C 90.8757,196.883 89.8757,195.383 89.5,193.5C 91.8508,189.489 94.1841,185.489 96.5,181.5 Z"/></g>
<g><path style="opacity:1" fill="#fbfbfb" d="M 202.5,178.5 C 210.748,212.052 201.248,239.719 174,261.5C 172.71,250.263 172.043,238.93 172,227.5C 170.555,223.85 169.555,220.183 169,216.5C 181.805,205.2 192.972,192.533 202.5,178.5 Z"/></g>
<g><path style="opacity:1" fill="#fbfbfb" d="M 96.5,118.5 C 97.552,118.351 98.552,118.517 99.5,119C 92.4868,134.703 86.6535,150.87 82,167.5C 76.2668,167.993 70.7668,169.493 65.5,172C 57.4332,176.24 49.7666,181.074 42.5,186.5C 41.499,180.962 42.3324,175.629 45,170.5C 50.6868,153.931 60.1868,140.098 73.5,129C 80.7602,124.366 88.4268,120.866 96.5,118.5 Z"/></g>
<g><path style="opacity:1" fill="#fdfdfd" d="M 172.5,36.5 C 194.969,48.9004 216.969,62.0671 238.5,76C 229.932,118.96 212.099,157.46 185,191.5C 177.652,199.015 170.152,206.348 162.5,213.5C 138.128,197.646 113.128,182.812 87.5,169C 95.1355,143.758 105.302,119.591 118,96.5C 132.481,73.1842 150.648,53.1842 172.5,36.5 Z"/></g>
<g><path style="opacity:1" fill="#111111" d="M 171.5,73.5 C 190.059,72.3573 201.892,80.6907 207,98.5C 207.346,124.484 194.512,136.318 168.5,134C 153.76,128.748 146.093,118.248 145.5,102.5C 147.927,87.0804 156.594,77.4137 171.5,73.5 Z"/></g>
<g><path style="opacity:1" fill="#fcfcfc" d="M 170.5,80.5 C 190.667,79.1707 200.501,88.5041 200,108.5C 194.594,125.287 183.427,131.12 166.5,126C 152.458,117.134 149.291,105.3 157,90.5C 160.802,86.0366 165.302,82.7033 170.5,80.5 Z"/></g>
<g><path style="opacity:1" fill="#fcfcfc" d="M 230.5,6.5 C 232.144,6.28649 233.644,6.61983 235,7.5C 236.981,14.3674 238.315,21.3674 239,28.5C 239.833,41.8458 239.666,55.1792 238.5,68.5C 218.822,55.9931 198.822,43.9931 178.5,32.5C 194.81,21.6783 212.143,13.0116 230.5,6.5 Z"/></g>
<g><path style="opacity:1" fill="#f7d740" d="M 56.5,227.5 C 53.9637,236.626 52.9637,245.959 53.5,255.5C 52.8333,255.167 52.1667,254.833 51.5,254.5C 50.1667,249.167 50.1667,243.833 51.5,238.5C 52.7071,234.626 54.3738,230.959 56.5,227.5 Z"/></g>
<g><path style="opacity:1" fill="#fefcc4" d="M 83.5,217.5 C 84.1174,217.611 84.6174,217.944 85,218.5C 85.8654,226.791 85.3654,234.957 83.5,243C 83.6249,245.551 83.9582,248.051 84.5,250.5C 83.8826,250.389 83.3826,250.056 83,249.5C 82.1935,241.237 82.6935,233.071 84.5,225C 84.3751,222.449 84.0418,219.949 83.5,217.5 Z"/></g>
<g><path style="opacity:1" fill="#fefdde" d="M 51.5,238.5 C 50.1667,243.833 50.1667,249.167 51.5,254.5C 49.9743,253.895 48.9743,252.729 48.5,251C 49.297,247.255 49.797,243.421 50,239.5C 50.3826,238.944 50.8826,238.611 51.5,238.5 Z"/></g>
<g><path style="opacity:1" fill="#fffbc3" d="M 51.5,254.5 C 52.1667,254.833 52.8333,255.167 53.5,255.5C 54.4151,257.754 55.7484,259.754 57.5,261.5C 53.8997,260.68 51.8997,258.347 51.5,254.5 Z"/></g>
<g><path style="opacity:1" fill="#fffcc7" d="M 86.5,297.5 C 81.5,297.5 76.5,297.5 71.5,297.5C 63.6883,293.488 59.6883,286.988 59.5,278C 60.2856,273.057 61.6189,268.39 63.5,264C 61.0261,263.963 59.0261,263.13 57.5,261.5C 60.5865,261.457 63.5865,261.29 66.5,261C 65.1131,263.045 63.9464,265.212 63,267.5C 58.4617,291.632 67.9617,300.465 91.5,294C 103.093,288.081 113.26,280.247 122,270.5C 126.229,264.841 127.562,258.507 126,251.5C 122.982,246.127 118.482,243.961 112.5,245C 108.868,247.63 105.535,250.63 102.5,254C 100.067,256.133 97.2334,257.3 94,257.5C 88.6332,257.912 85.4665,255.578 84.5,250.5C 87.9436,255.191 92.6102,256.691 98.5,255C 102.8,251.702 106.8,248.035 110.5,244C 121.273,241.737 127.273,246.071 128.5,257C 127.946,259.824 127.446,262.657 127,265.5C 123.926,271.571 119.76,276.738 114.5,281C 105.95,288.097 96.617,293.597 86.5,297.5 Z"/></g>
</svg>
