<svg id="svg" xmlns="http://www.w3.org/2000/svg" xmlns:xlink="http://www.w3.org/1999/xlink" width="512" height="341.3333333333333" viewBox="0, 0, 512,341.3333333333333"><g id="svgg"><path id="path0" d="M124.000 45.676 C 111.045 46.987,99.771 53.252,92.428 63.219 C 91.597 64.348,90.947 65.369,90.985 65.487 C 91.023 65.605,90.795 66.096,90.479 66.579 C 85.242 74.572,83.177 80.819,79.013 101.267 C 73.522 128.227,69.876 141.846,64.490 155.500 C 57.804 172.453,56.111 182.403,58.093 193.090 C 58.568 195.647,58.589 196.901,58.263 203.090 C 57.915 209.711,58.281 223.878,58.896 227.583 L 59.076 228.667 48.259 228.667 C 42.309 228.667,33.567 228.766,28.831 228.888 L 20.221 229.110 19.194 230.028 C 17.490 231.549,17.704 233.167,20.729 241.667 C 22.132 245.608,24.806 253.558,26.672 259.333 C 28.538 265.108,30.248 270.058,30.473 270.333 C 30.697 270.608,30.904 271.224,30.933 271.703 C 30.978 272.459,35.463 285.862,37.714 291.966 C 38.618 294.418,40.134 296.116,42.333 297.137 C 43.833 297.833,43.856 297.833,91.333 297.833 L 138.833 297.833 156.833 293.033 C 176.123 287.888,176.781 287.646,177.081 285.599 C 177.716 281.272,178.733 281.385,135.750 281.036 C 132.179 281.007,131.333 280.910,131.333 280.528 C 131.333 280.268,131.146 279.989,130.917 279.907 C 129.774 279.499,131.541 279.341,138.851 279.199 C 152.572 278.932,165.378 278.412,168.500 277.995 C 173.547 277.321,176.343 277.659,183.329 279.789 C 190.129 281.861,190.939 281.966,192.808 281.013 C 193.952 280.430,194.166 280.412,194.786 280.846 C 195.798 281.555,198.302 281.460,199.500 280.667 C 200.050 280.302,200.950 280.000,201.500 279.995 C 202.772 279.983,203.756 279.189,204.594 277.500 C 204.958 276.767,205.573 275.572,205.961 274.846 C 206.795 273.286,206.830 272.702,206.184 271.156 L 205.701 270.000 258.694 270.000 C 308.870 270.000,311.698 270.031,311.877 270.583 C 314.013 277.174,318.746 280.654,322.456 278.361 L 323.615 277.644 325.058 278.639 C 327.108 280.054,328.482 280.215,330.360 279.258 C 331.847 278.502,331.913 278.497,332.860 279.072 C 334.466 280.047,337.089 279.876,338.392 278.711 C 339.330 277.873,339.597 277.793,340.559 278.059 C 342.652 278.637,344.868 277.555,345.970 275.417 C 346.269 274.838,346.646 274.667,347.628 274.667 C 349.355 274.667,351.394 273.167,352.114 271.367 L 352.661 270.000 356.331 270.000 C 360.479 270.000,360.389 269.940,358.881 271.701 C 355.692 275.426,354.573 280.437,356.435 282.650 C 357.182 283.538,357.264 283.875,357.105 285.416 C 356.759 288.767,357.993 290.268,360.822 289.938 C 361.838 289.819,362.024 289.919,362.378 290.774 C 363.213 292.790,365.502 293.461,368.056 292.439 C 369.038 292.046,369.497 291.991,369.585 292.255 C 370.623 295.368,374.790 295.343,380.013 292.194 C 386.779 288.115,388.914 287.644,396.780 288.489 C 402.478 289.101,406.226 288.819,411.379 287.391 C 413.501 286.802,413.595 286.802,414.322 287.391 C 416.013 288.761,433.902 287.859,446.000 285.795 C 459.234 283.537,468.326 280.355,474.385 275.860 L 477.270 273.720 480.624 275.658 C 484.260 277.759,488.314 280.503,491.547 283.052 C 493.732 284.775,495.000 285.128,495.000 284.013 C 495.000 282.827,489.323 278.389,482.833 274.502 C 480.450 273.075,478.450 271.866,478.390 271.816 C 478.254 271.703,479.013 270.230,479.326 270.000 C 479.902 269.575,482.147 263.596,482.992 260.236 C 486.788 245.139,484.714 203.021,479.375 186.777 C 477.936 182.397,475.652 177.836,473.654 175.349 C 472.704 174.165,471.682 172.815,471.384 172.349 C 469.942 170.089,464.912 165.750,460.333 162.816 C 456.951 160.648,451.821 157.667,451.474 157.667 C 451.269 157.667,448.567 156.328,445.468 154.692 C 442.369 153.055,437.932 150.735,435.609 149.536 C 432.882 148.127,431.310 147.118,431.173 146.688 C 430.617 144.934,427.898 141.920,425.408 140.297 L 422.833 138.619 422.648 136.226 C 422.546 134.910,422.529 132.615,422.609 131.125 L 422.755 128.417 424.519 128.235 C 432.455 127.416,437.993 116.833,434.887 108.421 C 434.384 107.057,434.395 106.944,435.233 105.088 C 435.896 103.619,436.158 102.343,436.349 99.667 C 436.486 97.742,436.984 94.067,437.456 91.500 C 439.708 79.250,437.168 69.863,429.597 62.446 C 427.432 60.326,422.817 56.865,421.667 56.500 C 421.282 56.378,420.858 55.771,420.632 55.016 C 419.644 51.717,416.543 50.549,412.793 52.064 C 410.798 52.869,410.717 52.875,407.799 52.408 C 392.896 50.021,379.976 53.870,372.247 63.000 C 370.762 64.754,367.339 70.150,366.927 71.387 C 366.874 71.544,365.257 71.454,363.332 71.187 C 344.938 68.628,334.299 70.561,334.341 76.453 C 334.379 81.973,340.367 84.104,360.770 85.858 C 362.794 86.032,363.334 86.185,363.196 86.545 C 360.990 92.291,359.079 113.088,359.966 121.679 C 361.590 137.396,365.645 145.757,373.701 149.996 L 376.058 151.236 374.446 152.172 C 373.559 152.687,370.658 154.484,368.000 156.165 C 365.342 157.846,361.667 160.062,359.833 161.089 C 345.795 168.950,340.045 182.132,329.995 229.500 C 327.903 239.360,325.882 244.164,320.931 251.040 C 320.058 252.254,318.659 254.612,317.824 256.281 C 316.781 258.364,315.778 259.813,314.621 260.907 C 312.754 262.672,311.342 265.257,311.337 266.917 L 311.333 268.000 257.890 268.000 L 204.446 268.000 202.223 265.526 C 199.567 262.570,199.615 263.156,201.791 260.300 C 203.708 257.784,208.006 250.181,210.441 245.000 C 214.038 237.344,214.610 236.042,215.310 233.922 C 216.444 230.486,216.740 230.238,219.167 230.692 C 221.406 231.111,221.459 231.119,227.552 231.815 C 229.964 232.090,232.555 232.455,233.311 232.624 C 234.066 232.794,234.984 232.855,235.351 232.759 C 235.718 232.663,236.877 232.820,237.926 233.108 C 238.975 233.395,242.333 233.941,245.389 234.320 C 248.445 234.700,251.670 235.161,252.556 235.346 C 253.442 235.531,254.767 235.766,255.500 235.868 C 256.233 235.970,257.208 236.190,257.667 236.357 C 258.125 236.523,260.525 236.887,263.000 237.165 C 268.694 237.805,275.734 238.799,280.667 239.660 C 285.840 240.564,286.267 240.546,286.707 239.417 C 287.617 237.083,297.168 186.227,302.829 153.574 C 304.136 146.034,305.316 137.549,305.327 135.610 C 305.335 134.120,307.365 134.565,288.167 131.849 C 250.246 126.484,228.735 123.667,225.698 123.667 C 224.095 123.667,224.007 124.074,218.847 155.167 C 217.448 163.600,216.234 170.830,216.149 171.234 C 216.041 171.748,215.220 172.373,213.414 173.314 C 203.404 178.533,200.918 182.401,197.336 198.333 C 195.967 204.426,194.585 207.594,192.467 209.500 C 192.060 209.867,190.377 212.157,188.729 214.590 L 185.731 219.014 185.166 215.757 C 182.295 199.188,178.109 183.534,174.768 176.879 L 173.620 174.590 173.652 167.379 C 173.669 163.412,173.381 154.767,173.010 148.167 C 170.615 105.495,170.573 104.099,171.151 87.500 C 172.016 62.694,149.878 43.058,124.000 45.676 M417.309 53.488 C 418.087 53.890,418.667 54.606,418.667 55.164 C 418.667 55.259,416.319 54.650,414.583 54.105 C 414.262 54.005,414.000 53.715,414.000 53.461 C 414.000 52.837,416.084 52.854,417.309 53.488 M408.057 54.315 C 422.430 56.772,432.218 64.309,435.355 75.334 C 436.793 80.390,436.372 93.289,434.748 93.912 C 434.456 94.024,429.107 93.094,422.859 91.845 L 411.500 89.574 408.500 86.489 C 401.754 79.551,390.858 75.293,373.400 72.772 L 369.299 72.180 369.503 71.340 C 370.226 68.350,374.843 62.254,378.358 59.649 C 385.405 54.424,396.764 52.384,408.057 54.315 M145.397 68.250 C 147.893 71.580,155.264 79.225,161.123 84.563 L 164.413 87.561 164.576 96.364 C 164.934 115.776,163.579 123.622,158.290 132.763 C 148.926 148.945,129.887 151.281,116.667 137.869 C 113.572 134.729,112.553 135.802,115.030 139.592 C 119.778 146.859,126.370 150.657,135.713 151.510 C 138.298 151.746,138.333 151.811,138.333 156.371 C 138.333 171.093,116.108 172.980,105.743 159.138 C 102.563 154.893,101.812 151.585,102.322 144.084 C 102.705 138.446,102.768 128.088,102.449 122.885 L 102.232 119.333 99.866 119.326 C 92.660 119.304,88.259 112.041,90.687 104.181 C 92.542 98.172,97.040 97.055,101.341 101.535 C 103.853 104.151,103.757 104.153,106.000 101.427 C 110.774 95.626,117.615 89.451,125.667 83.676 C 131.296 79.638,138.110 72.580,141.042 67.750 C 143.055 64.434,142.487 64.369,145.397 68.250 M357.667 72.502 C 378.253 73.403,398.643 79.211,405.937 86.251 C 408.976 89.184,409.044 89.098,404.147 88.490 C 391.163 86.879,371.956 84.869,361.333 84.009 C 342.431 82.480,336.667 80.816,336.667 76.891 C 336.667 72.910,340.158 71.771,351.000 72.217 C 352.375 72.273,355.375 72.401,357.667 72.502 M371.667 86.681 C 382.351 87.681,409.409 93.138,411.062 94.627 C 411.188 94.741,411.848 99.258,412.528 104.667 C 413.994 116.318,413.909 116.002,415.575 115.995 C 417.269 115.988,417.543 115.762,418.634 113.472 C 423.237 103.812,432.129 102.744,433.973 111.629 C 435.431 118.654,429.736 126.189,422.659 126.598 L 420.059 126.749 420.494 127.982 C 421.175 129.912,420.589 141.493,419.710 143.481 C 417.730 147.955,412.398 153.390,404.833 158.645 C 402.083 160.555,397.938 163.516,395.622 165.225 C 393.306 166.935,391.095 168.333,390.708 168.333 C 389.916 168.333,387.454 163.788,385.890 159.438 L 385.029 157.042 386.263 156.635 C 392.341 154.629,403.063 147.348,404.987 143.920 C 405.687 142.672,405.233 142.458,403.939 143.426 C 397.829 147.994,386.577 151.072,379.833 150.021 C 363.842 147.528,357.739 124.319,364.201 90.569 L 365.081 85.971 366.457 86.147 C 367.214 86.243,369.558 86.484,371.667 86.681 M126.001 89.526 C 123.606 90.641,123.000 91.226,123.000 92.424 C 123.000 93.517,122.776 93.521,126.112 92.360 C 128.904 91.387,130.913 91.202,133.659 91.665 C 136.378 92.124,137.284 91.754,136.844 90.367 C 136.228 88.426,129.487 87.903,126.001 89.526 M150.265 89.382 C 149.299 89.736,148.840 90.637,149.141 91.587 C 149.302 92.093,149.774 92.175,152.580 92.185 C 154.585 92.192,156.770 92.431,158.275 92.807 C 160.907 93.465,161.575 93.286,161.176 92.028 C 160.564 90.101,153.189 88.313,150.265 89.382 M366.667 95.333 C 365.163 96.837,365.586 96.981,371.500 96.981 C 377.079 96.981,377.452 96.894,376.728 95.754 C 375.975 94.569,367.774 94.226,366.667 95.333 M389.221 96.460 C 387.861 97.547,388.635 98.151,391.687 98.384 C 393.395 98.515,395.572 98.960,397.134 99.499 C 400.116 100.529,400.869 100.328,399.989 98.738 C 398.987 96.928,390.802 95.196,389.221 96.460 M129.358 101.212 C 128.054 102.869,128.624 105.458,130.377 105.843 C 131.831 106.162,132.667 105.172,132.667 103.130 C 132.667 100.588,130.731 99.466,129.358 101.212 M153.175 101.983 C 152.077 104.107,153.000 106.667,154.864 106.667 C 156.227 106.667,156.730 106.021,156.922 104.028 C 157.191 101.232,154.362 99.688,153.175 101.983 M145.222 101.889 C 144.668 102.443,145.139 104.907,146.885 110.596 C 149.083 117.757,149.071 118.103,146.577 119.137 C 145.153 119.727,144.828 119.749,143.303 119.358 C 140.486 118.636,140.148 120.213,142.953 120.992 C 146.139 121.877,148.377 121.172,149.543 118.916 C 150.244 117.562,150.119 116.813,147.821 108.583 C 145.980 101.993,145.739 101.372,145.222 101.889 M369.194 104.281 C 368.105 106.386,368.785 108.667,370.502 108.667 C 371.932 108.667,372.703 107.744,372.727 106.003 C 372.760 103.569,370.206 102.324,369.194 104.281 M378.394 106.920 C 377.969 108.339,376.883 111.232,375.982 113.348 C 373.679 118.753,373.373 120.695,374.394 123.400 C 375.073 125.200,378.309 126.123,381.500 125.427 C 383.085 125.082,383.523 123.761,382.000 123.920 C 374.341 124.720,373.545 122.576,377.820 112.667 C 380.246 107.042,380.890 104.331,379.796 104.336 C 379.301 104.339,379.002 104.888,378.394 106.920 M94.353 105.250 C 93.276 106.123,93.600 107.135,94.811 106.675 C 95.989 106.227,97.363 107.468,98.702 110.187 C 99.914 112.650,100.667 112.986,100.667 111.065 C 100.667 107.153,96.614 103.420,94.353 105.250 M392.358 105.804 C 390.995 107.445,391.766 110.667,393.522 110.667 C 395.913 110.667,396.617 106.863,394.439 105.717 C 393.470 105.207,392.831 105.233,392.358 105.804 M424.694 113.548 C 423.186 115.262,422.319 117.453,422.915 118.048 C 423.433 118.566,423.829 118.213,424.968 116.222 C 426.155 114.147,427.373 113.323,428.349 113.933 C 429.699 114.775,430.274 113.653,429.057 112.552 C 427.849 111.458,426.203 111.834,424.694 113.548 M128.000 125.684 C 128.000 127.732,133.676 131.233,137.519 131.555 C 141.971 131.928,148.263 129.463,146.742 127.942 C 146.503 127.703,145.698 127.875,144.131 128.502 C 139.837 130.220,135.255 129.620,131.138 126.801 C 128.273 124.840,128.000 124.743,128.000 125.684 M265.270 130.481 C 286.044 133.307,303.230 135.776,303.463 135.969 C 303.800 136.249,303.699 137.372,302.958 141.576 C 296.599 177.633,293.356 195.705,285.790 237.250 C 285.537 238.638,286.432 238.676,271.720 236.650 C 254.996 234.347,206.933 227.366,206.781 227.218 C 206.752 227.190,207.468 223.661,208.372 219.377 C 210.106 211.160,212.685 197.651,214.171 189.000 L 215.058 183.833 218.165 180.918 C 222.369 176.973,223.360 174.756,222.290 171.686 C 221.901 170.568,220.382 170.347,218.583 171.146 C 217.827 171.482,217.792 169.832,218.487 166.500 C 219.336 162.430,222.560 144.516,224.201 134.750 L 225.784 125.333 226.642 125.339 C 227.114 125.342,244.497 127.656,265.270 130.481 M389.985 131.648 C 387.095 133.833,382.296 134.340,378.577 132.852 C 375.599 131.660,374.618 131.997,376.354 133.615 C 379.338 136.395,388.075 135.921,391.444 132.797 C 392.999 131.356,391.712 130.342,389.985 131.648 M235.495 135.083 C 234.945 136.599,232.615 150.000,231.527 157.902 C 231.344 159.231,230.802 159.074,239.833 160.314 C 251.411 161.904,251.715 161.935,251.847 161.530 C 252.980 158.053,256.083 137.935,255.534 137.626 C 255.155 137.413,254.509 137.310,243.056 135.650 C 235.205 134.511,235.689 134.547,235.495 135.083 M243.833 137.326 C 254.458 138.638,254.673 138.682,254.499 139.468 C 254.415 139.852,253.745 143.467,253.012 147.500 C 250.699 160.218,250.593 160.710,250.204 160.561 C 250.000 160.484,246.083 159.853,241.500 159.160 C 236.917 158.467,233.146 157.885,233.120 157.867 C 233.040 157.809,233.943 151.768,235.206 143.910 L 236.427 136.321 237.463 136.494 C 238.034 136.590,240.900 136.964,243.833 137.326 M423.872 141.389 C 426.573 143.417,428.865 146.131,429.834 148.451 C 430.954 151.131,425.841 161.961,419.507 170.324 C 416.388 174.443,416.484 174.402,414.216 172.554 C 408.300 167.736,402.179 166.043,396.521 167.661 C 395.250 168.024,394.164 168.275,394.107 168.218 C 394.051 168.162,398.353 165.009,403.668 161.211 C 415.501 152.757,421.112 146.858,421.822 142.126 C 422.070 140.471,422.462 140.330,423.872 141.389 M103.158 157.485 C 106.806 165.007,115.221 170.000,124.247 170.000 C 134.146 170.000,139.254 165.311,139.901 155.633 L 140.092 152.765 142.129 153.399 C 159.612 158.840,170.901 169.014,175.838 183.780 C 177.426 188.532,180.926 203.616,184.298 220.249 C 184.556 221.517,184.480 221.829,183.567 223.249 C 180.661 227.771,175.667 236.190,175.667 236.567 C 175.667 238.101,179.334 232.951,185.920 222.167 C 189.249 216.717,193.240 211.021,193.740 211.007 C 193.872 211.003,194.531 211.862,195.205 212.917 C 197.062 215.820,199.961 218.417,203.180 220.062 C 206.348 221.679,206.257 221.482,205.615 225.368 C 205.137 228.264,205.062 228.194,209.340 228.844 C 213.050 229.407,214.667 229.879,214.667 230.401 C 214.667 232.730,203.884 254.322,200.426 258.917 C 198.285 261.762,198.234 261.772,195.524 259.838 C 189.144 255.285,183.773 254.534,168.920 256.114 C 166.768 256.343,164.809 256.420,164.567 256.284 C 163.783 255.846,165.788 238.432,168.380 223.167 C 170.255 212.123,169.248 201.883,165.273 191.565 C 164.519 189.607,164.134 188.991,163.719 189.074 C 162.920 189.235,163.084 190.316,164.515 194.333 C 167.630 203.074,168.500 213.539,166.870 222.667 C 165.215 231.944,163.434 245.541,162.799 253.759 C 162.675 255.368,162.444 256.765,162.286 256.863 C 160.925 257.704,133.918 256.748,125.667 255.567 L 122.833 255.162 121.418 250.998 C 120.639 248.707,118.706 243.115,117.121 238.570 L 114.240 230.307 112.703 229.403 C 111.201 228.520,111.062 228.502,106.417 228.594 C 103.804 228.646,101.665 228.571,101.662 228.428 C 101.418 214.646,98.725 194.333,97.141 194.333 C 96.482 194.333,96.529 195.023,97.642 201.673 C 98.700 207.992,99.550 216.848,99.790 224.045 L 99.941 228.591 92.720 228.790 C 88.749 228.900,79.952 228.880,73.172 228.745 L 60.844 228.500 60.617 227.167 C 58.806 216.523,60.032 192.231,62.878 182.366 C 67.188 167.426,77.946 157.519,97.499 150.484 L 100.498 149.405 101.259 152.271 C 101.677 153.847,102.532 156.194,103.158 157.485 M438.917 153.201 C 441.433 154.608,441.467 153.999,438.637 158.268 C 432.217 167.953,427.076 181.774,425.792 192.800 L 425.563 194.767 419.550 194.541 C 416.243 194.417,413.507 194.282,413.469 194.241 C 413.305 194.064,414.742 186.376,415.903 181.222 C 417.146 175.702,417.193 175.579,418.766 173.722 C 423.830 167.740,428.325 159.844,430.875 152.448 L 431.807 149.747 434.320 150.892 C 435.702 151.522,437.771 152.561,438.917 153.201 M381.201 151.662 L 382.569 151.667 382.952 153.985 C 383.504 157.327,384.862 161.400,386.540 164.743 C 387.343 166.344,388.000 167.710,388.000 167.780 C 388.000 167.850,386.578 167.833,384.840 167.742 C 380.543 167.517,377.288 168.455,373.955 170.877 C 371.719 172.503,371.821 172.851,372.868 167.167 C 374.068 160.644,377.871 151.131,379.142 151.472 C 379.522 151.574,380.449 151.660,381.201 151.662 M375.067 154.178 C 375.165 154.276,374.605 156.194,373.822 158.440 C 371.359 165.507,369.839 173.763,368.758 185.959 L 368.185 192.419 364.509 192.193 C 362.487 192.069,360.251 191.877,359.539 191.767 L 358.245 191.567 358.473 187.867 C 359.039 178.717,361.145 169.854,364.484 162.575 C 365.808 159.687,366.152 159.351,370.840 156.359 C 374.600 153.959,374.763 153.875,375.067 154.178 M452.221 160.359 C 453.475 161.121,454.550 161.791,454.612 161.846 C 454.674 161.901,453.641 163.196,452.318 164.723 C 446.027 171.982,441.384 181.680,439.138 192.250 L 438.553 195.000 432.604 195.000 L 426.654 195.000 426.814 194.250 C 426.902 193.838,427.285 191.807,427.666 189.738 C 429.600 179.226,433.872 168.485,439.786 159.270 L 442.500 155.040 446.221 157.006 C 448.268 158.087,450.968 159.596,452.221 160.359 M363.000 161.959 C 363.000 162.119,362.644 163.057,362.208 164.042 C 360.239 168.498,358.373 175.489,357.524 181.595 C 356.928 185.875,356.813 193.000,357.340 193.000 C 357.526 193.000,362.139 193.295,367.590 193.655 C 385.994 194.872,405.419 195.664,429.518 196.182 L 439.202 196.390 441.300 189.611 C 444.797 178.309,448.584 170.910,453.538 165.697 C 456.686 162.385,456.160 162.391,461.000 165.603 C 476.038 175.584,481.496 190.857,483.001 227.167 C 484.266 257.695,480.258 271.911,468.867 277.293 C 457.894 282.477,436.838 286.323,419.379 286.332 L 416.258 286.333 416.465 285.250 C 418.153 276.443,415.528 269.953,408.393 265.287 C 406.267 263.897,406.052 263.669,406.726 263.521 C 420.686 260.447,427.595 257.383,442.833 247.505 C 451.778 241.707,460.059 240.977,469.504 245.154 C 472.366 246.420,473.523 246.233,471.917 244.764 C 468.905 242.010,459.631 240.387,453.223 241.492 C 451.421 241.803,449.878 241.989,449.794 241.906 C 449.660 241.771,449.138 227.050,448.483 204.917 C 448.314 199.194,448.157 197.333,447.843 197.333 C 446.937 197.333,446.729 207.568,447.345 221.833 C 447.844 233.401,447.814 242.332,447.274 242.854 C 446.158 243.934,427.625 254.829,424.394 256.305 C 413.258 261.393,404.042 263.280,396.019 262.115 C 380.351 259.840,373.702 260.773,365.238 266.434 L 362.309 268.392 358.904 268.446 L 355.500 268.500 355.093 265.667 C 352.329 246.416,351.143 226.211,351.418 203.066 C 351.584 189.166,351.554 187.973,351.049 188.069 C 350.254 188.220,350.089 190.669,349.813 206.500 C 349.480 225.531,350.000 235.254,352.505 256.833 C 353.144 262.333,353.666 267.232,353.666 267.719 C 353.667 269.178,352.442 268.528,351.446 266.540 C 350.930 265.511,349.671 263.988,348.274 262.704 C 347.000 261.533,345.161 259.496,344.186 258.179 C 339.445 251.767,330.751 250.913,321.917 255.989 C 320.679 256.700,319.667 257.142,319.667 256.971 C 319.667 256.610,322.259 252.418,325.009 248.333 C 328.088 243.759,329.028 240.520,338.160 203.013 C 343.752 180.049,349.542 169.325,359.541 163.419 C 362.568 161.631,363.000 161.449,363.000 161.959 M404.099 168.830 C 407.516 169.720,415.333 174.579,415.333 175.813 C 415.333 176.051,414.742 179.153,414.019 182.707 C 413.297 186.260,412.601 190.331,412.473 191.753 L 412.241 194.340 408.704 194.171 C 406.758 194.078,401.417 193.835,396.833 193.632 C 392.250 193.428,388.473 193.238,388.440 193.209 C 388.095 192.911,389.622 180.902,390.717 175.298 L 391.408 171.762 393.141 170.712 C 396.932 168.414,400.290 167.838,404.099 168.830 M387.272 169.843 C 389.968 170.599,390.080 170.856,389.324 174.541 C 388.534 178.393,387.445 186.254,387.142 190.287 L 386.908 193.407 385.371 193.214 C 384.525 193.108,380.642 192.919,376.741 192.794 L 369.648 192.566 369.846 190.033 C 370.203 185.476,370.678 181.227,371.217 177.760 L 371.747 174.353 373.469 173.053 C 378.510 169.247,382.139 168.403,387.272 169.843 M230.667 171.311 C 230.667 172.190,229.057 171.905,256.118 175.820 C 283.544 179.788,282.903 179.723,282.078 178.458 C 281.895 178.176,232.347 170.625,230.917 170.660 C 230.779 170.664,230.667 170.957,230.667 171.311 M220.867 172.862 C 221.735 174.941,221.199 175.751,215.232 181.370 C 212.263 184.165,209.785 186.651,209.726 186.893 C 209.542 187.643,210.458 187.380,211.757 186.309 C 213.282 185.053,213.264 184.805,212.164 191.833 C 211.157 198.262,210.695 199.742,208.815 202.545 C 207.321 204.773,207.440 205.718,209.086 204.690 C 209.726 204.291,209.742 204.337,209.523 205.887 C 209.181 208.308,207.401 216.971,206.921 218.552 L 206.500 219.937 204.833 219.301 C 202.288 218.329,198.873 215.618,197.004 213.084 C 195.011 210.383,194.927 209.553,196.358 206.671 C 197.379 204.611,198.841 199.334,200.444 191.918 C 202.284 183.406,204.699 180.547,215.080 174.593 C 221.063 171.162,220.257 171.403,220.867 172.862 M228.000 182.994 C 228.000 183.834,225.453 183.399,254.451 187.519 C 278.846 190.985,281.009 191.199,279.817 190.020 C 279.567 189.774,229.760 182.333,228.359 182.333 C 228.161 182.333,228.000 182.630,228.000 182.994 M225.333 194.000 C 225.333 194.367,225.526 194.667,225.762 194.667 C 225.997 194.667,230.610 195.335,236.012 196.151 C 270.730 201.399,278.000 202.323,278.000 201.490 C 278.000 200.756,279.381 200.992,251.711 197.003 C 222.874 192.846,225.333 193.126,225.333 194.000 M223.667 204.494 C 223.667 204.765,224.004 205.064,224.417 205.158 C 227.834 205.935,272.992 212.333,275.060 212.333 C 280.908 212.333,231.106 204.179,224.250 204.014 C 223.929 204.006,223.667 204.222,223.667 204.494 M360.225 207.239 C 359.267 208.789,359.781 222.300,361.033 228.478 C 363.658 241.429,371.650 250.452,383.500 253.843 C 409.315 261.230,426.343 246.191,426.765 215.631 C 426.803 212.932,426.758 210.654,426.667 210.569 C 426.575 210.484,421.175 210.240,414.667 210.027 C 389.837 209.213,372.733 208.267,362.293 207.128 C 361.235 207.013,360.335 207.061,360.225 207.239 M372.333 209.489 C 389.815 210.581,408.993 211.329,419.583 211.332 L 425.667 211.333 425.667 213.965 C 425.667 240.217,412.420 256.133,392.322 254.028 C 371.293 251.826,361.333 239.095,361.333 214.418 L 361.333 208.644 362.917 208.822 C 363.787 208.919,368.025 209.220,372.333 209.489 M332.917 242.689 C 332.229 243.052,331.667 243.587,331.667 243.878 C 331.667 244.319,331.877 244.359,332.917 244.120 C 333.604 243.963,335.905 243.833,338.029 243.833 L 341.892 243.833 344.696 245.230 C 347.533 246.643,348.384 246.674,347.669 245.338 C 346.331 242.837,336.112 241.003,332.917 242.689 M338.967 255.201 C 345.272 257.835,347.661 276.354,341.692 276.328 C 339.948 276.321,339.817 276.124,339.370 272.833 C 338.470 266.220,336.269 259.667,334.948 259.667 C 334.487 259.667,334.619 260.329,335.542 262.636 C 337.204 266.790,338.358 275.782,337.412 277.200 C 335.413 280.192,332.821 277.842,330.851 271.252 C 329.183 265.671,327.381 261.508,326.861 262.028 C 326.697 262.191,328.683 269.371,330.468 275.069 L 330.959 276.637 329.857 277.319 C 326.406 279.451,323.850 276.703,320.647 267.417 C 319.661 264.558,319.279 263.943,318.886 264.583 C 318.583 265.077,320.326 271.086,321.446 273.407 L 322.588 275.775 321.809 276.554 C 319.087 279.277,313.163 273.514,313.188 268.167 C 313.211 263.029,319.873 257.350,329.000 254.689 C 330.609 254.219,337.460 254.572,338.967 255.201 M74.563 256.812 C 80.114 259.396,79.891 266.742,74.216 268.283 C 71.505 269.019,67.342 266.331,66.812 263.501 C 65.759 257.893,69.659 254.528,74.563 256.812 M186.649 257.543 C 195.193 259.660,206.474 270.266,204.161 274.009 C 204.041 274.203,203.235 273.423,202.356 272.263 C 198.254 266.850,192.189 262.418,186.057 260.353 C 181.729 258.894,181.253 260.162,185.500 261.835 C 195.472 265.762,205.022 274.931,202.141 277.812 C 201.440 278.512,201.012 278.218,199.260 275.832 C 196.393 271.931,185.688 265.167,180.250 263.821 C 178.162 263.305,179.181 264.819,181.583 265.804 C 188.594 268.678,198.675 275.893,198.662 278.026 C 198.646 280.413,196.702 280.148,193.286 277.294 C 187.810 272.718,180.515 269.333,176.130 269.333 C 174.928 269.333,175.152 270.244,176.417 270.497 C 182.821 271.776,193.572 277.894,192.065 279.401 C 191.417 280.050,189.214 279.771,185.500 278.571 C 177.851 276.100,176.736 275.912,170.833 276.099 C 167.900 276.192,164.976 276.433,164.336 276.634 C 163.625 276.857,160.033 277.000,155.123 277.000 L 147.074 277.000 146.880 275.917 C 146.062 271.360,146.392 266.625,147.850 262.009 L 148.666 259.428 150.583 259.231 C 151.637 259.122,156.400 258.716,161.167 258.328 C 165.933 257.941,171.558 257.416,173.667 257.163 C 178.170 256.622,183.570 256.780,186.649 257.543 M128.667 257.494 C 133.676 257.830,146.828 259.061,146.980 259.207 C 147.060 259.285,146.803 260.358,146.408 261.591 C 144.973 266.076,144.603 273.131,145.624 276.558 C 145.797 277.140,145.853 277.703,145.747 277.808 C 145.492 278.063,140.178 278.051,134.591 277.783 L 130.076 277.567 127.035 268.367 C 123.190 256.735,123.224 256.898,124.704 257.128 C 125.325 257.225,127.108 257.389,128.667 257.494 M392.200 263.162 C 393.832 263.426,397.164 263.875,399.606 264.160 C 405.366 264.833,408.948 266.650,411.941 270.417 C 415.719 275.173,417.086 283.084,414.370 284.478 C 410.127 286.655,402.560 287.694,397.167 286.840 C 388.707 285.499,388.180 285.590,380.800 289.665 C 374.620 293.078,374.191 293.228,372.547 292.541 C 370.457 291.668,370.774 290.321,373.750 287.437 C 377.360 283.936,384.599 279.701,387.020 279.673 C 388.028 279.661,388.939 278.755,388.221 278.477 C 385.467 277.410,377.656 281.521,371.645 287.202 C 367.619 291.006,365.822 291.965,364.741 290.884 C 361.482 287.625,371.807 277.304,381.664 273.968 C 386.353 272.381,386.461 271.534,381.833 272.645 C 374.950 274.297,368.234 279.041,363.766 285.405 C 360.016 290.747,356.768 288.544,359.823 282.731 C 362.827 277.013,369.336 271.492,376.019 268.993 C 377.233 268.539,378.000 268.058,378.000 267.750 C 378.000 266.898,375.474 267.512,372.144 269.174 C 367.579 271.453,364.128 274.356,359.732 279.616 C 356.226 283.810,356.208 279.068,359.710 273.832 C 363.313 268.446,369.241 264.730,377.500 262.682 C 379.247 262.249,388.398 262.548,392.200 263.162 M348.647 265.250 C 351.865 268.591,351.292 272.092,347.399 272.870 L 346.333 273.083 346.333 269.417 C 346.333 267.400,346.240 265.281,346.125 264.708 C 345.810 263.133,346.817 263.349,348.647 265.250 " stroke="none" fill="#101010" fill-rule="evenodd"></path><path id="path1" d="M163.667 2.020 C 163.667 3.281,163.792 3.962,164.000 3.833 C 164.183 3.720,164.333 2.811,164.333 1.814 C 164.333 0.816,164.183 0.000,164.000 0.000 C 163.814 0.000,163.667 0.895,163.667 2.020 M197.033 7.250 L 191.565 7.350 191.783 95.925 C 192.002 184.634,192.201 209.333,192.698 209.333 C 193.576 209.333,196.279 202.979,197.164 198.833 C 198.801 191.163,200.333 185.911,201.523 183.893 L 202.667 181.952 202.667 99.476 L 202.667 17.000 260.000 17.000 L 317.333 17.000 317.333 124.150 L 317.333 231.300 303.314 231.400 L 289.295 231.500 288.695 232.296 C 288.365 232.733,287.820 234.588,287.484 236.418 C 286.751 240.413,286.474 240.775,284.378 240.474 C 282.154 240.153,278.086 239.432,276.282 239.038 C 274.583 238.667,269.159 237.914,262.667 237.148 C 260.375 236.877,258.275 236.569,258.000 236.463 C 257.725 236.357,256.750 236.151,255.833 236.006 C 254.917 235.860,252.892 235.512,251.333 235.232 C 249.775 234.952,246.475 234.475,244.000 234.173 C 241.525 233.871,238.632 233.403,237.571 233.133 C 236.511 232.863,235.503 232.728,235.332 232.834 C 235.162 232.939,233.780 232.802,232.261 232.529 C 230.742 232.256,228.300 231.933,226.833 231.812 C 225.367 231.691,222.592 231.307,220.667 230.959 C 216.517 230.207,216.921 229.939,215.111 234.644 C 214.436 236.398,213.674 238.161,213.418 238.562 C 213.161 238.962,213.000 239.702,213.059 240.205 L 213.167 241.119 264.667 241.212 C 292.992 241.263,318.567 241.199,321.500 241.069 L 326.833 240.833 327.901 237.655 C 329.898 231.712,329.596 230.731,325.988 231.452 L 325.000 231.650 325.000 124.325 L 325.000 17.000 382.499 17.000 L 439.998 17.000 440.083 84.371 L 440.167 151.742 445.500 154.533 C 448.433 156.067,450.946 157.325,451.083 157.328 C 451.221 157.331,451.346 149.196,451.361 139.250 L 451.389 121.167 452.795 125.333 C 453.568 127.625,455.514 132.200,457.120 135.500 C 461.422 144.342,461.334 143.813,459.845 151.855 C 459.169 155.510,458.542 158.762,458.452 159.083 C 458.347 159.456,458.473 159.667,458.799 159.667 C 459.458 159.667,459.865 158.869,460.158 157.000 C 463.908 133.118,464.210 132.444,476.777 119.833 C 486.809 109.768,488.598 107.689,492.889 101.121 C 496.601 95.439,499.761 87.415,499.187 85.129 C 498.715 83.248,494.787 84.737,490.695 88.349 C 481.417 96.537,473.937 108.200,466.775 125.642 C 465.754 128.127,464.474 130.376,465.121 128.548 C 465.241 128.208,465.717 125.208,466.178 121.882 C 468.675 103.882,470.450 97.286,474.370 91.449 C 487.104 72.482,490.843 63.813,492.374 49.705 C 493.414 40.112,489.412 38.097,484.355 45.667 C 476.148 57.952,471.063 73.033,470.476 86.833 C 470.350 89.783,469.937 92.539,468.903 97.333 L 467.500 103.833 467.256 95.333 C 466.808 79.779,464.762 70.363,460.845 65.833 C 458.762 63.425,458.497 64.235,458.516 72.930 C 458.540 83.425,459.097 86.287,464.168 102.000 L 466.051 107.833 465.896 112.167 C 465.662 118.667,464.500 126.193,462.241 135.833 C 461.605 138.551,461.396 137.679,461.185 131.425 C 460.909 123.229,459.664 116.508,457.211 109.977 C 455.562 105.587,453.109 101.759,452.174 102.118 C 451.384 102.421,451.333 99.472,451.333 53.120 L 451.333 7.000 326.917 7.074 C 258.487 7.115,200.040 7.194,197.033 7.250 M150.291 15.552 C 149.703 16.261,149.738 19.116,150.344 19.846 C 150.796 20.391,154.001 20.444,154.529 19.916 C 154.968 19.476,155.266 17.199,154.981 16.450 C 154.451 15.056,151.215 14.437,150.291 15.552 M76.699 28.755 C 74.685 29.790,73.646 33.595,73.642 39.956 C 73.640 44.073,73.676 44.286,76.321 55.823 C 78.304 64.472,78.557 73.094,77.117 83.000 L 76.899 84.500 76.146 81.667 C 73.741 72.626,67.276 61.859,61.742 57.682 C 51.953 50.292,58.375 67.428,69.893 79.429 C 76.419 86.230,76.191 85.588,76.083 96.888 C 75.978 107.887,75.838 108.361,74.175 103.319 C 71.099 93.988,64.283 85.432,61.857 87.857 C 60.285 89.429,63.967 98.409,68.344 103.676 C 69.634 105.229,71.505 107.485,72.500 108.689 C 74.272 110.832,75.333 113.410,75.333 115.570 C 75.333 117.180,75.910 116.224,76.431 113.750 C 77.602 108.187,77.809 106.627,77.409 106.380 C 76.920 106.078,77.446 93.696,78.204 87.667 C 78.857 82.472,83.355 74.667,85.696 74.667 C 85.913 74.667,88.382 70.200,90.670 65.667 C 91.521 63.981,91.225 60.998,90.208 61.005 C 88.052 61.021,85.202 65.449,80.563 75.992 L 79.167 79.167 79.058 76.500 C 78.803 70.215,79.501 66.128,81.841 60.211 C 86.007 49.672,86.299 42.926,82.958 34.333 C 81.338 30.164,78.638 27.758,76.699 28.755 M391.880 33.231 C 391.560 33.551,391.623 34.667,391.961 34.667 C 392.346 34.667,392.680 33.381,392.349 33.176 C 392.208 33.089,391.997 33.114,391.880 33.231 M390.000 35.667 C 390.000 35.850,390.225 36.000,390.500 36.000 C 390.775 36.000,391.000 35.850,391.000 35.667 C 391.000 35.483,390.775 35.333,390.500 35.333 C 390.225 35.333,390.000 35.483,390.000 35.667 M174.160 36.674 C 173.576 37.319,173.565 37.455,174.022 38.273 C 175.035 40.083,177.487 39.025,176.805 37.073 C 176.392 35.893,175.050 35.690,174.160 36.674 M387.333 38.833 C 387.333 39.108,387.483 39.333,387.667 39.333 C 387.850 39.333,388.000 39.108,388.000 38.833 C 388.000 38.558,387.850 38.333,387.667 38.333 C 387.483 38.333,387.333 38.558,387.333 38.833 M234.815 39.029 C 234.472 39.585,235.244 40.222,235.704 39.762 C 236.089 39.378,235.848 38.667,235.333 38.667 C 235.172 38.667,234.939 38.830,234.815 39.029 M233.424 40.917 C 233.302 41.237,232.857 41.773,232.434 42.108 C 231.634 42.741,231.425 43.333,232.003 43.333 C 232.612 43.333,234.333 41.569,234.333 40.945 C 234.333 40.167,233.716 40.148,233.424 40.917 M355.082 41.718 C 354.091 42.709,354.895 44.667,356.293 44.667 C 357.768 44.667,358.612 43.528,357.979 42.394 C 357.421 41.396,355.785 41.015,355.082 41.718 M383.729 42.688 C 383.809 42.928,384.072 43.191,384.313 43.271 C 384.563 43.354,384.688 43.229,384.604 42.979 C 384.524 42.739,384.261 42.476,384.021 42.396 C 383.771 42.313,383.646 42.438,383.729 42.688 M230.848 43.977 C 230.742 44.148,230.808 44.381,230.995 44.497 C 231.392 44.742,232.000 44.430,232.000 43.980 C 232.000 43.575,231.098 43.572,230.848 43.977 M381.583 44.798 C 381.262 45.041,381.000 45.391,381.000 45.575 C 381.000 45.759,380.618 46.291,380.151 46.758 C 379.590 47.319,379.428 47.686,379.675 47.839 C 380.169 48.144,381.667 46.718,381.667 45.942 C 381.667 45.547,381.911 45.333,382.361 45.333 C 382.749 45.333,382.997 45.159,382.924 44.938 C 382.728 44.351,382.240 44.300,381.583 44.798 M228.400 46.733 C 227.812 47.321,227.911 47.667,228.667 47.667 C 229.111 47.667,229.333 47.444,229.333 47.000 C 229.333 46.244,228.988 46.146,228.400 46.733 M378.402 48.856 C 377.991 49.144,377.742 49.519,377.847 49.689 C 378.143 50.168,378.667 50.057,378.667 49.517 C 378.667 49.251,378.929 48.880,379.250 48.693 C 379.571 48.506,379.679 48.349,379.491 48.343 C 379.302 48.338,378.812 48.569,378.402 48.856 M376.667 50.833 C 376.667 51.108,376.817 51.333,377.000 51.333 C 377.183 51.333,377.333 51.108,377.333 50.833 C 377.333 50.558,377.183 50.333,377.000 50.333 C 376.817 50.333,376.667 50.558,376.667 50.833 M375.667 52.167 C 375.667 52.442,375.817 52.667,376.000 52.667 C 376.183 52.667,376.333 52.442,376.333 52.167 C 376.333 51.892,376.183 51.667,376.000 51.667 C 375.817 51.667,375.667 51.892,375.667 52.167 M414.381 53.293 C 414.053 53.503,414.331 53.729,415.381 54.107 C 417.715 54.948,418.333 55.071,418.333 54.697 C 418.333 53.828,415.250 52.733,414.381 53.293 M393.833 54.046 C 382.282 55.505,373.694 61.483,369.847 70.743 C 369.255 72.168,369.163 72.111,372.667 72.493 C 378.576 73.137,391.081 76.275,397.294 78.672 C 401.157 80.163,405.411 83.100,408.591 86.471 L 411.349 89.394 423.044 91.741 C 432.377 93.615,434.794 94.000,435.010 93.651 C 436.348 91.485,436.588 80.574,435.398 76.000 C 431.491 60.988,413.616 51.547,393.833 54.046 M141.667 67.080 C 139.007 71.744,131.448 79.657,125.500 84.004 C 117.777 89.649,110.671 95.949,107.206 100.225 C 106.043 101.660,104.764 103.126,104.363 103.483 L 103.634 104.133 101.400 101.757 C 96.269 96.300,90.799 99.088,90.396 107.366 C 90.047 114.537,93.670 119.118,99.717 119.152 L 102.304 119.167 102.471 120.833 C 102.911 125.220,102.974 133.643,102.626 141.500 C 102.172 151.764,102.501 153.998,105.044 157.901 C 115.132 173.384,139.586 171.040,138.210 154.721 C 137.951 151.656,137.959 151.667,136.010 151.667 C 127.936 151.667,119.754 147.021,114.949 139.707 C 113.187 137.025,113.045 136.528,113.902 136.048 C 114.355 135.795,114.942 136.171,116.818 137.917 C 132.819 152.817,152.579 147.824,161.002 126.754 C 163.903 119.498,164.086 118.081,164.231 101.833 L 164.358 87.500 161.978 85.500 C 157.673 81.882,148.214 72.199,145.682 68.818 C 144.316 66.993,143.116 65.395,143.016 65.267 C 142.915 65.139,142.308 65.955,141.667 67.080 M273.083 68.657 C 272.842 69.043,272.465 69.235,272.170 69.122 C 271.850 68.999,271.667 69.124,271.667 69.464 C 271.667 69.759,271.525 70.000,271.353 70.000 C 271.046 70.000,268.000 73.762,268.000 74.141 C 268.000 74.725,269.287 74.230,269.450 73.583 C 269.554 73.171,269.980 72.683,270.397 72.500 C 270.814 72.317,271.329 71.813,271.543 71.380 C 271.756 70.948,272.397 70.169,272.966 69.649 C 273.534 69.129,274.000 68.546,274.000 68.352 C 274.000 67.788,273.528 67.945,273.083 68.657 M340.437 72.659 C 337.281 73.335,335.910 75.632,336.980 78.448 C 337.883 80.822,345.085 82.436,361.011 83.833 C 374.317 85.001,385.532 86.145,397.132 87.518 C 409.258 88.953,408.668 89.050,405.586 86.123 C 399.922 80.746,391.253 77.562,374.000 74.523 C 364.129 72.785,344.847 71.714,340.437 72.659 M267.136 74.792 C 266.854 75.528,267.230 75.904,267.739 75.394 C 268.040 75.094,268.041 74.907,267.744 74.611 C 267.448 74.314,267.303 74.357,267.136 74.792 M266.000 76.833 C 266.000 77.108,266.150 77.333,266.333 77.333 C 266.517 77.333,266.667 77.108,266.667 76.833 C 266.667 76.558,266.517 76.333,266.333 76.333 C 266.150 76.333,266.000 76.558,266.000 76.833 M264.180 78.449 C 263.763 78.754,263.687 78.973,263.943 79.131 C 264.379 79.401,265.667 78.797,265.667 78.322 C 265.667 77.860,264.896 77.926,264.180 78.449 M261.787 81.500 C 261.900 81.794,261.792 82.000,261.525 82.000 C 261.053 82.000,260.521 82.965,260.825 83.270 C 260.921 83.366,261.000 83.261,261.000 83.036 C 261.000 82.811,261.134 82.710,261.297 82.811 C 261.650 83.029,262.724 81.502,262.427 81.205 C 262.029 80.807,261.598 81.006,261.787 81.500 M276.889 81.556 C 276.585 81.859,276.608 82.667,276.920 82.667 C 277.059 82.667,277.360 82.367,277.589 82.000 C 278.007 81.331,277.460 80.984,276.889 81.556 M275.556 82.222 C 275.207 82.571,275.296 84.000,275.667 84.000 C 275.850 84.000,276.000 83.787,276.000 83.527 C 276.000 83.267,276.091 82.817,276.202 82.527 C 276.404 82.002,275.977 81.800,275.556 82.222 M259.667 84.374 C 259.667 84.965,259.749 85.013,260.167 84.667 C 260.442 84.438,260.667 84.120,260.667 83.959 C 260.667 83.798,260.442 83.667,260.167 83.667 C 259.879 83.667,259.667 83.967,259.667 84.374 M39.184 85.115 C 36.612 88.487,40.246 92.241,43.917 90.004 C 45.753 88.884,45.406 85.572,43.340 84.503 C 41.638 83.623,40.155 83.842,39.184 85.115 M274.067 84.400 C 273.522 84.944,273.564 85.333,274.167 85.333 C 274.442 85.333,274.667 85.271,274.667 85.194 C 274.667 85.117,274.758 84.817,274.869 84.527 C 275.108 83.905,274.636 83.830,274.067 84.400 M257.482 86.696 C 257.139 87.252,257.911 87.889,258.371 87.429 C 258.756 87.044,258.515 86.333,258.000 86.333 C 257.838 86.333,257.605 86.496,257.482 86.696 M365.181 86.716 C 364.940 87.405,363.431 95.694,362.762 100.000 C 360.553 114.226,362.687 133.265,367.389 141.266 C 373.722 152.045,389.782 152.925,403.917 143.269 L 405.333 142.301 405.333 143.103 C 405.333 145.329,395.381 152.977,388.985 155.667 C 387.068 156.473,385.444 157.171,385.376 157.218 C 384.816 157.605,389.851 168.110,390.667 168.255 C 390.942 168.304,392.592 167.279,394.333 165.977 C 396.075 164.675,400.200 161.720,403.500 159.410 C 412.751 152.936,416.983 148.777,419.300 143.888 C 420.315 141.746,420.962 129.807,420.200 127.272 C 419.962 126.483,420.009 126.398,420.601 126.553 C 429.890 128.982,438.868 111.941,431.034 106.750 C 427.127 104.162,422.139 106.830,418.986 113.194 C 417.744 115.701,417.530 115.951,416.454 116.153 C 415.334 116.363,413.691 115.732,413.652 115.076 C 413.553 113.423,411.074 94.963,410.932 94.821 C 408.665 92.554,365.795 84.959,365.181 86.716 M256.663 88.083 C 256.660 88.313,256.135 88.839,255.496 89.253 C 254.856 89.667,254.333 90.183,254.333 90.398 C 254.333 90.614,254.005 91.140,253.604 91.566 C 253.047 92.159,252.968 92.434,253.266 92.733 C 253.633 93.100,255.945 90.990,255.986 90.250 C 255.994 90.112,256.300 89.700,256.667 89.333 C 257.370 88.630,257.563 87.667,257.000 87.667 C 256.817 87.667,256.665 87.854,256.663 88.083 M135.863 89.155 C 137.682 90.347,137.165 92.773,135.219 92.173 C 132.392 91.303,127.287 91.728,124.843 93.037 C 123.694 93.653,123.526 93.669,123.054 93.197 C 121.856 91.999,123.993 89.825,127.500 88.675 C 128.978 88.190,134.910 88.531,135.863 89.155 M157.419 89.666 C 160.010 90.466,161.333 91.426,161.333 92.505 C 161.333 93.655,160.911 93.757,158.761 93.126 C 157.701 92.815,155.125 92.472,153.037 92.364 C 149.462 92.178,149.224 92.122,148.957 91.398 C 148.126 89.142,152.695 88.207,157.419 89.666 M252.172 93.316 C 252.059 93.674,251.674 94.059,251.316 94.172 C 250.493 94.434,250.469 95.000,251.282 95.000 C 252.025 95.000,253.000 93.992,253.000 93.224 C 253.000 92.457,252.424 92.522,252.172 93.316 M374.000 94.679 C 376.115 95.012,377.527 95.920,377.245 96.766 C 377.062 97.314,365.667 97.273,365.667 96.724 C 365.667 94.671,368.900 93.877,374.000 94.679 M394.497 96.177 C 397.442 96.785,398.993 97.394,399.706 98.222 C 401.413 100.206,400.431 100.924,397.513 99.826 C 396.336 99.383,393.977 98.848,392.270 98.637 C 388.471 98.167,387.735 97.666,389.102 96.479 C 390.199 95.526,391.104 95.476,394.497 96.177 M249.000 96.702 C 249.000 96.905,248.625 97.366,248.167 97.726 C 247.651 98.132,247.333 98.720,247.333 99.269 C 247.333 100.151,247.342 100.148,248.714 98.776 C 249.621 97.869,250.025 97.213,249.891 96.864 C 249.660 96.262,249.000 96.142,249.000 96.702 M132.167 101.045 C 133.649 102.471,132.809 106.000,130.986 106.000 C 128.363 106.000,127.541 102.832,129.579 100.579 C 130.195 99.898,131.155 100.071,132.167 101.045 M245.862 100.438 C 245.516 100.691,245.375 100.986,245.549 101.094 C 245.988 101.366,246.776 100.827,246.620 100.360 C 246.529 100.086,246.313 100.108,245.862 100.438 M156.617 101.916 C 158.084 103.537,156.688 107.168,154.688 106.932 C 153.497 106.791,152.229 104.817,152.448 103.444 C 152.891 100.661,154.837 99.948,156.617 101.916 M14.981 102.035 C 12.880 105.961,23.029 117.884,35.787 126.480 C 41.299 130.194,43.957 134.689,47.806 146.803 C 50.604 155.607,50.657 155.896,48.935 152.901 C 42.816 142.263,32.864 135.772,21.150 134.779 C 10.226 133.854,27.631 148.235,44.456 154.036 C 50.282 156.045,51.296 157.526,54.662 168.939 C 56.017 173.535,57.248 177.220,57.396 177.128 C 57.805 176.875,57.713 175.069,57.178 172.833 C 56.914 171.733,56.525 169.021,56.313 166.806 L 55.926 162.779 57.352 158.820 C 58.137 156.643,59.523 153.355,60.434 151.514 C 67.161 137.910,68.206 117.283,61.926 122.073 C 59.166 124.179,55.380 134.198,54.144 142.667 C 53.590 146.460,53.593 147.534,54.185 157.000 L 54.362 159.833 53.719 158.667 C 52.666 156.760,49.740 148.282,48.477 143.483 C 47.129 138.358,47.193 137.050,49.010 132.474 C 52.447 123.823,52.793 115.364,50.084 106.218 C 48.898 102.212,48.080 101.601,46.441 103.497 C 43.189 107.258,42.920 118.365,45.666 135.480 C 45.841 136.570,45.939 137.506,45.884 137.560 C 45.829 137.615,44.832 135.599,43.667 133.080 C 39.345 123.732,38.900 122.777,37.652 120.167 C 33.359 111.190,25.469 103.663,18.432 101.830 C 15.910 101.173,15.427 101.202,14.981 102.035 M145.912 101.750 C 146.604 102.631,150.349 116.989,150.129 117.918 C 149.312 121.372,143.759 122.907,141.229 120.378 C 140.475 119.623,141.316 118.432,142.293 118.871 C 143.519 119.421,145.751 119.396,147.032 118.819 C 148.813 118.016,148.765 117.244,146.482 109.843 C 144.474 103.338,144.210 99.583,145.912 101.750 M371.201 103.346 C 373.932 104.385,373.378 109.000,370.523 109.000 C 368.755 109.000,367.904 105.807,369.161 103.889 C 369.815 102.890,369.924 102.861,371.201 103.346 M380.491 105.731 C 380.360 106.683,379.291 109.708,378.116 112.452 C 373.876 122.351,374.878 125.614,381.568 123.695 C 382.379 123.462,382.728 123.506,383.037 123.878 C 384.037 125.083,380.791 126.190,377.693 125.701 C 373.145 124.982,372.460 120.958,375.644 113.672 C 376.564 111.566,377.726 108.529,378.227 106.922 C 379.039 104.319,379.225 104.000,379.934 104.000 C 380.701 104.000,380.721 104.062,380.491 105.731 M96.891 104.662 C 98.760 104.684,102.156 111.818,100.584 112.422 C 99.864 112.698,99.499 112.328,98.704 110.518 C 97.280 107.276,95.586 105.880,94.453 107.014 C 94.211 107.255,93.971 107.200,93.668 106.835 C 93.067 106.111,94.814 104.205,95.830 104.477 C 96.198 104.576,96.676 104.660,96.891 104.662 M395.250 106.198 C 396.969 108.121,395.086 111.744,392.819 110.874 C 392.071 110.587,391.246 108.398,391.498 107.369 C 392.111 104.873,393.640 104.396,395.250 106.198 M429.182 112.485 C 430.077 113.381,430.279 114.667,429.524 114.667 C 429.262 114.667,428.822 114.441,428.547 114.166 C 427.761 113.380,426.470 114.085,425.358 115.909 C 423.282 119.316,421.740 119.528,422.855 116.254 C 424.155 112.440,427.277 110.580,429.182 112.485 M299.067 116.400 C 298.192 117.275,298.964 119.333,300.167 119.333 C 300.878 119.333,301.667 118.363,301.667 117.488 C 301.667 116.266,299.928 115.539,299.067 116.400 M131.113 126.621 C 134.488 129.311,140.555 130.060,144.413 128.264 C 147.172 126.980,148.576 128.501,145.905 129.882 C 140.054 132.908,134.238 132.250,129.566 128.034 C 126.170 124.971,127.508 123.749,131.113 126.621 M225.866 125.714 C 225.789 125.963,225.252 129.092,224.672 132.667 C 223.342 140.874,221.778 149.730,219.661 161.036 C 217.591 172.089,217.607 171.392,219.439 170.733 C 221.778 169.892,222.667 170.757,222.667 173.872 C 222.667 176.016,222.003 177.085,218.349 180.833 L 215.100 184.167 214.520 187.667 C 213.350 194.728,210.283 210.928,208.614 218.860 C 207.671 223.343,206.959 227.056,207.033 227.113 C 207.158 227.209,226.772 230.104,250.167 233.480 C 270.917 236.474,285.130 238.336,285.341 238.088 C 285.461 237.948,286.499 232.658,287.650 226.333 C 298.569 166.283,303.810 136.339,303.458 136.015 C 303.298 135.867,286.292 133.470,265.667 130.687 C 245.042 127.904,227.681 125.545,227.087 125.444 C 226.341 125.317,225.963 125.401,225.866 125.714 M490.500 127.685 C 486.454 128.347,477.720 133.798,474.089 137.927 C 467.998 144.853,459.900 158.156,460.845 159.685 C 460.952 159.858,460.822 160.000,460.555 160.000 C 460.289 160.000,459.985 160.225,459.879 160.500 C 459.774 160.775,459.383 161.000,459.010 161.000 C 458.084 161.000,458.161 161.408,459.208 162.043 C 460.080 162.572,460.087 162.568,462.624 159.911 C 464.023 158.446,467.192 155.743,469.667 153.903 C 482.863 144.095,490.557 136.851,494.267 130.745 C 496.163 127.624,495.276 126.903,490.500 127.685 M391.806 130.869 C 394.605 131.943,387.953 135.712,383.269 135.705 C 379.125 135.700,374.408 133.449,375.743 132.114 C 376.099 131.759,376.565 131.843,378.338 132.583 C 382.271 134.223,388.378 133.339,391.223 130.718 C 391.254 130.690,391.516 130.758,391.806 130.869 M243.167 135.486 C 254.680 137.119,256.000 137.374,255.999 137.958 C 255.993 140.348,252.335 161.443,251.841 161.937 C 251.617 162.161,233.120 159.681,232.051 159.283 C 231.308 159.007,231.280 158.887,231.498 156.913 C 231.828 153.913,233.814 142.113,234.696 137.912 L 235.449 134.325 236.475 134.503 C 237.039 134.601,240.050 135.044,243.167 135.486 M236.521 137.059 C 235.919 138.913,233.279 157.418,233.579 157.684 C 233.719 157.809,235.258 158.096,237.000 158.322 C 238.742 158.548,242.405 159.097,245.141 159.542 C 250.891 160.476,250.431 160.684,251.137 156.833 C 254.720 137.304,254.574 138.689,253.057 138.672 C 252.814 138.669,249.889 138.305,246.557 137.864 C 236.842 136.576,236.682 136.563,236.521 137.059 M175.186 140.408 C 174.535 141.337,174.530 141.667,175.167 141.667 C 175.442 141.667,175.667 141.902,175.667 142.189 C 175.667 142.577,175.860 142.652,176.417 142.482 C 178.161 141.947,178.462 141.046,177.178 140.205 C 176.095 139.495,175.804 139.524,175.186 140.408 M422.213 140.898 C 422.096 141.015,422.000 141.482,422.000 141.936 C 422.000 146.020,415.304 153.104,403.457 161.552 C 398.637 164.990,394.726 167.837,394.768 167.879 C 394.809 167.920,395.888 167.664,397.164 167.310 C 402.257 165.898,408.630 167.779,414.272 172.358 C 416.042 173.794,416.441 173.990,416.772 173.588 C 423.773 165.093,430.601 152.245,429.836 149.008 C 429.226 146.431,423.147 139.964,422.213 140.898 M212.000 149.814 C 212.000 150.283,212.150 150.667,212.333 150.667 C 212.517 150.667,212.667 150.376,212.667 150.020 C 212.667 149.664,212.517 149.280,212.333 149.167 C 212.144 149.050,212.000 149.330,212.000 149.814 M96.415 150.989 C 67.633 161.949,59.265 176.664,60.122 214.807 C 60.238 219.955,60.424 225.082,60.536 226.201 L 60.740 228.236 64.453 228.450 C 66.496 228.567,75.254 228.664,83.917 228.665 L 99.667 228.667 99.665 225.083 C 99.663 217.993,98.649 207.661,97.159 199.527 C 96.578 196.356,96.462 195.050,96.718 194.572 C 97.195 193.679,97.944 194.433,98.339 196.204 C 99.655 202.100,100.839 211.197,101.326 219.167 C 101.517 222.283,101.764 225.621,101.875 226.583 L 102.077 228.333 106.122 228.335 C 114.333 228.339,113.959 227.775,121.836 252.000 C 122.951 255.429,122.499 254.978,125.215 255.371 C 133.648 256.591,153.467 257.441,159.748 256.852 C 162.759 256.570,162.354 257.520,163.171 248.833 C 163.882 241.266,165.107 232.154,166.397 224.833 C 168.482 212.997,167.728 202.982,164.010 193.167 C 162.967 190.411,162.823 189.753,163.181 189.371 C 163.963 188.538,164.569 189.237,165.652 192.224 C 169.661 203.276,170.360 212.219,168.216 225.000 C 166.380 235.950,163.978 255.756,164.432 256.209 C 164.541 256.318,167.451 256.144,170.898 255.823 C 185.160 254.492,188.774 255.063,195.523 259.711 C 198.431 261.713,198.183 261.739,200.060 259.242 C 203.477 254.697,214.667 232.468,214.667 230.225 C 214.667 229.972,212.021 229.354,208.880 228.873 C 204.707 228.235,204.978 228.624,205.623 224.198 C 205.835 222.749,205.968 221.549,205.921 221.532 C 202.014 220.115,197.155 216.266,195.129 212.982 C 194.460 211.900,193.796 211.087,193.651 211.176 C 192.933 211.620,189.210 217.006,186.093 222.112 C 178.861 233.958,175.667 238.350,175.667 236.449 C 175.667 235.981,179.264 229.864,183.328 223.420 L 184.429 221.673 183.522 217.086 C 181.137 205.034,177.157 188.062,175.683 183.661 C 171.006 169.704,160.366 159.792,144.034 154.179 C 139.942 152.773,140.374 152.550,139.989 156.267 C 139.149 164.389,135.534 168.546,128.130 169.906 C 119.407 171.507,109.324 167.256,104.446 159.919 C 102.918 157.620,100.676 151.979,100.670 150.417 C 100.666 149.429,100.426 149.462,96.415 150.989 M350.000 150.333 C 350.000 150.517,350.225 150.667,350.500 150.667 C 350.775 150.667,351.000 150.517,351.000 150.333 C 351.000 150.150,350.775 150.000,350.500 150.000 C 350.225 150.000,350.000 150.150,350.000 150.333 M431.024 152.417 C 428.819 159.298,424.092 167.598,418.821 173.844 C 417.494 175.417,417.331 175.844,416.214 180.677 C 414.721 187.139,413.553 193.664,413.838 193.950 C 413.957 194.069,416.586 194.219,419.679 194.283 L 425.304 194.400 425.456 193.617 C 425.540 193.186,425.864 191.258,426.177 189.333 C 427.869 178.915,432.350 167.619,438.504 158.261 L 440.958 154.529 439.562 153.719 C 438.286 152.978,432.154 150.000,431.904 150.000 C 431.846 150.000,431.449 151.087,431.024 152.417 M377.028 154.808 C 374.724 160.062,373.160 165.349,372.510 170.083 C 372.250 171.973,372.258 171.974,374.152 170.528 C 377.113 168.268,382.567 166.902,386.083 167.539 L 387.899 167.868 386.300 164.684 C 384.649 161.396,383.106 156.692,382.766 153.907 C 382.536 152.026,382.658 152.128,380.300 151.835 L 378.434 151.602 377.028 154.808 M347.556 152.889 C 347.172 153.272,347.313 153.667,347.833 153.667 C 348.108 153.667,348.333 153.442,348.333 153.167 C 348.333 152.646,347.939 152.505,347.556 152.889 M211.000 154.314 C 211.000 154.691,211.150 155.000,211.333 155.000 C 211.517 155.000,211.667 154.784,211.667 154.520 C 211.667 154.255,211.517 153.947,211.333 153.833 C 211.150 153.720,211.000 153.936,211.000 154.314 M346.519 153.970 C 346.291 154.339,346.638 155.333,346.995 155.333 C 347.632 155.333,348.134 154.289,347.645 153.980 C 347.035 153.593,346.753 153.591,346.519 153.970 M496.074 154.186 C 494.680 155.162,495.442 157.333,497.179 157.333 C 498.664 157.333,499.199 155.077,497.926 154.186 C 497.518 153.900,497.102 153.667,497.000 153.667 C 496.898 153.667,496.482 153.900,496.074 154.186 M370.167 156.966 C 366.528 159.315,366.084 159.712,365.255 161.358 C 361.543 168.719,358.667 180.738,358.667 188.884 C 358.667 191.822,358.372 191.642,363.623 191.894 L 367.944 192.100 368.124 190.633 C 368.223 189.827,368.390 187.967,368.494 186.500 C 369.242 175.980,371.345 164.685,373.839 157.795 C 374.477 156.031,375.000 154.530,375.000 154.460 C 375.000 154.012,373.681 154.696,370.167 156.966 M345.230 155.683 C 344.537 156.492,344.526 156.667,345.167 156.667 C 345.442 156.667,345.667 156.528,345.667 156.358 C 345.667 156.188,345.915 156.000,346.219 155.941 C 346.698 155.847,346.707 155.780,346.282 155.429 C 345.889 155.103,345.684 155.152,345.230 155.683 M439.785 159.587 C 434.928 167.186,431.838 174.212,429.343 183.333 C 428.499 186.420,427.000 193.472,427.000 194.358 C 427.000 194.559,429.165 194.648,432.697 194.591 L 438.393 194.500 439.488 190.167 C 442.325 178.937,446.559 170.627,452.766 164.107 L 454.727 162.047 453.400 161.209 C 451.783 160.188,442.910 155.332,442.671 155.337 C 442.577 155.339,441.278 157.251,439.785 159.587 M25.583 158.897 C 23.875 159.341,25.958 163.218,30.394 167.850 C 34.580 172.221,42.049 177.147,51.000 181.442 C 53.658 182.718,56.086 183.980,56.395 184.246 C 57.082 184.839,57.545 183.100,57.225 181.129 C 56.683 177.789,48.430 168.437,42.755 164.731 C 37.715 161.440,28.217 158.213,25.583 158.897 M486.167 160.141 C 480.865 161.653,476.054 164.376,472.153 168.072 L 469.908 170.198 472.847 174.099 C 474.463 176.245,475.912 178.000,476.066 178.000 C 476.676 178.000,485.363 169.005,487.314 166.353 C 492.142 159.793,491.904 158.505,486.167 160.141 M361.480 162.379 C 349.534 168.715,344.243 178.460,337.341 206.833 C 328.453 243.375,328.387 243.585,323.703 250.610 C 320.520 255.384,319.461 257.134,319.861 256.960 C 320.029 256.887,321.367 256.209,322.833 255.454 C 332.074 250.696,340.035 251.854,344.641 258.627 C 345.342 259.657,347.007 261.469,348.342 262.653 C 350.058 264.177,351.004 265.322,351.575 266.570 C 352.242 268.027,353.667 269.135,353.667 268.197 C 353.667 268.122,353.070 262.910,352.340 256.614 C 349.040 228.150,348.331 189.608,351.075 187.877 C 351.964 187.316,351.971 187.423,351.608 196.004 C 350.802 215.080,351.989 240.382,354.689 261.667 C 355.639 269.159,355.107 268.333,358.980 268.333 L 362.280 268.333 364.890 266.536 C 372.931 261.000,380.026 259.814,393.845 261.697 L 401.407 262.728 404.787 262.178 C 416.096 260.337,423.182 257.434,437.540 248.756 L 447.289 242.863 447.526 240.348 C 447.656 238.965,447.555 232.358,447.302 225.667 C 446.745 210.914,446.743 199.233,447.298 197.862 C 448.224 195.577,448.430 197.534,448.861 212.733 C 449.097 221.038,449.396 231.032,449.526 234.941 L 449.762 242.048 450.631 241.828 C 457.430 240.107,467.442 241.311,471.646 244.357 C 474.203 246.209,472.890 246.640,469.210 245.156 C 459.181 241.112,452.089 241.788,442.833 247.671 C 427.450 257.448,420.222 260.752,408.895 263.184 L 406.290 263.743 408.395 265.109 C 415.655 269.817,419.106 278.588,416.436 285.546 C 415.688 287.495,443.436 284.849,455.311 281.839 C 473.593 277.205,478.911 271.948,482.086 255.367 C 482.984 250.678,483.184 226.325,482.399 217.167 C 479.896 187.939,475.306 176.334,462.500 166.857 C 457.962 163.498,456.704 162.871,455.881 163.553 C 452.375 166.457,449.127 171.036,445.985 177.500 C 443.970 181.645,443.426 183.118,440.827 191.470 L 439.280 196.440 426.390 196.217 C 404.664 195.841,363.254 193.976,357.700 193.125 L 356.566 192.951 356.770 188.690 C 357.197 179.751,359.771 168.277,362.557 162.890 C 363.209 161.629,363.043 161.550,361.480 162.379 M395.500 169.684 C 391.867 171.235,391.697 171.433,390.975 174.953 C 390.174 178.857,389.108 186.320,388.818 190.047 L 388.594 192.927 390.214 193.123 C 392.816 193.437,411.663 194.115,411.876 193.902 C 411.982 193.796,412.201 192.537,412.362 191.104 C 412.523 189.672,413.245 185.575,413.965 182.000 C 414.686 178.425,415.251 175.486,415.221 175.468 C 415.191 175.450,414.049 174.592,412.683 173.562 C 406.147 168.631,400.796 167.423,395.500 169.684 M378.233 170.454 C 375.361 171.733,372.142 173.991,371.883 174.909 C 371.346 176.813,370.009 188.056,370.003 190.719 L 370.000 192.271 373.083 192.461 C 374.779 192.566,378.520 192.742,381.396 192.854 L 386.626 193.056 386.783 191.945 C 386.869 191.333,387.173 188.583,387.458 185.833 C 387.743 183.083,388.374 178.669,388.861 176.025 C 389.857 170.611,389.887 170.729,387.349 169.977 C 384.225 169.052,381.004 169.220,378.233 170.454 M256.500 174.160 C 269.883 176.110,281.171 177.843,281.583 178.012 C 282.394 178.344,282.594 179.254,281.913 179.516 C 281.117 179.821,231.274 172.416,230.776 171.919 C 230.105 171.248,230.575 170.241,231.462 170.450 C 231.849 170.541,243.117 172.211,256.500 174.160 M214.243 175.262 C 204.404 180.961,202.436 183.506,200.293 193.301 C 198.515 201.428,197.700 204.322,196.511 206.737 C 195.078 209.645,195.074 209.788,196.366 211.851 C 198.256 214.870,201.352 217.535,204.799 219.109 C 206.441 219.859,206.425 219.881,207.445 215.500 C 209.154 208.161,209.734 204.133,208.972 204.895 C 207.631 206.236,207.059 204.637,208.317 203.064 C 210.414 200.441,211.734 195.667,212.542 187.783 L 212.776 185.502 211.525 186.600 C 210.423 187.567,209.333 187.676,209.333 186.819 C 209.333 186.764,211.771 184.431,214.750 181.634 C 221.264 175.520,221.776 174.740,220.655 172.645 C 220.185 171.766,220.499 171.638,214.243 175.262 M183.820 174.022 C 183.408 174.688,183.992 176.667,184.598 176.662 C 186.078 176.650,186.667 176.258,186.667 175.286 C 186.667 174.025,184.432 173.032,183.820 174.022 M22.852 182.741 C 22.161 183.727,22.198 184.441,22.976 185.145 C 23.648 185.753,24.925 185.610,25.412 184.872 C 26.632 183.019,24.122 180.928,22.852 182.741 M254.947 185.965 C 280.013 189.601,281.010 189.799,279.895 190.914 C 279.565 191.245,277.656 191.058,270.490 189.992 C 265.546 189.257,254.079 187.607,245.008 186.324 C 234.681 184.864,228.353 183.829,228.079 183.556 C 227.309 182.786,227.935 181.958,229.122 182.177 C 229.697 182.283,241.318 183.987,254.947 185.965 M497.254 187.105 C 492.151 191.437,486.823 199.153,484.437 205.667 C 483.683 207.725,483.927 208.308,484.860 206.677 C 485.328 205.858,487.934 203.008,490.650 200.344 C 497.312 193.810,501.320 188.334,501.331 185.750 C 501.336 184.686,499.311 185.359,497.254 187.105 M308.383 185.983 C 308.457 186.203,308.625 186.372,308.758 186.358 C 309.157 186.317,309.080 185.860,308.650 185.717 C 308.430 185.643,308.310 185.763,308.383 185.983 M306.201 189.444 C 305.868 190.422,305.653 191.509,305.722 191.861 C 305.820 192.365,307.333 188.577,307.333 187.826 C 307.333 187.084,306.691 188.001,306.201 189.444 M309.000 190.833 C 309.000 191.108,309.150 191.333,309.333 191.333 C 309.517 191.333,309.667 191.108,309.667 190.833 C 309.667 190.558,309.517 190.333,309.333 190.333 C 309.150 190.333,309.000 190.558,309.000 190.833 M35.215 191.817 C 30.957 195.764,43.162 210.798,56.064 217.499 C 58.393 218.709,58.509 218.607,57.822 215.954 C 54.667 203.764,46.197 193.047,38.400 191.378 C 36.109 190.888,36.238 190.870,35.215 191.817 M308.667 192.167 C 308.667 192.442,308.817 192.667,309.000 192.667 C 309.183 192.667,309.333 192.442,309.333 192.167 C 309.333 191.892,309.183 191.667,309.000 191.667 C 308.817 191.667,308.667 191.892,308.667 192.167 M252.616 196.967 C 278.134 200.623,279.013 200.796,277.865 201.944 C 277.283 202.526,226.086 195.220,225.310 194.444 C 224.630 193.763,225.345 192.972,226.455 193.177 C 227.030 193.283,238.802 194.989,252.616 196.967 M304.373 194.481 C 303.852 196.551,303.883 196.926,304.526 196.284 C 305.139 195.670,305.593 193.000,305.083 193.000 C 304.898 193.000,304.578 193.666,304.373 194.481 M306.667 196.314 C 306.667 196.691,306.817 197.000,307.000 197.000 C 307.183 197.000,307.333 196.784,307.333 196.520 C 307.333 196.255,307.183 195.947,307.000 195.833 C 306.817 195.720,306.667 195.936,306.667 196.314 M303.667 197.500 C 303.667 197.775,303.817 198.000,304.000 198.000 C 304.183 198.000,304.333 197.775,304.333 197.500 C 304.333 197.225,304.183 197.000,304.000 197.000 C 303.817 197.000,303.667 197.225,303.667 197.500 M303.333 200.167 C 303.333 200.442,303.483 200.667,303.667 200.667 C 303.850 200.667,304.000 200.442,304.000 200.167 C 304.000 199.892,303.850 199.667,303.667 199.667 C 303.483 199.667,303.333 199.892,303.333 200.167 M302.667 203.087 C 302.667 203.559,302.854 204.020,303.083 204.113 C 303.349 204.220,303.304 204.290,302.958 204.307 C 302.406 204.334,301.831 206.123,302.188 206.701 C 302.554 207.294,303.045 206.983,302.946 206.221 C 302.889 205.793,303.104 205.182,303.422 204.864 C 304.175 204.110,304.152 203.574,303.333 202.833 C 302.683 202.245,302.667 202.251,302.667 203.087 M250.187 207.492 C 263.765 209.422,275.053 211.000,275.271 211.000 C 275.488 211.000,275.667 211.382,275.667 211.848 C 275.667 212.621,275.570 212.680,274.583 212.512 C 273.987 212.411,271.100 212.023,268.167 211.650 C 249.547 209.282,224.057 205.498,223.572 205.030 C 223.001 204.478,223.734 203.629,224.626 203.808 C 225.107 203.905,236.609 205.563,250.187 207.492 M15.000 204.607 C 15.000 208.837,32.659 226.352,38.746 228.159 C 40.550 228.695,48.819 228.897,49.118 228.412 C 49.719 227.439,35.975 213.897,34.999 214.501 C 34.814 214.615,34.560 214.437,34.435 214.104 C 34.156 213.361,33.939 213.187,30.000 210.554 C 22.586 205.599,15.000 202.591,15.000 204.607 M312.667 205.333 C 312.667 205.517,312.892 205.667,313.167 205.667 C 313.442 205.667,313.667 205.517,313.667 205.333 C 313.667 205.150,313.442 205.000,313.167 205.000 C 312.892 205.000,312.667 205.150,312.667 205.333 M367.833 207.521 C 373.887 208.135,394.575 209.171,410.500 209.659 C 416.917 209.855,423.275 210.102,424.630 210.207 L 427.093 210.399 426.907 216.449 C 425.989 246.360,410.043 260.714,384.812 254.342 C 367.947 250.083,359.667 236.968,359.667 214.519 C 359.667 207.467,359.888 206.597,361.616 206.841 C 362.285 206.936,365.083 207.242,367.833 207.521 M301.667 207.980 C 301.667 208.358,301.817 208.667,302.000 208.667 C 302.183 208.667,302.333 208.451,302.333 208.186 C 302.333 207.922,302.183 207.613,302.000 207.500 C 301.817 207.387,301.667 207.603,301.667 207.980 M492.566 208.953 C 491.502 209.263,490.506 209.720,490.353 209.968 C 490.200 210.216,489.905 210.314,489.698 210.186 C 488.050 209.168,484.015 212.744,485.112 214.250 C 485.302 214.512,485.262 214.851,485.003 215.163 C 484.125 216.221,487.191 216.020,488.567 214.929 C 488.788 214.754,489.313 214.572,489.734 214.523 C 491.469 214.322,498.585 210.791,499.164 209.843 C 500.061 208.377,496.281 207.867,492.566 208.953 M301.169 210.083 C 301.049 210.679,300.669 212.010,300.324 213.040 C 299.980 214.070,299.653 215.832,299.599 216.955 C 299.544 218.077,299.387 218.997,299.250 218.998 C 299.112 218.999,299.000 219.225,299.000 219.500 C 299.000 220.745,299.656 219.814,299.998 218.083 C 300.207 217.029,300.532 215.669,300.722 215.061 C 300.911 214.453,300.990 213.666,300.898 213.311 C 300.805 212.957,300.845 212.667,300.988 212.667 C 301.130 212.667,301.335 212.179,301.443 211.583 C 301.552 210.987,301.739 210.162,301.859 209.750 C 301.986 209.314,301.933 209.000,301.732 209.000 C 301.542 209.000,301.288 209.487,301.169 210.083 M361.545 210.547 C 360.036 221.560,363.686 236.201,369.727 243.367 C 377.760 252.896,395.774 256.888,407.445 251.725 C 418.360 246.897,425.333 232.653,425.333 215.186 L 425.333 211.739 419.250 211.542 C 415.904 211.434,409.342 211.262,404.667 211.160 C 395.424 210.957,381.291 210.279,370.030 209.496 C 366.106 209.223,362.638 209.000,362.326 209.000 C 361.902 209.000,361.703 209.394,361.545 210.547 M309.333 210.861 C 309.333 211.151,309.511 211.330,309.729 211.257 C 310.347 211.051,310.450 210.333,309.861 210.333 C 309.571 210.333,309.333 210.571,309.333 210.861 M298.992 221.855 C 298.813 222.325,298.667 222.925,298.667 223.188 C 298.667 223.949,299.239 223.742,299.418 222.917 C 299.508 222.504,299.691 221.904,299.826 221.583 C 299.976 221.227,299.925 221.000,299.694 221.000 C 299.487 221.000,299.171 221.385,298.992 221.855 M494.190 232.190 C 493.527 232.854,493.525 233.649,494.186 234.592 C 495.205 236.049,497.333 235.310,497.333 233.500 C 497.333 231.812,495.382 230.999,494.190 232.190 M341.091 242.210 C 345.227 243.151,348.000 244.673,348.000 246.003 C 348.000 246.995,347.632 246.968,345.552 245.826 C 341.807 243.770,338.264 243.241,334.092 244.115 C 332.674 244.412,331.909 244.442,331.675 244.208 C 329.891 242.424,336.173 241.091,341.091 242.210 M326.721 255.627 C 319.047 258.342,313.333 263.633,313.333 268.024 C 313.333 273.306,318.734 278.968,321.499 276.583 L 322.369 275.833 321.208 273.323 C 319.211 269.005,318.154 264.186,319.249 264.397 C 319.653 264.474,320.193 265.529,321.011 267.838 C 324.130 276.641,326.264 279.114,329.313 277.461 C 330.855 276.625,330.803 276.344,326.468 262.250 C 326.165 261.266,327.268 261.573,327.811 262.624 C 328.767 264.472,330.369 268.782,331.321 272.067 C 332.830 277.275,334.579 279.007,336.835 277.530 C 338.563 276.397,337.160 265.660,334.678 261.020 C 334.378 260.460,334.380 260.179,334.688 259.808 C 335.564 258.753,336.567 260.460,337.965 265.388 C 338.818 268.391,339.208 270.342,339.866 274.883 C 340.131 276.720,342.488 276.680,343.956 274.813 C 345.963 272.262,344.099 259.933,341.270 257.039 C 338.682 254.392,332.033 253.747,326.721 255.627 M68.410 257.668 C 63.670 262.408,69.543 270.489,75.551 267.495 C 81.034 264.763,78.074 256.358,71.623 256.339 C 69.873 256.334,69.654 256.424,68.410 257.668 M174.939 257.172 C 174.844 257.267,171.106 257.635,166.633 257.991 C 154.249 258.974,149.358 259.446,148.956 259.694 C 147.589 260.539,146.288 269.525,146.818 274.468 L 147.053 276.667 155.443 276.659 C 160.058 276.654,164.433 276.511,165.167 276.340 C 170.975 274.989,177.252 275.654,185.779 278.523 C 191.491 280.446,194.130 279.868,190.865 277.410 C 186.775 274.331,180.554 271.363,176.995 270.794 C 174.669 270.422,174.276 268.893,176.589 269.219 C 182.499 270.052,188.432 272.894,193.419 277.282 C 196.417 279.920,199.133 280.236,198.541 277.878 C 197.956 275.546,188.945 269.124,182.058 266.130 C 179.076 264.834,178.683 264.503,179.348 263.854 C 181.046 262.194,196.271 271.480,199.853 276.361 C 201.207 278.205,201.964 278.365,202.473 276.917 C 203.651 273.566,193.522 264.844,184.772 261.673 C 182.601 260.887,182.056 260.312,182.855 259.649 C 183.238 259.331,183.869 259.437,185.919 260.163 C 192.436 262.472,198.132 266.533,202.040 271.658 C 203.887 274.079,204.333 274.268,204.333 272.629 C 204.333 269.255,195.995 261.203,189.988 258.777 C 186.399 257.327,175.903 256.208,174.939 257.172 M123.747 257.750 C 123.830 257.979,125.293 262.461,126.997 267.709 L 130.095 277.252 131.798 277.456 C 132.734 277.569,136.254 277.662,139.619 277.664 L 145.739 277.667 145.524 276.809 C 144.432 272.460,144.676 266.428,146.129 261.854 L 146.924 259.349 145.879 259.185 C 144.181 258.919,125.854 257.343,124.381 257.337 C 123.893 257.335,123.653 257.491,123.747 257.750 M377.500 262.893 C 369.073 264.778,361.516 270.021,358.571 276.025 C 356.355 280.544,357.010 282.433,359.703 279.286 C 365.206 272.856,372.260 267.888,376.917 267.162 C 379.663 266.734,378.777 268.083,375.420 269.442 C 366.372 273.104,356.609 283.900,358.971 287.632 C 359.320 288.183,362.076 287.939,362.276 287.339 C 363.046 285.029,369.353 278.598,373.442 275.956 C 376.464 274.003,384.637 271.193,385.318 271.873 C 385.816 272.372,384.395 273.228,381.202 274.351 C 371.980 277.596,362.947 286.334,364.536 290.473 C 365.202 292.209,367.519 290.966,372.780 286.049 C 377.965 281.203,386.889 276.756,388.398 278.265 C 388.971 278.838,388.474 279.555,387.348 279.780 C 379.750 281.300,368.477 290.591,372.182 292.280 C 373.872 293.050,374.951 292.726,379.885 289.971 C 387.761 285.573,389.343 285.147,394.000 286.168 C 401.152 287.736,413.629 286.229,415.020 283.628 C 416.767 280.365,414.536 273.184,410.536 269.197 C 407.266 265.937,405.183 265.026,399.369 264.314 C 396.691 263.985,393.039 263.481,391.254 263.192 C 388.240 262.704,379.220 262.508,377.500 262.893 M346.445 266.364 C 346.565 267.905,346.664 269.954,346.665 270.917 C 346.667 272.874,347.131 273.133,348.952 272.192 C 351.905 270.664,350.690 266.163,346.697 263.835 C 346.301 263.605,346.261 264.004,346.445 266.364 M478.993 270.508 C 478.286 271.361,478.623 271.396,489.346 271.585 C 499.345 271.761,499.731 271.745,499.616 271.149 C 499.428 270.172,498.409 270.069,488.624 270.033 C 480.752 270.005,479.354 270.074,478.993 270.508 " stroke="none" fill="#f4f4f4" fill-rule="evenodd"></path><path id="path2" d="M128.921 88.569 C 129.335 88.649,129.935 88.646,130.254 88.562 C 130.573 88.479,130.233 88.414,129.500 88.417 C 128.767 88.421,128.506 88.489,128.921 88.569 M361.770 113.833 C 361.772 114.933,361.834 115.343,361.908 114.744 C 361.982 114.145,361.981 113.245,361.905 112.744 C 361.829 112.243,361.768 112.733,361.770 113.833 M382.083 150.230 C 382.404 150.314,382.929 150.314,383.250 150.230 C 383.571 150.146,383.308 150.077,382.667 150.077 C 382.025 150.077,381.762 150.146,382.083 150.230 M366.500 192.000 L 364.833 192.229 366.397 192.281 C 367.257 192.310,368.053 192.183,368.167 192.000 C 368.280 191.817,368.326 191.690,368.270 191.719 C 368.213 191.748,367.417 191.874,366.500 192.000 M422.750 194.572 C 423.254 194.648,424.079 194.648,424.583 194.572 C 425.087 194.496,424.675 194.433,423.667 194.433 C 422.658 194.433,422.246 194.496,422.750 194.572 M429.750 194.915 C 431.354 194.976,433.979 194.976,435.583 194.915 C 437.188 194.854,435.875 194.804,432.667 194.804 C 429.458 194.804,428.146 194.854,429.750 194.915 M424.730 211.540 C 425.040 211.632,425.358 212.075,425.437 212.525 C 425.563 213.239,425.576 213.227,425.541 212.424 C 425.512 211.766,425.311 211.487,424.833 211.439 C 424.352 211.390,424.323 211.418,424.730 211.540 M394.750 254.230 C 395.071 254.314,395.596 254.314,395.917 254.230 C 396.238 254.146,395.975 254.077,395.333 254.077 C 394.692 254.077,394.429 254.146,394.750 254.230 M330.587 254.569 C 331.002 254.649,331.602 254.646,331.921 254.562 C 332.239 254.479,331.900 254.414,331.167 254.417 C 330.433 254.421,330.173 254.489,330.587 254.569 M379.755 262.573 C 380.261 262.649,381.011 262.647,381.421 262.568 C 381.831 262.489,381.417 262.426,380.500 262.429 C 379.583 262.431,379.248 262.496,379.755 262.573 M346.333 271.480 C 346.333 272.111,346.449 272.699,346.589 272.786 C 346.730 272.873,346.790 272.357,346.721 271.639 C 346.567 270.027,346.333 269.931,346.333 271.480 M142.243 277.907 C 142.834 277.981,143.884 277.982,144.576 277.910 C 145.267 277.838,144.783 277.778,143.500 277.776 C 142.217 277.775,141.651 277.834,142.243 277.907 " stroke="none" fill="#848484" fill-rule="evenodd"></path><path id="path3" d="M348.750 72.230 C 349.071 72.314,349.596 72.314,349.917 72.230 C 350.238 72.146,349.975 72.077,349.333 72.077 C 348.692 72.077,348.429 72.146,348.750 72.230 M164.462 95.667 C 164.462 97.958,164.515 98.896,164.580 97.750 C 164.645 96.604,164.645 94.729,164.580 93.583 C 164.515 92.438,164.462 93.375,164.462 95.667 M369.088 94.573 C 369.595 94.649,370.345 94.647,370.755 94.568 C 371.165 94.489,370.750 94.426,369.833 94.429 C 368.917 94.431,368.581 94.496,369.088 94.573 M164.459 105.000 C 164.459 107.108,164.514 107.971,164.580 106.917 C 164.646 105.862,164.646 104.138,164.580 103.083 C 164.514 102.029,164.459 102.892,164.459 105.000 M361.773 110.000 C 361.773 111.192,361.834 111.679,361.908 111.083 C 361.982 110.487,361.982 109.513,361.908 108.917 C 361.834 108.321,361.773 108.808,361.773 110.000 M361.773 117.667 C 361.773 118.858,361.834 119.346,361.908 118.750 C 361.982 118.154,361.982 117.179,361.908 116.583 C 361.834 115.987,361.773 116.475,361.773 117.667 M420.744 130.000 C 420.744 130.642,420.813 130.904,420.896 130.583 C 420.980 130.262,420.980 129.737,420.896 129.417 C 420.813 129.096,420.744 129.358,420.744 130.000 M420.424 138.000 C 420.424 138.825,420.489 139.162,420.569 138.750 C 420.648 138.337,420.648 137.662,420.569 137.250 C 420.489 136.837,420.424 137.175,420.424 138.000 M153.146 139.417 L 152.167 140.500 153.250 139.521 C 153.846 138.983,154.333 138.495,154.333 138.438 C 154.333 138.180,154.058 138.407,153.146 139.417 M134.750 146.563 C 135.071 146.647,135.596 146.647,135.917 146.563 C 136.237 146.479,135.975 146.411,135.333 146.411 C 134.692 146.411,134.429 146.479,134.750 146.563 M123.755 168.573 C 124.261 168.649,125.011 168.647,125.421 168.568 C 125.831 168.489,125.417 168.426,124.500 168.429 C 123.583 168.431,123.248 168.496,123.755 168.573 M358.433 189.000 C 358.433 190.008,358.496 190.421,358.572 189.917 C 358.648 189.412,358.648 188.588,358.572 188.083 C 358.496 187.579,358.433 187.992,358.433 189.000 M356.779 190.667 C 356.779 192.042,356.838 192.604,356.909 191.917 C 356.981 191.229,356.981 190.104,356.909 189.417 C 356.838 188.729,356.779 189.292,356.779 190.667 M369.744 191.667 C 369.744 192.308,369.813 192.571,369.896 192.250 C 369.980 191.929,369.980 191.404,369.896 191.083 C 369.813 190.762,369.744 191.025,369.744 191.667 M385.417 193.230 C 385.738 193.314,386.262 193.314,386.583 193.230 C 386.904 193.146,386.642 193.077,386.000 193.077 C 385.358 193.077,385.096 193.146,385.417 193.230 M400.587 193.902 C 401.002 193.982,401.602 193.979,401.921 193.896 C 402.239 193.812,401.900 193.747,401.167 193.751 C 400.433 193.754,400.173 193.823,400.587 193.902 M410.250 194.235 C 410.662 194.315,411.337 194.315,411.750 194.235 C 412.162 194.156,411.825 194.091,411.000 194.091 C 410.175 194.091,409.837 194.156,410.250 194.235 M418.917 194.574 C 419.512 194.648,420.488 194.648,421.083 194.574 C 421.679 194.501,421.192 194.440,420.000 194.440 C 418.808 194.440,418.321 194.501,418.917 194.574 M402.417 195.563 C 402.738 195.647,403.262 195.647,403.583 195.563 C 403.904 195.479,403.642 195.411,403.000 195.411 C 402.358 195.411,402.096 195.479,402.417 195.563 M412.750 195.896 C 413.071 195.980,413.596 195.980,413.917 195.896 C 414.238 195.813,413.975 195.744,413.333 195.744 C 412.692 195.744,412.429 195.813,412.750 195.896 M427.923 196.242 C 428.522 196.316,429.422 196.314,429.923 196.238 C 430.424 196.162,429.933 196.101,428.833 196.103 C 427.733 196.105,427.324 196.167,427.923 196.242 M448.411 203.667 C 448.411 204.308,448.479 204.571,448.563 204.250 C 448.647 203.929,448.647 203.404,448.563 203.083 C 448.479 202.762,448.411 203.025,448.411 203.667 M446.773 206.667 C 446.773 207.858,446.834 208.346,446.908 207.750 C 446.982 207.154,446.982 206.179,446.908 205.583 C 446.834 204.987,446.773 205.475,446.773 206.667 M59.751 206.833 C 59.754 207.567,59.823 207.827,59.902 207.413 C 59.982 206.998,59.979 206.398,59.896 206.079 C 59.812 205.761,59.747 206.100,59.751 206.833 M385.417 208.896 C 385.738 208.980,386.262 208.980,386.583 208.896 C 386.904 208.813,386.642 208.744,386.000 208.744 C 385.358 208.744,385.096 208.813,385.417 208.896 M409.587 209.902 C 410.002 209.982,410.602 209.979,410.921 209.896 C 411.239 209.812,410.900 209.747,410.167 209.751 C 409.433 209.754,409.173 209.823,409.587 209.902 M419.583 210.235 C 419.996 210.315,420.671 210.315,421.083 210.235 C 421.496 210.156,421.158 210.091,420.333 210.091 C 419.508 210.091,419.171 210.156,419.583 210.235 M396.917 210.902 C 397.329 210.981,398.004 210.981,398.417 210.902 C 398.829 210.822,398.492 210.757,397.667 210.757 C 396.842 210.757,396.504 210.822,396.917 210.902 M426.744 211.667 C 426.744 212.308,426.813 212.571,426.896 212.250 C 426.980 211.929,426.980 211.404,426.896 211.083 C 426.813 210.762,426.744 211.025,426.744 211.667 M407.583 211.235 C 407.996 211.315,408.671 211.315,409.083 211.235 C 409.496 211.156,409.158 211.091,408.333 211.091 C 407.508 211.091,407.171 211.156,407.583 211.235 M198.667 215.167 C 199.289 215.808,199.872 216.333,199.964 216.333 C 200.056 216.333,199.622 215.808,199.000 215.167 C 198.378 214.525,197.794 214.000,197.703 214.000 C 197.611 214.000,198.045 214.525,198.667 215.167 M448.751 215.833 C 448.754 216.567,448.823 216.827,448.902 216.413 C 448.982 215.998,448.979 215.398,448.896 215.079 C 448.812 214.761,448.747 215.100,448.751 215.833 M425.411 217.000 C 425.411 217.642,425.479 217.904,425.563 217.583 C 425.647 217.262,425.647 216.737,425.563 216.417 C 425.479 216.096,425.411 216.358,425.411 217.000 M426.751 217.167 C 426.754 217.900,426.823 218.161,426.902 217.746 C 426.982 217.331,426.979 216.731,426.896 216.413 C 426.812 216.094,426.747 216.433,426.751 217.167 M99.751 227.500 C 99.754 228.233,99.823 228.494,99.902 228.079 C 99.982 227.665,99.979 227.065,99.896 226.746 C 99.812 226.427,99.747 226.767,99.751 227.500 M83.434 228.915 C 85.231 228.975,88.081 228.975,89.767 228.915 C 91.454 228.854,89.983 228.805,86.500 228.806 C 83.017 228.806,81.637 228.855,83.434 228.915 M483.131 236.333 C 483.131 238.808,483.183 239.821,483.247 238.583 C 483.311 237.346,483.311 235.321,483.247 234.083 C 483.183 232.846,483.131 233.858,483.131 236.333 M449.411 237.000 C 449.411 237.642,449.479 237.904,449.563 237.583 C 449.647 237.262,449.647 236.737,449.563 236.417 C 449.479 236.096,449.411 236.358,449.411 237.000 M335.583 241.902 C 335.996 241.981,336.671 241.981,337.083 241.902 C 337.496 241.822,337.158 241.757,336.333 241.757 C 335.508 241.757,335.171 241.822,335.583 241.902 M332.921 254.569 C 333.335 254.649,333.935 254.646,334.254 254.562 C 334.573 254.479,334.233 254.414,333.500 254.417 C 332.767 254.421,332.506 254.489,332.921 254.569 M149.750 257.239 C 150.254 257.315,151.079 257.315,151.583 257.239 C 152.087 257.162,151.675 257.100,150.667 257.100 C 149.658 257.100,149.246 257.162,149.750 257.239 M382.750 262.572 C 383.254 262.648,384.079 262.648,384.583 262.572 C 385.087 262.496,384.675 262.433,383.667 262.433 C 382.658 262.433,382.246 262.496,382.750 262.572 M356.750 268.576 C 357.438 268.648,358.563 268.648,359.250 268.576 C 359.938 268.504,359.375 268.445,358.000 268.445 C 356.625 268.445,356.063 268.504,356.750 268.576 M364.484 276.417 L 363.167 277.833 364.583 276.516 C 365.363 275.791,366.000 275.153,366.000 275.099 C 366.000 274.847,365.710 275.099,364.484 276.417 M172.755 275.906 C 173.261 275.982,174.011 275.980,174.421 275.901 C 174.831 275.822,174.417 275.760,173.500 275.762 C 172.583 275.765,172.248 275.829,172.755 275.906 M137.250 277.911 C 138.029 277.981,139.304 277.981,140.083 277.911 C 140.862 277.841,140.225 277.783,138.667 277.783 C 137.108 277.783,136.471 277.841,137.250 277.911 M135.917 279.249 C 132.787 279.310,130.667 279.482,130.667 279.676 C 130.667 280.070,141.249 279.718,142.000 279.299 C 142.391 279.081,142.355 279.034,141.833 279.084 C 141.467 279.120,138.804 279.194,135.917 279.249 M416.917 286.235 C 417.329 286.315,418.004 286.315,418.417 286.235 C 418.829 286.156,418.492 286.091,417.667 286.091 C 416.842 286.091,416.504 286.156,416.917 286.235 M422.921 286.236 C 423.335 286.315,423.935 286.312,424.254 286.229 C 424.573 286.146,424.233 286.080,423.500 286.084 C 422.767 286.088,422.506 286.156,422.921 286.236 M400.250 287.241 C 400.846 287.315,401.821 287.315,402.417 287.241 C 403.012 287.167,402.525 287.107,401.333 287.107 C 400.142 287.107,399.654 287.167,400.250 287.241 " stroke="none" fill="#7c7c7c" fill-rule="evenodd"></path><path id="path4" d="M152.833 77.000 C 153.922 78.100,154.887 79.000,154.979 79.000 C 155.071 79.000,154.255 78.100,153.167 77.000 C 152.078 75.900,151.113 75.000,151.021 75.000 C 150.929 75.000,151.745 75.900,152.833 77.000 M131.254 88.569 C 131.669 88.649,132.269 88.646,132.587 88.562 C 132.906 88.479,132.567 88.414,131.833 88.417 C 131.100 88.421,130.839 88.489,131.254 88.569 M111.315 95.583 L 110.167 96.833 111.417 95.685 C 112.104 95.053,112.667 94.490,112.667 94.435 C 112.667 94.180,112.385 94.420,111.315 95.583 M90.077 108.333 C 90.077 108.975,90.146 109.237,90.230 108.917 C 90.314 108.596,90.314 108.071,90.230 107.750 C 90.146 107.429,90.077 107.692,90.077 108.333 M102.793 133.000 C 102.793 135.108,102.847 135.971,102.913 134.917 C 102.979 133.862,102.979 132.137,102.913 131.083 C 102.847 130.029,102.793 130.892,102.793 133.000 M399.421 168.573 C 399.928 168.649,400.678 168.647,401.088 168.568 C 401.498 168.489,401.083 168.426,400.167 168.429 C 399.250 168.431,398.915 168.496,399.421 168.573 M123.583 170.241 C 124.179 170.315,125.154 170.315,125.750 170.241 C 126.346 170.167,125.858 170.107,124.667 170.107 C 123.475 170.107,122.987 170.167,123.583 170.241 M370.917 192.569 C 371.329 192.648,372.004 192.648,372.417 192.569 C 372.829 192.489,372.492 192.424,371.667 192.424 C 370.842 192.424,370.504 192.489,370.917 192.569 M403.750 193.896 C 404.071 193.980,404.596 193.980,404.917 193.896 C 405.238 193.813,404.975 193.744,404.333 193.744 C 403.692 193.744,403.429 193.813,403.750 193.896 M423.083 196.239 C 423.587 196.315,424.412 196.315,424.917 196.239 C 425.421 196.162,425.008 196.100,424.000 196.100 C 422.992 196.100,422.579 196.162,423.083 196.239 M351.417 198.500 C 351.421 199.233,351.489 199.494,351.569 199.079 C 351.649 198.665,351.646 198.065,351.562 197.746 C 351.479 197.427,351.414 197.767,351.417 198.500 M448.411 200.667 C 448.411 201.308,448.479 201.571,448.563 201.250 C 448.647 200.929,448.647 200.404,448.563 200.083 C 448.479 199.762,448.411 200.025,448.411 200.667 M349.467 212.167 C 349.467 214.917,349.519 215.997,349.581 214.568 C 349.644 213.139,349.644 210.889,349.581 209.568 C 349.517 208.247,349.466 209.417,349.467 212.167 M387.750 208.896 C 388.071 208.980,388.596 208.980,388.917 208.896 C 389.238 208.813,388.975 208.744,388.333 208.744 C 387.692 208.744,387.429 208.813,387.750 208.896 M59.779 211.667 C 59.779 213.042,59.838 213.604,59.909 212.917 C 59.981 212.229,59.981 211.104,59.909 210.417 C 59.838 209.729,59.779 210.292,59.779 211.667 M402.587 209.569 C 403.002 209.649,403.602 209.646,403.921 209.562 C 404.239 209.479,403.900 209.414,403.167 209.417 C 402.433 209.421,402.173 209.489,402.587 209.569 M412.921 209.902 C 413.335 209.982,413.935 209.979,414.254 209.896 C 414.573 209.812,414.233 209.747,413.500 209.751 C 412.767 209.754,412.506 209.823,412.921 209.902 M422.921 210.236 C 423.335 210.315,423.935 210.312,424.254 210.229 C 424.573 210.146,424.233 210.080,423.500 210.084 C 422.767 210.088,422.506 210.156,422.921 210.236 M393.921 210.902 C 394.335 210.982,394.935 210.979,395.254 210.896 C 395.573 210.812,395.233 210.747,394.500 210.751 C 393.767 210.754,393.506 210.823,393.921 210.902 M404.250 211.235 C 404.662 211.315,405.337 211.315,405.750 211.235 C 406.162 211.156,405.825 211.091,405.000 211.091 C 404.175 211.091,403.837 211.156,404.250 211.235 M420.592 211.578 C 421.376 211.648,422.576 211.647,423.259 211.576 C 423.941 211.504,423.300 211.446,421.833 211.448 C 420.367 211.449,419.808 211.507,420.592 211.578 M169.433 213.667 C 169.433 214.675,169.496 215.088,169.572 214.583 C 169.648 214.079,169.648 213.254,169.572 212.750 C 169.496 212.246,169.433 212.658,169.433 213.667 M448.744 213.000 C 448.744 213.642,448.813 213.904,448.896 213.583 C 448.980 213.262,448.980 212.737,448.896 212.417 C 448.813 212.096,448.744 212.358,448.744 213.000 M425.411 214.333 C 425.411 214.975,425.479 215.237,425.563 214.917 C 425.647 214.596,425.647 214.071,425.563 213.750 C 425.479 213.429,425.411 213.692,425.411 214.333 M63.921 228.569 C 64.335 228.649,64.935 228.646,65.254 228.562 C 65.573 228.479,65.233 228.414,64.500 228.417 C 63.767 228.421,63.506 228.489,63.921 228.569 M102.917 228.574 C 103.513 228.648,104.487 228.648,105.083 228.574 C 105.679 228.501,105.192 228.440,104.000 228.440 C 102.808 228.440,102.321 228.501,102.917 228.574 M394.587 255.902 C 395.002 255.982,395.602 255.979,395.921 255.896 C 396.239 255.812,395.900 255.747,395.167 255.751 C 394.433 255.754,394.173 255.823,394.587 255.902 M411.000 267.104 C 411.000 267.162,411.488 267.649,412.083 268.188 L 413.167 269.167 412.188 268.083 C 411.275 267.074,411.000 266.847,411.000 267.104 M346.429 268.833 C 346.431 269.750,346.496 270.085,346.573 269.579 C 346.649 269.072,346.647 268.322,346.568 267.912 C 346.489 267.502,346.426 267.917,346.429 268.833 M144.762 270.500 C 144.765 271.417,144.829 271.752,144.906 271.245 C 144.982 270.739,144.980 269.989,144.901 269.579 C 144.822 269.169,144.760 269.583,144.762 270.500 M344.744 270.333 C 344.744 270.975,344.813 271.237,344.896 270.917 C 344.980 270.596,344.980 270.071,344.896 269.750 C 344.813 269.429,344.744 269.692,344.744 270.333 M5.025 270.320 C 3.365 270.727,4.021 271.192,6.413 271.303 C 9.104 271.429,25.325 271.449,28.583 271.331 C 30.844 271.248,31.446 270.809,29.417 270.723 C 28.729 270.693,27.792 270.579,27.333 270.468 C 26.224 270.201,6.058 270.067,5.025 270.320 M362.649 275.917 L 361.500 277.167 362.750 276.018 C 363.438 275.386,364.000 274.824,364.000 274.768 C 364.000 274.513,363.718 274.753,362.649 275.917 M151.250 276.916 C 153.496 276.973,157.171 276.973,159.417 276.916 C 161.662 276.858,159.825 276.811,155.333 276.811 C 150.842 276.811,149.004 276.858,151.250 276.916 M358.812 280.417 L 357.833 281.500 358.917 280.521 C 359.512 279.983,360.000 279.495,360.000 279.438 C 360.000 279.180,359.725 279.407,358.812 280.417 M419.750 286.230 C 420.071 286.314,420.596 286.314,420.917 286.230 C 421.238 286.146,420.975 286.077,420.333 286.077 C 419.692 286.077,419.429 286.146,419.750 286.230 " stroke="none" fill="#a4a4a4" fill-rule="evenodd"></path></g></svg>